<?xml version="1.0" standalone="no"?>
<!DOCTYPE svg PUBLIC "-//W3C//DTD SVG 20010904//EN"
 "http://www.w3.org/TR/2001/REC-SVG-20010904/DTD/svg10.dtd">
<svg version="1.0" xmlns="http://www.w3.org/2000/svg"
 width="700.000000pt" height="700.000000pt" viewBox="0 0 700.000000 700.000000"
 preserveAspectRatio="xMidYMid meet">
<metadata>
Created by potrace 1.11, written by Peter Selinger 2001-2013
</metadata>
<g transform="translate(0.000000,700.000000) scale(0.100000,-0.100000)"
fill="#000000" stroke="none">
<path d="M3085 6769 c-49 -5 -100 -11 -113 -14 -31 -7 -231 -186 -387 -346
-248 -254 -327 -393 -292 -509 7 -24 3 -27 -80 -65 -113 -51 -296 -174 -399
-267 -206 -185 -376 -417 -496 -679 -58 -128 -141 -366 -173 -497 -19 -79 -16
-77 -108 -85 -29 -3 -63 -15 -88 -31 -40 -27 -53 -45 -143 -200 -27 -47 -84
-132 -127 -189 -70 -93 -80 -112 -94 -176 -55 -261 32 -525 220 -666 138 -103
575 -279 784 -315 163 -29 250 31 238 163 -5 52 -29 107 -196 441 -180 359
-227 463 -217 474 6 5 92 -54 102 -70 4 -7 7 -28 6 -49 -3 -50 15 -63 78 -55
28 4 50 3 50 -2 0 -5 -7 -29 -15 -52 -44 -125 14 -220 135 -220 31 0 48 7 77
34 l38 34 209 -202 210 -202 -85 -24 c-109 -30 -131 -43 -127 -78 2 -21 17
-34 75 -67 39 -22 75 -43 79 -47 3 -4 -28 -51 -70 -104 -76 -98 -86 -120 -64
-142 19 -19 43 -15 135 23 47 20 88 34 90 31 3 -2 -1 -37 -7 -78 -6 -40 -10
-89 -8 -108 3 -30 7 -35 31 -38 15 -2 64 9 109 24 93 31 91 32 109 -65 6 -36
16 -74 21 -83 12 -24 55 -23 119 2 62 25 62 25 78 -73 7 -39 17 -77 23 -84 16
-20 49 -16 137 17 l80 29 50 -95 c28 -52 51 -99 51 -105 0 -6 -18 -41 -40 -77
-113 -192 -211 -484 -255 -767 -20 -130 -34 -361 -25 -416 21 -138 140 -209
349 -209 l78 0 73 -80 c230 -256 472 -286 695 -88 l55 50 98 -60 c124 -76 156
-92 217 -108 143 -39 276 3 391 123 44 45 60 55 104 63 128 24 262 136 349
291 17 31 31 67 31 81 0 14 6 30 13 36 7 6 74 31 148 56 605 200 995 506 1083
849 49 189 22 381 -83 590 -75 149 -106 149 -146 1 -99 -361 -407 -712 -904
-1030 -53 -34 -99 -60 -102 -58 -3 2 -9 47 -13 101 -33 463 -181 990 -430
1536 l-26 57 74 0 c41 0 81 3 90 6 20 8 20 59 2 162 -10 53 -10 75 -2 77 6 2
57 18 114 35 64 19 105 37 109 47 5 12 -31 142 -64 228 -2 6 13 17 34 24 94
34 163 70 163 87 0 10 -20 57 -45 105 -25 48 -45 93 -45 98 0 6 37 29 83 52
149 75 151 88 32 188 -96 81 -93 60 -26 205 44 95 50 130 25 140 -9 3 -70 6
-135 6 -110 0 -120 2 -115 18 2 9 12 68 22 130 22 147 23 145 -112 140 l-101
-3 19 65 c47 158 40 170 -90 170 l-84 0 7 109 c4 60 4 118 0 130 -8 26 -41 27
-131 5 -36 -9 -67 -14 -69 -12 -3 3 -16 42 -29 88 -29 97 -48 117 -86 87 -9
-7 -46 -51 -84 -99 -37 -49 -72 -88 -76 -88 -5 0 -48 25 -96 55 -49 30 -96 55
-106 55 -22 0 -37 -27 -44 -84 l-7 -45 -41 21 c-55 28 -223 143 -262 180 -31
29 -31 30 -17 71 23 65 -1 150 -51 182 -31 21 -112 21 -159 2 l-36 -16 6 62
c4 51 2 65 -11 76 -15 12 -24 12 -69 -2 l-52 -17 -40 40 -40 40 35 0 c49 0
478 -38 575 -50 44 -6 137 -22 208 -37 108 -22 133 -24 166 -14 74 22 128 112
111 186 -22 99 -244 409 -415 579 -125 125 -344 305 -414 341 -84 42 -264 61
-426 44z m266 -1260 c-15 -63 -13 -105 4 -119 13 -11 32 -5 113 33 53 26 100
47 104 47 17 0 38 -35 38 -64 0 -29 -27 -60 -251 -289 -138 -142 -257 -257
-264 -257 -7 0 -31 21 -55 46 -120 131 -132 314 -33 512 54 107 58 106 55 -8
-3 -90 -2 -100 17 -109 31 -17 43 -6 85 74 39 77 90 131 156 165 19 10 36 17
38 15 1 -1 -2 -22 -7 -46z m1098 -404 c7 -30 20 -64 29 -76 l18 -21 81 19 81
20 -2 -126 -1 -126 92 -3 91 -3 -24 -87 c-41 -148 -37 -153 109 -143 63 4 97
3 97 -4 0 -5 -9 -62 -19 -125 -13 -76 -16 -121 -10 -132 8 -16 25 -18 124 -18
63 0 115 -4 115 -9 0 -5 -18 -50 -41 -100 -22 -51 -38 -98 -36 -106 3 -7 37
-39 75 -71 39 -33 71 -61 71 -64 1 -3 -38 -25 -86 -50 -48 -25 -92 -53 -97
-62 -8 -14 0 -39 37 -114 26 -53 47 -97 45 -99 -2 -1 -39 -17 -83 -35 -44 -18
-86 -37 -92 -42 -20 -16 -16 -49 22 -151 l34 -96 -106 -33 c-59 -19 -111 -41
-117 -50 -9 -15 3 -130 20 -190 5 -16 -5 -18 -115 -18 -95 0 -123 -3 -135 -16
-20 -20 -20 -22 4 -139 11 -53 20 -98 20 -100 0 -1 -46 8 -102 21 -180 40
-182 39 -167 -116 5 -56 8 -105 5 -107 -2 -3 -65 8 -140 23 -167 35 -164 36
-177 -92 -5 -49 -12 -99 -14 -111 l-5 -22 -102 35 c-113 38 -143 41 -152 18
-3 -9 -6 -60 -6 -115 0 -54 -2 -99 -5 -99 -2 0 -50 19 -104 41 -55 23 -107 39
-116 35 -9 -3 -34 -45 -55 -93 -22 -49 -46 -101 -53 -117 l-13 -29 -55 79
c-33 47 -62 80 -74 82 -13 2 -41 -16 -77 -48 l-56 -50 -51 94 c-28 51 -57 96
-65 99 -8 3 -53 -7 -100 -23 -47 -16 -88 -26 -90 -22 -2 4 -10 42 -16 85 -13
76 -28 107 -54 107 -7 0 -41 -11 -76 -25 -35 -14 -67 -22 -71 -18 -3 5 -12 37
-19 73 -25 126 -24 125 -154 85 l-79 -24 7 42 c3 23 9 77 12 119 7 75 6 77
-17 83 -15 4 -44 -2 -73 -15 -27 -11 -50 -19 -52 -17 -2 2 14 27 36 56 22 29
40 57 40 61 0 14 -28 38 -76 66 -25 15 -43 28 -41 30 2 3 57 20 121 38 86 25
126 42 148 63 17 15 135 145 264 289 l234 261 67 18 c83 22 239 77 284 100 60
31 135 112 164 176 21 48 28 85 37 187 5 70 12 146 14 170 5 40 24 64 236 300
126 141 237 270 245 287 9 16 22 83 30 149 7 66 15 122 18 124 2 2 38 -17 80
-42 42 -25 84 -46 95 -46 12 0 43 29 82 79 35 44 66 80 69 80 3 1 11 -24 18
-54z m-2312 -961 c31 -21 72 -60 91 -86 l34 -48 -24 -29 c-42 -52 -420 -476
-449 -503 -25 -24 -32 -26 -59 -17 -27 10 -30 15 -30 53 0 29 13 69 40 126 40
82 41 84 22 103 -17 17 -25 17 -77 8 -32 -6 -60 -9 -63 -6 -9 9 42 97 83 143
24 26 67 61 97 77 71 38 80 51 52 79 -12 12 -37 16 -107 16 l-92 0 25 20 c36
28 137 81 184 97 25 8 75 12 128 10 84 -3 90 -5 145 -43z"/>
<path d="M4200 3169 c0 -5 -22 -34 -50 -63 -54 -58 -58 -67 -34 -90 35 -35
103 -8 143 58 25 40 27 69 5 90 -17 18 -64 22 -64 5z"/>
</g>
</svg>
