<?xml version="1.0" standalone="no"?>
<!DOCTYPE svg PUBLIC "-//W3C//DTD SVG 1.1//EN" "http://www.w3.org/Graphics/SVG/1.1/DTD/svg11.dtd" >
<svg xmlns="http://www.w3.org/2000/svg" xmlns:xlink="http://www.w3.org/1999/xlink" version="1.1">
<metadata></metadata>
<defs>
<font id="europaregular" horiz-adv-x="1126" >
<font-face units-per-em="2048" ascent="1577" descent="-471" />
<missing-glyph horiz-adv-x="475" />
<glyph unicode="&#xfb01;" horiz-adv-x="1040" d="M41 897v61q0 31 31 31h116v39q0 184 78 299q100 150 318 150q156 0 243 -35q33 -14 25 -43l-18 -70q-8 -29 -41 -18q-86 29 -197 28q-233 0 -234 -303v-47h504q39 0 39 -41v-905q0 -43 -41 -43h-92q-41 0 -41 43v823h-369v-823q0 -43 -40 -43h-93q-41 0 -41 43v823h-116 q-31 0 -31 31z" />
<glyph unicode="&#xfb02;" horiz-adv-x="1081" d="M41 897v61q0 31 31 31h116v39q0 207 66 307q92 141 303 142q127 0 252 -39l94 18q41 8 41 -33v-1380q0 -43 -41 -43h-92q-41 0 -41 43v1270q-88 27 -197 26q-125 0 -166.5 -73.5t-41.5 -218.5v-58h229q31 0 31 -31v-61q0 -31 -31 -31h-232v-823q0 -43 -40 -43h-93 q-41 0 -41 43v823h-116q-31 0 -31 31z" />
<glyph unicode="&#xfb03;" horiz-adv-x="1634" d="M41 897v61q0 31 31 31h116v27q0 82 9 155q16 137 99 212t224 75q90 0 150 -24q33 -14 24 -43l-20 -70q-8 -29 -41 -18q-57 16 -103 16q-92 0 -130 -62.5t-38 -191.5v-76h420v39q0 184 78 299q100 150 318 150q156 0 243 -35q33 -14 25 -43l-19 -70q-8 -29 -41 -18 q-86 29 -196 28q-233 0 -234 -303v-47h504q39 0 39 -41v-905q0 -43 -41 -43h-92q-41 0 -41 43v823h-369v-823q0 -43 -41 -43h-92q-41 0 -41 43v823h-420v-823q0 -43 -40 -43h-93q-41 0 -41 43v823h-116q-31 0 -31 31z" />
<glyph unicode="&#xfb04;" horiz-adv-x="1675" d="M41 897v61q0 31 31 31h116v27q0 82 9 155q16 137 99 212t224 75q90 0 150 -24q33 -14 24 -43l-20 -70q-8 -29 -41 -18q-57 16 -103 16q-92 0 -130 -62.5t-38 -191.5v-76h420v39q0 207 66 307q92 141 303 142q127 0 252 -39l94 18q41 8 41 -33v-1380q0 -43 -41 -43h-92 q-41 0 -41 43v1270q-88 27 -197 26q-125 0 -167 -73.5t-42 -218.5v-58h230q31 0 31 -31v-61q0 -31 -31 -31h-232v-823q0 -43 -41 -43h-92q-41 0 -41 43v823h-420v-823q0 -43 -40 -43h-93q-41 0 -41 43v823h-116q-31 0 -31 31z" />
<glyph horiz-adv-x="0" />
<glyph horiz-adv-x="0" />
<glyph unicode="&#xd;" horiz-adv-x="681" />
<glyph unicode=" "  horiz-adv-x="475" />
<glyph unicode="&#x09;" horiz-adv-x="475" />
<glyph unicode="&#xa0;" horiz-adv-x="475" />
<glyph unicode="!" horiz-adv-x="505" d="M135 90q0 53 35 83t84 30q47 0 82 -30t35 -81q0 -53 -35 -82.5t-84 -29.5q-47 0 -82 29.5t-35 80.5zM166 1370q0 41 39 41h102q41 0 41 -41l-20 -1030q0 -35 -35 -35h-72q-37 0 -37 35z" />
<glyph unicode="&#x22;" horiz-adv-x="651" d="M80 1399q-2 37 33 37h102q35 0 33 -37l-12 -295q0 -37 -39 -37h-68q-37 0 -37 37zM403 1399q-2 37 33 37h103q35 0 32 -37l-12 -295q0 -37 -39 -37h-67q-37 0 -37 37z" />
<glyph unicode="#" d="M41 438l12 78q2 12 6 18.5t12.5 9.5t24.5 3h166l43 280h-170q-37 0 -31 31l13 78q2 12 6 18.5t12 9.5t25 3h172l59 403q4 23 13.5 32t35.5 9h82q41 0 35 -41l-61 -403h217l63 403q4 23 13.5 32t35.5 9h82q41 0 35 -41l-59 -403h170q37 0 30 -31l-12 -78q-2 -12 -6 -18 t-12.5 -9.5t-24.5 -3.5h-170l-43 -280h172q37 0 31 -31l-12 -78q-2 -12 -6.5 -18t-12.5 -9t-24 -3h-172l-58 -367q-4 -23 -13 -32t-36 -9h-82q-41 0 -35 41l62 367h-226l-61 -367q-4 -23 -13.5 -32t-35.5 -9h-84q-41 0 -35 41l59 367h-161q-37 0 -31 30zM428 547h221l45 280 h-221z" />
<glyph unicode="$" d="M154 1073q0 154 109.5 248t266.5 111v170q0 29 29 28h51q29 1 29 -28v-168q164 -6 283 -64q35 -16 22 -49l-31 -82q-12 -37 -53 -18q-115 51 -221 57v-469l90 -47q137 -72 208 -159t71 -220q0 -164 -103.5 -266.5t-265.5 -128.5v-166q0 -29 -29 -29h-51q-29 0 -29 29v158 q-178 0 -342 57q-37 12 -26 51l26 92q12 37 54 21q145 -59 288 -60v518l-151 82q-225 121 -225 332zM350 1090q0 -76 39 -122t121 -89l20 -13v408q-78 -14 -129 -60t-51 -124zM639 154q180 49 180 215q0 82 -44 133t-136 100v-448z" />
<glyph unicode="%" horiz-adv-x="1552" d="M102 1057q0 166 65.5 267t195 101t195 -101t65.5 -267t-65.5 -267.5t-195 -101.5t-195 101.5t-65.5 267.5zM242 1057q0 -260 120.5 -260t120.5 260t-120.5 260t-120.5 -260zM272 27l854 1370q16 25 28.5 32t41.5 7h57q60 0 29 -47l-854 -1371q-23 -39 -70 -38h-59 q-55 0 -27 47zM930 360.5q0 165.5 65.5 267t194.5 101.5t194.5 -101.5t65.5 -267t-65.5 -267t-194.5 -101.5t-194.5 101.5t-65.5 267zM1069 360.5q0 -260.5 121 -260.5t121 260.5t-121 260.5t-121 -260.5z" />
<glyph unicode="&#x26;" horiz-adv-x="1398" d="M78 369q0 143 86 240.5t252 203.5l-64 76q-115 135 -114.5 258t93.5 206t230 83q139 0 229.5 -78t90.5 -207q0 -98 -65.5 -179t-180.5 -165l354 -418q139 195 160 455q2 31 31 30h86q29 0 28 -28q0 -137 -58 -298t-149 -265q106 -104 263 -154q35 -12 22 -47l-24 -70 q-12 -33 -52 -24q-186 41 -323 178q-199 -186 -469 -186q-182 0 -304 106.5t-122 282.5zM264 387q0 -119 78 -188.5t195 -69.5q199 0 340 137l-377 447q-236 -162 -236 -326zM412 1151q0 -80 88 -182l53 -62q168 125 168 240q0 72 -42 114t-114 42q-68 0 -110.5 -41 t-42.5 -111z" />
<glyph unicode="'" horiz-adv-x="327" d="M80 1399q-2 37 33 37h102q35 0 33 -37l-12 -295q0 -37 -39 -37h-68q-37 0 -37 37z" />
<glyph unicode="(" horiz-adv-x="665" d="M186 614q0 416 322 840q20 24 45 10l57 -34q23 -12 2 -46q-135 -203 -194.5 -383t-59.5 -413q0 -412 248 -750q20 -27 -10 -49l-49 -33q-29 -18 -51 11q-309 408 -310 847z" />
<glyph unicode=")" horiz-adv-x="663" d="M49 -168q137 205 197.5 385t60.5 412q0 217 -58.5 392t-187.5 355q-23 31 7 51l51 35q29 20 49 -6q309 -412 309 -852q0 -420 -319 -840q-18 -25 -45 -10l-58 35q-25 14 -6 43z" />
<glyph unicode="*" horiz-adv-x="681" d="M70 1206l32 103q8 33 41 12l170 -104l-39 190q-4 20 -4 29q0 20 25 20h88q31 0 31 -20q0 -6 -6 -35l-37 -184l161 98q39 25 52 -12l26 -84q10 -39 -24 -43l-187 -23l138 -139q23 -27 -9 -51l-57 -45q-37 -25 -49 10l-82 194l-78 -196q-16 -33 -43 -13l-72 52q-27 23 0 49 l142 141l-201 21q-27 4 -18 30z" />
<glyph unicode="+" d="M117 494v86q0 33 37 32h329v355q0 35 37 34h88q37 0 37 -34v-355h328q37 1 37 -32v-86q0 -33 -37 -33h-328v-350q0 -35 -37 -35h-88q-37 0 -37 35v350h-329q-37 0 -37 33z" />
<glyph unicode="," horiz-adv-x="411" d="M100 -227q-16 20 4 37q72 68 72 135q0 27 -35 72.5t-35 76.5q0 47 32 78t79 31q51 0 85 -43.5t34 -96.5q0 -90 -51.5 -182t-122.5 -133q-27 -14 -41 2z" />
<glyph unicode="-" horiz-adv-x="567" d="M84 496v79q0 41 39 41h321q39 0 39 -41v-79q0 -39 -39 -39h-321q-39 0 -39 39z" />
<glyph unicode="." horiz-adv-x="417" d="M102 90q0 53 35 83t84 30q47 0 82 -30t35 -81q0 -53 -35 -82.5t-84 -29.5q-47 0 -82 29.5t-35 80.5z" />
<glyph unicode="/" horiz-adv-x="669" d="M66 20l413 1381q10 35 47 35h82q39 0 27 -41l-410 -1381q-10 -35 -47 -34h-86q-38 -1 -26 40z" />
<glyph unicode="0" d="M78 705q0 129 25.5 251.5t80 233t153.5 178.5t230 68q133 0 230.5 -65.5t149.5 -176.5t77 -231.5t25 -251.5t-26 -253t-79 -233.5t-151.5 -178t-231.5 -66.5q-106 0 -191 45t-139.5 116.5t-89.5 168t-49 193.5t-14 202zM276 708.5q0 -100.5 12.5 -191.5t42 -180 t89 -142.5t143.5 -53.5t143.5 53.5t89 142.5t42 180t12.5 191.5t-13.5 192.5t-43 180t-88 141.5t-140.5 53.5q-84 0 -143.5 -53.5t-89 -142.5t-43 -180t-13.5 -191.5z" />
<glyph unicode="1" d="M154 1098q-20 35 14 57l369 229q43 27 86 27h69q39 0 39 -41v-1329q0 -41 -39 -41h-104q-41 0 -41 41v1167l-301 -186q-37 -23 -56 14z" />
<glyph unicode="2" d="M115 33v76q0 41 30 71q51 53 163 164t167 170q156 168 232.5 293t76.5 235q0 106 -68.5 169t-176.5 63q-143 0 -293 -86q-33 -16 -49 18l-31 66q-16 35 16 55q174 109 383 109q178 0 297 -99.5t119 -275.5q0 -152 -89 -297.5t-292 -355.5q-41 -43 -248 -250h590 q39 0 39 -33v-92q0 -33 -39 -33h-788q-39 0 -39 33z" />
<glyph unicode="3" d="M125 100l29 74q12 33 57 12q123 -55 266 -55q133 0 215 76t82 205q0 137 -95 206.5t-241 69.5h-57q-37 0 -37 35v72q0 35 37 34h55q133 0 209 60.5t76 183.5q0 104 -67.5 159.5t-180.5 55.5q-129 0 -250 -69q-31 -16 -43 12l-33 74q-8 23 15 38q150 92 344 93 q166 0 287.5 -94.5t121.5 -256.5q0 -109 -65.5 -197.5t-165.5 -119.5q125 -29 205 -127t80 -229q0 -190 -139.5 -311t-337.5 -121q-207 0 -349 71q-31 16 -18 49z" />
<glyph unicode="4" d="M90 377v49q0 37 23 86l391 858q18 41 51 41h117q23 0 22 -18q0 -16 -8 -33l-391 -875h422v328q0 39 43 39h98q41 0 41 -39v-328h162q35 0 35 -39v-81q0 -37 -35 -37h-162v-289q0 -39 -37 -39h-104q-41 0 -41 41v287h-582q-45 0 -45 49z" />
<glyph unicode="5" d="M145 119l33 76q14 35 55 12q133 -70 279 -70q127 0 212 75t85 210q0 311 -403 311h-130q-61 0 -61 62v569q0 47 43 47h635q39 0 39 -33v-90q0 -33 -39 -33h-494v-381h62q236 0 389.5 -109.5t153.5 -334.5q0 -209 -142.5 -329.5t-361.5 -120.5q-168 0 -334 86 q-37 18 -21 53z" />
<glyph unicode="6" d="M127 600q0 352 117 563q150 272 471 273q92 0 172 -25q39 -12 33 -41l-19 -78q-8 -37 -43 -26q-68 18 -137 18q-229 0 -326 -221q-47 -111 -61 -295q121 119 293 119q176 0 289.5 -112.5t113.5 -309.5q0 -207 -119.5 -346t-318.5 -139q-127 0 -220 49t-144.5 137 t-76 195.5t-24.5 238.5zM324 555q0 -199 66.5 -310.5t203.5 -111.5q123 0 181.5 97.5t58.5 218t-57.5 202.5t-174.5 82q-68 0 -143.5 -32.5t-132.5 -98.5q-2 -18 -2 -47z" />
<glyph unicode="7" d="M131 1284v94q0 33 39 33h821q45 0 45 -43v-61q0 -39 -20 -84l-549 -1182q-20 -41 -66 -41h-112q-49 0 -27 53l565 1198h-657q-39 0 -39 33z" />
<glyph unicode="8" d="M94 381q0 125 86 221t219 150q-111 49 -178 137t-67 194q0 154 119.5 253.5t293.5 99.5t287 -94.5t113 -251.5q0 -94 -71 -184.5t-175 -139.5q309 -129 309 -365q0 -188 -136 -304.5t-335 -116.5q-203 0 -334 105t-131 296zM289 389q0 -121 83 -194.5t193 -73.5 q113 0 192 69.5t79 194.5q0 59 -24 107.5t-70 84t-89 59t-106 50.5q-258 -109 -258 -297zM348 1092q0 -90 58.5 -151t160.5 -112q205 102 205 258q0 94 -56.5 150.5t-156.5 56.5q-90 0 -150.5 -57t-60.5 -145z" />
<glyph unicode="9" d="M96 952q0 207 120 345.5t319 138.5q168 0 275.5 -88t148 -220.5t40.5 -310.5q0 -350 -116 -563q-152 -274 -471 -274q-98 0 -174 22q-37 12 -31 45l18 76q8 37 43 27q68 -18 138 -19q227 0 325 223q48 111 62 295q-121 -119 -293 -119q-176 0 -290 113t-114 309zM293 969 q0 -121 57.5 -203t173.5 -82q68 0 144 32.5t133 98.5q2 18 2 47q0 197 -66.5 308.5t-204.5 111.5q-123 0 -181 -96t-58 -217z" />
<glyph unicode=":" horiz-adv-x="438" d="M111 92q0 53 35.5 85t86.5 32q47 0 83 -31t36 -82q0 -53 -35.5 -84.5t-85 -31.5t-85 30.5t-35.5 81.5zM111 895q0 53 35.5 85t86.5 32q47 0 83 -31t36 -82q0 -53 -35.5 -85t-85 -32t-85 31t-35.5 82z" />
<glyph unicode=";" horiz-adv-x="438" d="M106 -227q-16 20 5 37q72 68 71 135q0 27 -34.5 72.5t-34.5 76.5q0 47 31.5 78t78.5 31q51 0 85 -43.5t34 -96.5q0 -90 -51 -182t-123 -133q-27 -14 -41 2zM109 895q0 53 36.5 85t86 32t85 -32t35.5 -85q0 -51 -36.5 -83t-84 -32t-85 32t-37.5 83z" />
<glyph unicode="&#x3c;" d="M166 510v53q0 27 27 45l610 400q33 27 55 -7l53 -79q16 -29 -10 -45l-530 -340l524 -336q27 -16 10 -47l-51 -82q-20 -35 -59 -9l-605 402q-25 16 -24 45z" />
<glyph unicode="=" d="M117 319v87q0 33 37 32h819q37 1 37 -32v-87q0 -33 -37 -32h-819q-37 0 -37 32zM117 680v86q0 33 37 33h819q37 0 37 -33v-86q0 -33 -37 -33h-819q-37 0 -37 33z" />
<glyph unicode="&#x3e;" d="M215 152q-16 29 10 45l531 340l-525 335q-27 16 -10 48l51 81q20 35 60 9l604 -402q25 -16 25 -45v-53q0 -27 -27 -45l-610 -399q-33 -27 -56 6z" />
<glyph unicode="?" horiz-adv-x="862" d="M113 1327q-10 27 14 39q125 70 289 70q152 0 256 -87.5t104 -234.5q0 -152 -125 -287l-149 -161q-102 -113 -103 -199q0 -18 7 -68q2 -33 -29 -32h-82q-25 0 -33 28q-10 41 -10 101q0 121 94 221l150 155q111 117 110 218q0 111 -65.5 158.5t-161.5 47.5q-111 0 -201 -51 q-29 -16 -39 15zM229 90q0 53 35 83t84 30q47 0 82 -30t35 -81q0 -53 -35 -82.5t-84 -29.5q-47 0 -82 29.5t-35 80.5z" />
<glyph unicode="@" horiz-adv-x="1679" d="M117 643q0 340 232.5 566.5t574.5 226.5q289 0 473 -176t184 -463q0 -117 -41 -227.5t-130 -190.5t-208 -80q-84 0 -144.5 42t-66.5 132h-2q-86 -137 -225 -137q-111 0 -167 82t-56 200q0 166 98 307.5t256 141.5q61 0 112.5 -31.5t67.5 -99.5l21 78q6 25 32 24h56 q20 0 25 -7t1 -23l-94 -406q-14 -57 -14 -106q0 -115 104 -115q88 0 149.5 73.5t84 164t22.5 182.5q0 233 -151.5 372.5t-390.5 139.5q-274 0 -446.5 -191.5t-172.5 -472.5q0 -260 154.5 -408.5t416.5 -148.5q166 0 338 78q29 14 37 -10l23 -54q10 -23 -17 -36 q-178 -90 -401 -90q-328 0 -531.5 177t-203.5 486zM698 616q0 -162 111 -161q108 0 176 147l49 219q-4 55 -32.5 98.5t-86.5 43.5q-74 0 -126 -64.5t-71.5 -139.5t-19.5 -143z" />
<glyph unicode="A" horiz-adv-x="1245" d="M20 41l515 1341q10 29 36 29h109q29 0 37 -25l506 -1345q16 -41 -27 -41h-131q-39 0 -49 33l-137 385h-531l-141 -385q-10 -33 -49 -33h-113q-41 0 -25 41zM397 559h432l-211 608h-2z" />
<glyph unicode="B" horiz-adv-x="1185" d="M154 47v1317q0 47 43 47h309q479 0 479 -344q0 -115 -64.5 -200t-181.5 -109v-2q154 -6 254.5 -101.5t100.5 -248.5q0 -406 -533 -406h-364q-43 0 -43 47zM344 145h199q78 0 135 10.5t110.5 36t82 80t30.5 134.5q0 264 -364 264h-193v-525zM344 809h160q295 0 295 246 q0 121 -81 166t-222 45h-152v-457z" />
<glyph unicode="C" horiz-adv-x="1210" d="M100 705q0 199 74 362.5t222.5 266t346.5 102.5q209 0 377 -93q33 -18 19 -53l-35 -73q-14 -31 -45 -15q-141 80 -303 80q-217 0 -335 -167t-118 -394q0 -252 115 -421t338 -169q168 0 315 74q37 16 51 -19l25 -61q4 -11 4 -20q0 -24 -27 -37q-176 -88 -395 -88 q-307 0 -468 203.5t-161 521.5z" />
<glyph unicode="D" horiz-adv-x="1372" d="M156 47v1317q0 47 43 47h274q199 0 314.5 -21.5t209.5 -80.5q133 -82 207 -240t74 -371q0 -356 -211 -548q-168 -150 -504 -150h-364q-43 0 -43 47zM346 152h176q150 0 243 23.5t161 90.5q149 153 149 434q0 319 -174 459q-121 98 -360 98h-195v-1105z" />
<glyph unicode="E" horiz-adv-x="1044" d="M156 47v1317q0 47 43 47h716q41 0 35 -35l-12 -82q-4 -33 -45 -32h-547v-449h483q39 0 39 -33v-82q0 -33 -39 -32h-483v-516h569q39 0 39 -33v-84q0 -33 -39 -33h-716q-43 0 -43 47z" />
<glyph unicode="F" horiz-adv-x="1026" d="M156 41v1323q0 47 43 47h716q41 0 35 -35l-12 -82q-4 -32 -45 -32h-547v-449h483q39 0 39 -33v-82q0 -33 -39 -32h-483v-625q0 -41 -39 -41h-110q-41 0 -41 41z" />
<glyph unicode="G" horiz-adv-x="1343" d="M100 700q0 319 189.5 527.5t505.5 208.5q199 0 356 -70q33 -14 20 -49l-28 -80q-12 -33 -47 -18q-145 59 -295 59q-236 0 -367 -162t-131 -407q0 -250 114.5 -415t340.5 -165q156 0 254 49v426h-271q-20 0 -30.5 7t-8.5 26l13 82q6 33 39 33h407q41 0 41 -45v-555 q0 -55 -45 -80q-168 -92 -397 -92q-324 0 -492 195.5t-168 524.5z" />
<glyph unicode="H" horiz-adv-x="1351" d="M156 41v1329q0 41 39 41h110q41 0 41 -41v-557h660v557q0 41 38 41h111q41 0 41 -41v-1329q0 -41 -39 -41h-110q-41 0 -41 41v625h-660v-625q0 -41 -39 -41h-110q-41 0 -41 41z" />
<glyph unicode="I" horiz-adv-x="759" d="M127 1317v61q0 33 39 33h428q39 0 39 -33v-61q0 -33 -39 -33h-121v-1155h119q39 0 39 -33v-63q0 -33 -39 -33h-418q-39 0 -39 33v63q0 33 39 33h115v1155h-123q-39 0 -39 33z" />
<glyph unicode="J" horiz-adv-x="778" d="M78 23q0 2 1 6t1 6l16 84q4 23 25 22q2 0 6 -1t6 -1q57 -10 100 -10q117 0 160 68q41 63 41 229v954q0 31 39 31h107q39 0 38 -39v-899q0 -313 -120 -414q-93 -77 -267 -77h-4q-63 0 -125 14q-25 6 -24 27z" />
<glyph unicode="K" horiz-adv-x="1132" d="M156 41v1329q0 41 39 41h110q41 0 41 -41v-594h2l490 604q25 31 67 31h105q23 0 26.5 -14.5t-8.5 -26.5l-520 -637l579 -684q16 -16 13.5 -32.5t-27.5 -16.5h-135q-47 0 -74 33l-516 620h-2v-612q0 -41 -39 -41h-110q-41 0 -41 41z" />
<glyph unicode="L" horiz-adv-x="929" d="M156 47v1323q0 41 39 41h110q41 0 41 -41v-1218h514q39 0 39 -33v-86q0 -33 -39 -33h-661q-43 0 -43 47z" />
<glyph unicode="M" horiz-adv-x="1677" d="M156 39l47 1333q2 39 39 39h88q37 0 53 -31l475 -895h2l434 893q16 33 45 33h97q35 0 34 -33l56 -1337v-7q0 -34 -37 -34h-117q-39 0 -39 41l-35 1003h-4l-370 -763q-12 -29 -41 -29h-70q-31 0 -45 29l-408 763h-2l-24 -1007q0 -20 -9.5 -28.5t-31.5 -8.5h-100 q-39 0 -37 39z" />
<glyph unicode="N" horiz-adv-x="1421" d="M156 41v1329q0 41 39 41h81q43 0 70 -41l739 -1059h5v1059q0 41 38 41h97q41 0 41 -41v-1329q0 -41 -39 -41h-90q-43 0 -70 41l-731 1044h-4v-1044q0 -41 -39 -41h-96q-41 0 -41 41z" />
<glyph unicode="O" horiz-adv-x="1384" d="M100 700q0 332 166 534t434 202q276 0 430 -196.5t154 -524.5q0 -340 -169 -537.5t-433 -197.5q-274 0 -428 192.5t-154 527.5zM301 707q0 -268 102.5 -420t286.5 -152q176 0 284.5 156t108.5 418q0 272 -100 420.5t-287 148.5q-176 0 -285.5 -158.5t-109.5 -412.5z" />
<glyph unicode="P" horiz-adv-x="1062" d="M156 41v1323q0 47 43 47h264q248 0 392 -103.5t144 -326.5q0 -225 -143 -335.5t-389 -110.5h-121v-494q0 -41 -39 -41h-110q-41 0 -41 41zM346 680h127q160 0 247 67.5t87 229.5q0 289 -348 289h-113v-586z" />
<glyph unicode="Q" horiz-adv-x="1372" d="M100 700q0 332 166 534t434 202q276 0 430 -197t154 -524q0 -227 -80 -393t-221 -256v-5q84 -10 281 -22q39 -2 39 -29q0 -7 -3 -16l-24 -76q-10 -31 -45 -31q-195 6 -443 41q-336 45 -489 193q-199 188 -199 579zM301 707q0 -268 104.5 -420t286.5 -152q176 0 283.5 156 t107.5 418q0 272 -100 420.5t-287 148.5q-176 0 -285.5 -158.5t-109.5 -412.5z" />
<glyph unicode="R" horiz-adv-x="1136" d="M156 41v1323q0 47 43 47h293q516 0 516 -414q0 -141 -80 -244.5t-207 -146.5l336 -561q10 -16 4 -30.5t-31 -14.5h-117q-43 0 -63 37l-307 536h-197v-532q0 -41 -39 -41h-110q-41 0 -41 41zM346 717h158q139 0 225 72.5t86 205.5q0 145 -86 208t-252 63h-131v-549z" />
<glyph unicode="S" horiz-adv-x="1040" d="M102 1073q0 168 130 265.5t305 97.5q201 0 333 -66q35 -16 23 -49l-31 -82q-8 -24 -29 -24q-11 0 -24 6q-135 59 -262 59q-98 0 -173 -48t-75 -142q0 -76 39 -122t121 -89l219 -117q137 -72 207.5 -159t70.5 -220q0 -193 -137 -298t-338 -105q-178 0 -344 57 q-29 9 -29 35q0 8 3 16l26 92q8 26 31 26q10 0 22 -5q148 -60 291 -60q117 0 202 57.5t85 170.5q0 82 -44 133t-136 100l-260 139q-225 121 -226 332z" />
<glyph unicode="T" d="M35 1294v84q0 33 39 33h991q41 0 35 -35l-13 -82q-4 -33 -45 -32h-389v-1221q0 -41 -39 -41h-110q-41 0 -41 41v1221h-389q-39 0 -39 32z" />
<glyph unicode="U" horiz-adv-x="1423" d="M150 629v741q0 41 38 41h111q41 0 41 -41v-723q0 -94 6 -159.5t28.5 -137t61.5 -114.5t109.5 -71t169.5 -28q94 0 163.5 29t108.5 74t61.5 115.5t28.5 137t6 156.5v721q0 41 39 41h111q41 0 41 -41v-754q0 -297 -135 -466.5t-426 -169.5q-315 0 -439 162.5t-124 486.5z " />
<glyph unicode="V" horiz-adv-x="1249" d="M43 1364q-6 14 -6 24q0 23 33 23h131q41 0 53 -37l389 -1106h4l379 1110q10 33 49 33h109q41 0 24 -41l-475 -1337q-12 -33 -45 -33h-108q-31 0 -43 29z" />
<glyph unicode="W" horiz-adv-x="1841" d="M49 1360q-4 13 -4 23q0 28 35 28h129q43 0 53 -39l289 -1081h2l278 1085q10 35 50 35h92q41 0 49 -35l285 -1085h4l293 1081q10 39 51 39h112q32 0 32 -24q0 -8 -3 -19l-395 -1335q-10 -33 -47 -33h-103q-39 0 -49 35l-280 1071h-2l-283 -1071q-10 -35 -49 -35h-101 q-39 0 -47 33z" />
<glyph unicode="X" horiz-adv-x="1153" d="M46.5 13.5q-7.5 13.5 4.5 33.5l424 684l-387 637q-10 14 -4 28.5t29 14.5h120q45 0 64 -35l285 -483h2l282 485q18 33 62 33h116q20 0 26.5 -11t-3.5 -28l-391 -624l430 -699q14 -18 8 -33.5t-31 -15.5h-129q-45 0 -65 37l-318 545h-2l-317 -543q-23 -39 -72 -39h-106 q-20 0 -27.5 13.5z" />
<glyph unicode="Y" d="M39 1396.5q6 14.5 31 14.5h116q43 0 62 -35l336 -663h2l325 663q18 35 60 35h88q32 0 32 -21q0 -9 -6 -22l-415 -811v-516q0 -41 -39 -41h-111q-41 0 -41 41v512l-434 809q-12 20 -6 34.5z" />
<glyph unicode="Z" horiz-adv-x="1107" d="M57 33v57q0 31 23 64l711 1106v2h-633q-39 0 -39 32v84q0 33 39 33h827q39 0 39 -33v-61q0 -31 -23 -64l-712 -1101v-2h717q39 0 38 -33v-84q0 -33 -38 -33h-910q-39 0 -39 33z" />
<glyph unicode="[" horiz-adv-x="638" d="M193 -248v1637q0 47 43 47h348q33 0 32 -33v-78q0 -33 -32 -33h-215v-1444h215q33 0 32 -32v-78q0 -33 -32 -33h-348q-43 0 -43 47z" />
<glyph unicode="\" horiz-adv-x="714" d="M74 1395q-12 41 26 41h97q37 0 47 -35l401 -1381q12 -41 -27 -40h-94q-37 0 -47 34z" />
<glyph unicode="]" horiz-adv-x="638" d="M23 -184q-1 32 32 32h215v1444h-215q-33 0 -32 33v78q0 33 32 33h348q43 0 43 -47v-1637q0 -47 -43 -47h-348q-33 0 -32 33v78z" />
<glyph unicode="^" d="M119 874l375 508q23 29 51 29h49q29 0 47 -31l367 -534q18 -29 -9 -43l-79 -41q-35 -23 -56 12l-305 438l-307 -430q-14 -18 -23.5 -21t-27.5 7l-74 51q-29 23 -8 55z" />
<glyph unicode="_" horiz-adv-x="1044" d="M10 -199q0 29 31 29h965q29 0 28 -29v-59q0 -27 -28 -27h-965q-31 0 -31 27v59z" />
<glyph unicode="`" horiz-adv-x="665" d="M131 1356l43 65q20 33 59 9l285 -183q26 -18 10 -47l-24 -43q-16 -27 -51 -10l-310 156q-37 18 -12 53z" />
<glyph unicode="a" horiz-adv-x="1021" d="M88 270q0 354 565 355h49v51q0 106 -47 154.5t-151 48.5q-143 0 -273 -58q-31 -14 -43 17l-22 53q-12 33 16 47q152 74 336 74q193 0 279 -92q80 -82 80 -265v-395q0 -74 6 -153.5t6 -83.5q0 -23 -29 -23h-98q-27 0 -31 27l-12 100q-45 -63 -129 -105t-178 -42 q-133 0 -228.5 78.5t-95.5 211.5zM262 281q0 -72 50 -117t134 -45q78 0 147.5 40t108.5 101v246h-36q-403 0 -404 -225z" />
<glyph unicode="b" horiz-adv-x="1103" d="M137 39v1360q0 39 31 43l102 14q5 1 10 1q31 0 31 -36v-526q121 117 295 117q156 0 260 -92q156 -137 156 -422q0 -221 -113.5 -369.5t-314.5 -148.5q-92 0 -171 34.5t-124 91.5l-4 -73q-2 -33 -41 -33h-78q-39 0 -39 39zM311 256q98 -135 258 -135q131 0 201 105.5 t70 262.5q0 174 -66 276.5t-203 102.5q-68 0 -139.5 -34.5t-120.5 -88.5v-489z" />
<glyph unicode="c" horiz-adv-x="901" d="M82 494q0 229 131 373.5t358 144.5q150 0 265 -60q28 -16 18 -43l-23 -63q-10 -31 -43 -17q-104 47 -208 48q-145 0 -231.5 -101.5t-86.5 -273.5q0 -170 77 -279.5t232 -109.5q121 0 228 47q31 12 41 -17l18 -57q10 -33 -22 -49q-123 -57 -277 -57q-233 0 -355 138 t-122 376z" />
<glyph unicode="d" horiz-adv-x="1105" d="M82 489q0 229 123 376t323 147q74 0 149 -31t118 -82v500q0 39 30 43l103 14q5 1 10 1q31 0 31 -36v-1378q0 -43 -41 -43h-78q-43 0 -43 41l-2 72q-49 -59 -132 -96t-169 -37q-209 0 -315.5 145t-106.5 364zM262 498q0 -168 73 -273.5t202 -105.5q72 0 145.5 40t112.5 95 v477q-33 59 -100.5 100t-141.5 41q-137 0 -214 -101t-77 -273z" />
<glyph unicode="e" horiz-adv-x="1021" d="M82 496q0 229 127 372.5t344 143.5q193 0 297 -123t104 -311v-52q0 -37 -11 -47t-50 -10h-629q4 -152 87 -249t229 -97q154 0 251 43q35 14 46 -14l24 -68q10 -29 -20 -45q-117 -59 -324 -59q-229 0 -352 140t-123 376zM268 588h514v37q0 111 -61.5 181.5t-175.5 70.5 q-121 0 -193 -82t-84 -207z" />
<glyph unicode="f" horiz-adv-x="706" d="M41 897v61q0 31 31 31h116v39q0 90 9 164q18 135 100 210t223 75q109 0 193 -37q29 -12 20 -41l-20 -68q-8 -31 -43 -18q-63 24 -124 24h-5q-100 0 -139.5 -62.5t-39.5 -189.5v-96h252q31 0 31 -31v-61q0 -31 -31 -31h-252v-823q0 -43 -40 -43h-93q-41 0 -41 43v823h-116 q-31 0 -31 31z" />
<glyph unicode="g" horiz-adv-x="1105" d="M82 494q0 217 118.5 367.5t329.5 150.5q76 0 152 -33t119 -88l2 63q0 35 41 35h90q37 0 37 -41v-895q0 -504 -461 -504q-158 0 -293 70q-35 18 -22 47l30 74q12 33 45 14q119 -61 236 -61q164 0 227.5 82t63.5 252v94q-47 -53 -131 -87t-162 -34q-207 0 -314.5 139.5 t-107.5 354.5zM264 504q0 -150 64.5 -256.5t203.5 -106.5q74 0 150 37t115 92v461q-35 61 -103.5 101t-142.5 40q-145 0 -216 -106.5t-71 -261.5z" />
<glyph unicode="h" horiz-adv-x="1101" d="M137 43v1356q0 39 31 43l102 14q5 1 10 1q31 0 31 -36v-530q137 121 336 121q322 0 322 -367v-602q0 -43 -41 -43h-92q-41 0 -41 43v573q0 121 -43 185.5t-156 64.5q-70 0 -150 -33.5t-135 -84.5v-705q0 -43 -41 -43h-92q-41 0 -41 43z" />
<glyph unicode="i" horiz-adv-x="481" d="M135 1231q0 43 30 70.5t75 27.5t75.5 -27.5t30.5 -70.5t-29.5 -70.5t-74.5 -27.5t-76 27.5t-31 70.5zM154 43v905q0 41 41 41h94q39 0 39 -41v-905q0 -43 -41 -43h-92q-41 0 -41 43z" />
<glyph unicode="j" horiz-adv-x="536" d="M-139 -403l12 75q6 31 33 23q45 -10 100 -10q53 0 90 18t58.5 47t34 76t15.5 91t3 106v927q0 39 39 39h98q37 0 37 -39v-901q0 -244 -83 -372t-298 -128q-68 0 -115 13q-31 8 -24 35zM190 1231q0 43 30 70.5t75 27.5t75.5 -27.5t30.5 -70.5t-29.5 -70.5t-74.5 -27.5 t-76 27.5t-31 70.5z" />
<glyph unicode="k" horiz-adv-x="907" d="M137 43v1356q0 39 31 43l102 14q5 1 10 1q31 0 31 -36v-827h4l314 367q22 28 55 28h2h96q27 0 33 -14t-10 -33l-309 -352l366 -539q14 -20 9 -35.5t-31 -15.5h-111q-45 0 -67 35l-289 434l-62 -66v-360q0 -43 -41 -43h-92q-41 0 -41 43z" />
<glyph unicode="l" horiz-adv-x="448" d="M137 43v1356q0 39 31 43l102 14q5 1 10 1q31 0 31 -36v-1378q0 -43 -41 -43h-92q-41 0 -41 43z" />
<glyph unicode="m" horiz-adv-x="1693" d="M137 43v905q0 41 39 41h88q41 0 41 -37l2 -63q135 123 311 123q188 0 267 -127q143 127 340 127q336 0 336 -402v-567q0 -43 -41 -43h-93q-41 0 -41 43v573q0 125 -43 188.5t-159 63.5q-131 0 -256 -96q16 -51 16 -225v-504q0 -43 -41 -43h-92q-41 0 -41 43v575 q0 121 -40 185.5t-152 64.5h-2q-135 0 -265 -120v-705q0 -43 -41 -43h-92q-41 0 -41 43z" />
<glyph unicode="n" horiz-adv-x="1101" d="M137 43v905q0 41 39 41h90q39 0 39 -37l2 -63q145 123 336 123q326 0 326 -367v-602q0 -43 -41 -43h-92q-41 0 -41 43v573q0 121 -43 185.5t-158 64.5q-70 0 -149 -33.5t-134 -84.5v-705q0 -43 -41 -43h-92q-41 0 -41 43z" />
<glyph unicode="o" horiz-adv-x="1095" d="M82 498q0 225 125 369.5t346 144.5q229 0 345 -141.5t116 -374.5q0 -225 -126 -370.5t-347 -145.5q-227 0 -343 143t-116 375zM262 502q0 -164 65.5 -275.5t215 -111.5t220.5 109.5t71 269.5q0 162 -68 272.5t-215 110.5q-152 0 -220.5 -109t-68.5 -266z" />
<glyph unicode="p" horiz-adv-x="1107" d="M137 -397v1345q0 41 39 41h84q39 0 39 -37l2 -71q49 59 133 95t172 36q207 0 313.5 -146.5t106.5 -361.5q0 -219 -116.5 -371.5t-327.5 -152.5q-78 0 -152 29.5t-119 84.5v-491q0 -43 -41 -43h-92q-41 0 -41 43zM311 260q33 -61 103.5 -102t144.5 -41q145 0 215 112.5 t70 270t-63.5 265t-209.5 107.5q-72 0 -146.5 -37.5t-113.5 -93.5v-481z" />
<glyph unicode="q" horiz-adv-x="1103" d="M82 494q0 221 115.5 369.5t328.5 148.5q78 0 154 -31t121 -88l2 63q0 33 41 33h84q39 0 39 -41v-1345q0 -43 -41 -43h-92q-41 0 -41 43v503q-53 -59 -132 -92.5t-163 -33.5q-209 0 -312.5 145t-103.5 369zM262 498q0 -96 21.5 -175t85 -139.5t159.5 -60.5q74 0 148 40 t117 97v465q-37 61 -107 104t-141 43q-147 0 -215 -107.5t-68 -266.5z" />
<glyph unicode="r" horiz-adv-x="651" d="M137 43v905q0 41 39 41h90q39 0 39 -37l2 -69q94 129 240 129q37 0 55.5 -8.5t15.5 -28.5l-14 -92q-4 -25 -29 -25q-2 0 -21 3t-38 3q-53 0 -109.5 -33t-95.5 -90v-698q0 -43 -41 -43h-92q-41 0 -41 43z" />
<glyph unicode="s" horiz-adv-x="821" d="M78 86l26 70q10 31 39 18q139 -61 238 -61q90 0 144.5 42t54.5 113q0 57 -38 94t-116 66l-137 53q-205 80 -205 258q0 129 98.5 201t241.5 72q145 0 264 -56q27 -12 19 -38l-25 -68q-8 -29 -41 -16q-113 49 -213 49q-86 0 -130 -38t-44 -93q0 -49 31.5 -79t101.5 -61 l158 -67q207 -86 207 -260q0 -139 -104.5 -222t-270.5 -83q-154 0 -281 65q-29 16 -18 41z" />
<glyph unicode="t" horiz-adv-x="714" d="M37 897v61q0 31 31 31h112v232q0 37 31 43l102 14q5 1 10 1q31 0 31 -36v-254h240q31 0 31 -31v-61q0 -31 -31 -31h-240v-551q0 -106 30 -152t116 -46q61 0 125 22q35 14 43 -18l18 -62q8 -29 -27 -43q-92 -36 -187 -36h-5q-168 0 -227.5 76.5t-59.5 246.5v563h-112 q-31 0 -31 31z" />
<glyph unicode="u" horiz-adv-x="1093" d="M137 350v598q0 41 41 41h94q39 0 39 -41v-571q0 -123 41 -185.5t156 -62.5q66 0 142.5 36t127.5 85v698q0 41 41 41h94q39 0 39 -41v-907q0 -41 -39 -41h-90q-39 0 -39 37l-2 65q-144 -122 -320 -122h-3q-322 0 -322 370z" />
<glyph unicode="v" horiz-adv-x="929" d="M33 952q-14 37 28 37h113q41 0 49 -28l250 -768h2l246 763q10 33 51 33h94q41 0 27 -41l-334 -915q-14 -33 -47 -33h-98q-37 0 -49 33z" />
<glyph unicode="w" horiz-adv-x="1415" d="M35 948q-3 9 -3 16q0 25 34 25h106q43 0 49 -28l195 -758h4l209 755q8 31 41 31h92q29 0 37 -24l213 -764h4l192 753q10 35 49 35h97q37 0 24 -41l-270 -911q-12 -37 -49 -37h-111q-39 0 -49 37l-194 694h-3l-188 -696q-10 -35 -51 -35h-109q-39 0 -49 37z" />
<glyph unicode="x" horiz-adv-x="962" d="M39 12.5q-4 12.5 6 26.5l342 475l-291 434q-10 14 -4 27.5t25 13.5h123q37 0 53 -28l199 -312h2l211 312q20 29 53 28h108q23 0 28 -11t-9 -30l-305 -416l333 -487q12 -18 6 -31.5t-28 -13.5h-121q-45 0 -65 33l-230 366h-2l-240 -368q-18 -31 -59 -31h-117 q-14 0 -18 12.5z" />
<glyph unicode="y" horiz-adv-x="978" d="M25 -401l14 82q6 29 33 26q57 -8 78 -8q160 0 223 156l51 129l-367 968q-14 37 29 37h117q41 0 49 -28l266 -764l258 759q10 33 51 33h99q41 0 26 -41l-395 -1067q-68 -184 -159 -258t-255 -74q-49 0 -94 13q-29 8 -24 37z" />
<glyph unicode="z" horiz-adv-x="849" d="M70 35v55q0 29 26 70l467 704v2h-430q-31 0 -31 31v61q0 31 31 31h594q35 0 35 -35v-49q0 -29 -27 -69l-471 -709v-2h492q31 0 30 -31v-63q0 -31 -30 -31h-652q-35 0 -34 35z" />
<glyph unicode="{" horiz-adv-x="688" d="M74 563v45q0 31 32 33q106 10 111 201l6 315q2 143 80 217t207 74h131q35 0 27 -29l-15 -59q-6 -27 -28 -27h-99q-137 0 -141 -184l-6 -272q-2 -135 -43 -210t-107 -79v-2q141 -10 150 -305l6 -261q4 -182 141 -182h90q29 0 35 -22l15 -60q4 -16 -4.5 -24t-32.5 -8h-119 q-281 0 -287 290l-6 301q-2 104 -25.5 155.5t-82.5 59.5q-25 2 -30 8.5t-5 24.5z" />
<glyph unicode="|" horiz-adv-x="421" d="M129 2v1411q0 43 41 43h82q41 0 41 -43v-1411q0 -43 -41 -43h-82q-41 0 -41 43z" />
<glyph unicode="}" horiz-adv-x="688" d="M20 -248l15 60q6 27 28 26h99q137 0 141 185l6 272q2 135 43 210t107 79v2q-141 10 -150 305l-6 260q-4 182 -141 182h-90q-29 0 -35 23l-14 59q-4 16 4 24.5t32 8.5h119q281 0 287 -291l6 -301q2 -104 25.5 -155.5t83.5 -59.5q25 -2 29.5 -8t4.5 -25v-45q0 -31 -32 -33 q-106 -10 -111 -200l-6 -316q-2 -143 -80 -216.5t-207 -73.5h-131q-35 0 -27 28z" />
<glyph unicode="~" d="M115 578q37 78 113.5 119.5t162.5 41.5q80 0 166 -51l72 -41q59 -35 119 -35q92 0 135 72q16 35 53 18l57 -24q35 -14 17 -53q-86 -166 -281 -166q-76 0 -166 51l-71 41q-63 35 -115 35q-100 0 -141 -66q-23 -39 -56 -22l-53 26q-29 14 -12 54z" />
<glyph unicode="&#xa1;" horiz-adv-x="505" d="M135 899q0 53 35 83t84 30q47 0 82 -30t35 -81q0 -53 -35 -83t-84 -30q-47 0 -82 30t-35 81zM158 -379l20 1030q0 35 35 35h72q37 0 37 -35l18 -1030q0 -41 -39 -41h-102q-41 0 -41 41z" />
<glyph unicode="&#xa2;" d="M166 494q0 215 116.5 356t321.5 158v168q0 29 29 28h51q29 0 29 -28v-166q117 -12 207 -58q28 -16 18 -43l-23 -63q-10 -31 -43 -17q-88 37 -159 45v-759q86 6 170 45q31 12 41 -17l18 -57q10 -33 -22 -49q-96 -43 -207 -53v-154q0 -29 -29 -29h-51q-29 0 -29 29v152 q-215 12 -326.5 149t-111.5 363zM346 501.5q0 -153.5 64.5 -260t193.5 -124.5v753q-121 -20 -189.5 -117.5t-68.5 -251z" />
<glyph unicode="&#xa3;" d="M127 33v59q0 35 33 51q147 76 147 295v221h-102q-37 0 -37 31v74q0 31 37 31h102v192q0 209 100.5 329t301.5 120q156 0 272 -56q20 -10 12 -39l-24 -75q-8 -31 -37 -21q-106 39 -201 39q-240 0 -239 -283v-206h319q37 0 37 -31v-74q0 -31 -37 -31h-319v-208 q0 -215 -111 -295v-6h604q39 0 39 -33v-84q0 -33 -39 -33h-819q-39 0 -39 33z" />
<glyph unicode="&#xa4;" d="M66 541v49q0 18 7 25.5t27 7.5h95q-2 27 -2 82v43h-93q-20 0 -27 7t-7 25v49q0 18 7 25.5t27 7.5h105q23 256 175 415t380 159q164 0 305 -76q35 -18 18 -51l-36 -70q-14 -29 -46 -14q-121 57 -221 57q-143 0 -241 -94q-119 -119 -131 -326h448q33 0 25 -28l-17 -60 q-8 -27 -39 -26h-430v-27q0 -37 4 -98h412q33 0 25 -29l-17 -59q-8 -27 -39 -27h-366q20 -176 116 -279q90 -96 234 -96q102 0 242 57q39 14 51 -18l24 -59q8 -25 3 -35t-25 -23q-141 -76 -316 -75q-225 0 -365 142t-171 386h-107q-20 0 -27 7t-7 26z" />
<glyph unicode="&#xa5;" d="M41 1396.5q6 14.5 31 14.5h116q43 0 62 -35l336 -663h2l325 663q16 35 60 35h88q49 0 26 -43l-362 -706h178q20 0 26.5 -7.5t6.5 -27.5v-47q0 -23 -7 -29t-30 -6h-227v-103h231q20 0 26.5 -7t6.5 -27v-48q0 -23 -7 -28.5t-30 -5.5h-227v-285q0 -41 -39 -41h-111 q-41 0 -41 41v285h-219q-23 0 -29 7t-6 32v41q0 23 7.5 29.5t29.5 6.5h217v103h-219q-23 0 -29 7t-6 32v41q0 23 7.5 30t29.5 7h158l-375 700q-12 20 -6 34.5z" />
<glyph unicode="&#xa6;" horiz-adv-x="421" d="M129 2v473q0 43 41 43h82q41 0 41 -43v-473q0 -43 -41 -43h-82q-41 0 -41 43zM129 940v473q0 43 41 43h82q41 0 41 -43v-473q0 -43 -41 -43h-82q-41 0 -41 43z" />
<glyph unicode="&#xa7;" horiz-adv-x="952" d="M147 76l25 69q12 33 39 19q119 -51 242 -51q88 0 144 42t56 111q0 57 -37.5 93t-115.5 69l-140 57q-211 88 -210 258q0 139 124 215q-115 82 -114 205q0 129 101 201t247 72q143 0 260 -47q25 -8 18 -33l-24 -78q-8 -27 -41 -14q-100 41 -205 41q-80 0 -128 -37t-48 -90 q0 -90 129 -146l158 -67q209 -88 209 -260q0 -138 -111 -226q96 -82 96 -194q0 -139 -104.5 -222t-267.5 -83q-162 0 -281 53q-31 12 -21 43zM319 762q0 -49 32 -83t100 -65l143 -61q78 51 78 131q0 57 -39 93t-123 71l-92 39q-98 -43 -99 -125z" />
<glyph unicode="&#xa8;" horiz-adv-x="665" d="M47 1335q0 47 31 74t76 27q43 0 72.5 -27t29.5 -72q0 -47 -30.5 -73.5t-73.5 -26.5t-74 26.5t-31 71.5zM410 1335q0 47 30.5 74t75.5 27q43 0 72.5 -27t29.5 -72q0 -47 -30.5 -73.5t-73.5 -26.5t-73.5 26.5t-30.5 71.5z" />
<glyph unicode="&#xa9;" horiz-adv-x="1703" d="M113 710.5q0 319.5 209.5 522.5t529 203t529.5 -203t210 -522.5t-211 -525t-528 -205.5q-319 0 -529 205.5t-210 525zM248 708.5q0 -266.5 170 -434.5t434 -168t434 168t170 434.5t-170 433.5t-434 167t-434 -167t-170 -433.5zM549 707q0 156 89 264t241 108 q109 0 192 -45q23 -12 12 -37l-16 -34q-10 -27 -35 -13q-70 37 -147 37q-106 0 -162.5 -79.5t-56.5 -196.5q0 -121 56 -202t163 -81q90 0 157 35q23 10 31 -8l17 -41q10 -23 -17 -35q-84 -43 -203 -43q-158 0 -239.5 104.5t-81.5 266.5z" />
<glyph unicode="&#xaa;" horiz-adv-x="612" d="M57 860q0 190 342 176v6q0 55 -24.5 84t-85.5 29q-66 0 -139 -27q-31 -12 -39 11l-15 39q-12 31 15 43q84 39 188 39q125 0 180 -58q53 -55 53 -176v-305q0 -25 -26 -25h-64q-24 0 -30 25l-6 31q-63 -63 -162 -64q-78 0 -132.5 46t-54.5 126zM193 864q0 -33 23.5 -54.5 t64.5 -21.5q71 1 118 52v116q-207 8 -206 -92z" />
<glyph unicode="&#xab;" horiz-adv-x="948" d="M104 463q0 25 15 41l221 291q18 25 43 12l55 -31q25 -14 8 -41l-170 -266l168 -276q18 -29 -8 -43l-49 -29q-27 -14 -45 8l-225 301q-12 18 -13 33zM465 463q0 25 14 41l221 291q18 25 43 12l56 -31q25 -14 8 -41l-170 -266l168 -276q18 -29 -8 -43l-49 -29 q-27 -14 -46 8l-225 301q-12 18 -12 33z" />
<glyph unicode="&#xac;" d="M111 625v86q0 33 36 32h766q31 0 41.5 -10t10.5 -35v-364q0 -35 -37 -35h-84q-37 0 -37 35v258h-660q-37 0 -36 33z" />
<glyph unicode="&#xad;" horiz-adv-x="567" d="M84 496v79q0 41 39 41h321q39 0 39 -41v-79q0 -39 -39 -39h-321q-39 0 -39 39z" />
<glyph unicode="&#xae;" horiz-adv-x="1703" d="M113 710.5q0 319.5 209.5 522.5t529 203t529.5 -203t210 -522.5t-211 -525t-528 -205.5q-319 0 -529 205.5t-210 525zM248 708.5q0 -266.5 170 -434.5t434 -168t434 168t170 434.5t-170 433.5t-434 167t-434 -167t-170 -433.5zM643 371v669q0 27 27 27h149 q266 0 266 -215q0 -72 -38.5 -124t-102.5 -77l168 -280q14 -27 -14 -27h-70q-25 0 -35 18l-153 269h-86v-260q0 -27 -25 -27h-61q-25 0 -25 27zM754 719h71q66 0 107 33.5t41 97.5q0 127 -162 127h-57v-258z" />
<glyph unicode="&#xaf;" horiz-adv-x="665" d="M61 1251v49q0 41 39 41h465q39 0 39 -41v-49q0 -39 -39 -39h-465q-39 0 -39 39z" />
<glyph unicode="&#xb0;" horiz-adv-x="595" d="M78 1218.5q0 102.5 64.5 160t158.5 57.5q92 0 154.5 -57.5t62.5 -160t-62.5 -160t-154.5 -57.5q-96 0 -159.5 57.5t-63.5 160zM195 1219q0 -53 29.5 -80t76.5 -27q45 0 73.5 27t28.5 80q0 51 -28.5 77.5t-73.5 26.5t-75.5 -26.5t-30.5 -77.5z" />
<glyph unicode="&#xb1;" d="M137 33v86q0 33 37 33h778q37 0 37 -33v-86q0 -33 -37 -33h-778q-37 0 -37 33zM137 707v86q0 33 37 32h309v334q0 35 37 35h88q37 0 37 -35v-334h307q37 1 37 -32v-86q0 -33 -37 -33h-307v-330q0 -35 -37 -35h-88q-37 0 -37 35v330h-309q-37 0 -37 33z" />
<glyph unicode="&#xb2;" horiz-adv-x="618" d="M68 936v27q0 27 9 43t46 53q156 156 211 228.5t55 142.5q0 49 -27.5 76.5t-78.5 27.5q-61 0 -144 -43q-20 -10 -33 12l-24 41q-14 25 8 39q98 59 207 59q104 0 167.5 -54t63.5 -146q0 -86 -65.5 -181.5t-229.5 -238.5h271q29 0 28 -27v-55q0 -27 -26 -27h-412 q-26 0 -26 23z" />
<glyph unicode="&#xb3;" horiz-adv-x="618" d="M66 985l20 51q10 25 37 13q74 -33 141 -33q61 0 97 30.5t36 81.5q0 55 -30 82q-41 39 -140 39h-16q-27 0 -27 25v45q0 25 25 24h22q80 0 113 33q27 27 27 68q0 43 -30 66.5t-79 23.5q-55 0 -127 -31q-23 -10 -31 8l-20 50q-12 27 12 38q90 43 185 43q117 0 178 -61 q47 -47 47 -123q0 -104 -107 -153q61 -16 99.5 -64.5t38.5 -114.5q0 -96 -66 -155q-72 -66 -197 -66q-104 0 -194 45q-25 12 -14 35z" />
<glyph unicode="&#xb4;" horiz-adv-x="665" d="M135 1190q-18 31 10 49l289 186q37 25 60 -8l41 -67q27 -35 -13 -52l-313 -161q-31 -14 -49 12z" />
<glyph unicode="&#xb5;" horiz-adv-x="1142" d="M137 -305v1253q0 41 41 41h92q41 0 41 -41v-577q0 -141 51 -199q47 -53 150 -53q141 0 268 117v712q0 41 41 41h92q41 0 41 -41v-672q0 -82 9.5 -110.5t38 -28.5t51.5 15q8 8 25.5 5t23.5 -20l24 -53q14 -29 -18 -49q-68 -45 -154 -45q-127 0 -159 114 q-125 -125 -291 -124q-137 0 -195 61v-346q0 -41 -41 -41h-90q-41 0 -41 41z" />
<glyph unicode="&#xb6;" horiz-adv-x="1067" d="M94 1079q0 137 97.5 234.5t236.5 97.5h432q41 0 41 -43v-1614q0 -43 -39 -43h-57q-39 0 -39 43v1518h-176v-1518q0 -43 -41 -43h-88q-41 0 -41 43v996q-139 8 -232.5 101t-93.5 228z" />
<glyph unicode="&#xb7;" horiz-adv-x="417" d="M92 590q0 53 35 82.5t84 29.5q47 0 82 -29.5t35 -80.5q0 -53 -35 -83t-84 -30q-47 0 -82 30t-35 81z" />
<glyph unicode="&#xb8;" horiz-adv-x="665" d="M174 -354l16 47q10 31 41 16q43 -18 107 -18q74 0 74 57q0 59 -82 59h-60q-37 0 -47 15.5t-6 50.5l16 150h132l-9 -111h25q180 0 180 -162q0 -74 -55 -121t-164 -47q-96 0 -149 27q-27 12 -19 37z" />
<glyph unicode="&#xb9;" horiz-adv-x="618" d="M82 1473q-12 23 10 36l178 105q35 20 68 20h55q27 0 27 -24v-672q0 -25 -27 -25h-82q-27 0 -26 25v557l-135 -80q-27 -14 -37 8z" />
<glyph unicode="&#xba;" horiz-adv-x="638" d="M45 973q0 125 74 206t200.5 81t200.5 -81t74 -206t-74 -205t-200.5 -80t-200.5 80t-74 205zM182 973q0 -86 36 -134t101.5 -48t101.5 48t36 134t-36 135t-101.5 49t-101.5 -49t-36 -135z" />
<glyph unicode="&#xbb;" horiz-adv-x="948" d="M143 193l170 266l-168 276q-18 29 9 43l49 29q27 14 45 -8l225 -301q12 -18 12 -35q0 -23 -14 -39l-221 -293q-18 -25 -43 -12l-55 33q-25 14 -9 41zM502 193l170 266l-168 276q-18 29 8 43l49 29q27 14 45 -8l225 -301q12 -18 13 -35q0 -23 -15 -39l-221 -293 q-18 -25 -43 -12l-55 33q-25 14 -8 41z" />
<glyph unicode="&#xbc;" horiz-adv-x="1613" d="M125 1255q-12 23 10 37l178 105q35 20 68 20h55q27 0 27 -24v-672q0 -25 -27 -25h-82q-27 0 -26 25v557l-135 -80q-27 -14 -37 8zM291 27l854 1370q16 25 28.5 32t40.5 7h58q59 0 28 -47l-854 -1371q-23 -39 -69 -38h-60q-55 0 -26 47zM956 186v17q0 45 19 88l176 405 q10 25 37 25h78q35 0 20 -33l-182 -422h215v144q0 25 27 24h79q27 0 27 -24v-385q0 -25 -27 -25h-79q-27 0 -27 25v133h-334q-29 0 -29 28z" />
<glyph unicode="&#xbd;" horiz-adv-x="1613" d="M125 1255q-12 23 10 37l178 105q35 20 68 20h55q27 0 27 -24v-672q0 -25 -27 -25h-82q-27 0 -26 25v557l-135 -80q-27 -14 -37 8zM291 27l854 1370q16 25 28.5 32t40.5 7h58q59 0 28 -47l-854 -1371q-23 -39 -69 -38h-60q-55 0 -26 47zM1014 23v26q0 27 9 43.5t46 52.5 q156 156 211 228.5t55 142.5q0 49 -27.5 77t-78.5 28q-61 0 -144 -43q-20 -10 -32 12l-25 41q-14 25 8 39q98 59 207 59q104 0 168 -54t64 -147q0 -86 -66 -181t-229 -238h270q29 0 29 -27v-55q0 -27 -27 -27h-412q-26 0 -26 23z" />
<glyph unicode="&#xbe;" horiz-adv-x="1613" d="M115 768l20 51q10 25 37 12q74 -33 141 -32q61 0 97 30.5t36 81.5q0 55 -30 82q-41 39 -140 39h-16q-27 0 -27 25v45q0 25 25 24h23q80 0 112 33q27 27 27 68q0 43 -30 66.5t-79 23.5q-55 0 -127 -31q-23 -10 -30 8l-21 49q-12 27 12 39q88 43 185 43q117 0 178 -61 q47 -47 47 -123q0 -104 -106 -154q61 -16 99 -64t38 -114q0 -96 -66 -155q-72 -66 -196 -66q-104 0 -195 45q-25 12 -14 35zM299 27l854 1370q16 25 28.5 32t41.5 7h57q60 0 29 -47l-854 -1371q-23 -39 -70 -38h-59q-55 0 -27 47zM956 186v17q0 45 19 88l176 405 q10 25 37 25h78q35 0 20 -33l-182 -422h215v144q0 25 27 24h79q27 0 27 -24v-385q0 -25 -27 -25h-79q-27 0 -27 25v133h-334q-29 0 -29 28z" />
<glyph unicode="&#xbf;" horiz-adv-x="862" d="M109 -129q0 152 124 287l150 161q102 113 102 199q0 18 -6 68q-2 33 29 32h82q25 0 33 -28q10 -41 10 -101q0 -121 -94 -221l-150 -155q-111 -117 -110 -217q0 -111 65.5 -159t161.5 -48q111 0 201 51q29 16 38 -14l27 -68q10 -27 -14 -39q-125 -70 -289 -70 q-152 0 -256 87.5t-104 234.5zM420 899q0 53 34.5 83t84.5 30q47 0 81.5 -30t34.5 -81q0 -53 -34.5 -83t-83.5 -30q-47 0 -82 30t-35 81z" />
<glyph unicode="&#xc0;" horiz-adv-x="1245" d="M20 41l515 1341q10 29 36 29h109q29 0 37 -25l506 -1345q16 -41 -27 -41h-131q-39 0 -49 33l-137 385h-531l-141 -385q-10 -33 -49 -33h-113q-41 0 -25 41zM397 559h432l-211 608h-2zM416 1765l43 66q20 33 59 8l285 -182q26 -18 10 -47l-25 -43q-16 -27 -51 -11 l-309 156q-37 18 -12 53z" />
<glyph unicode="&#xc1;" horiz-adv-x="1245" d="M20 41l515 1341q10 29 36 29h109q29 0 37 -25l506 -1345q16 -41 -27 -41h-131q-39 0 -49 33l-137 385h-531l-141 -385q-10 -33 -49 -33h-113q-41 0 -25 41zM397 559h432l-211 608h-2zM432 1606q-18 31 10 49l289 186q37 25 60 -8l40 -68q27 -35 -12 -51l-313 -162 q-31 -16 -49 13z" />
<glyph unicode="&#xc2;" horiz-adv-x="1245" d="M20 41l515 1341q10 29 36 29h109q29 0 37 -25l506 -1345q16 -41 -27 -41h-131q-39 0 -49 33l-137 385h-531l-141 -385q-10 -33 -49 -33h-113q-41 0 -25 41zM336 1585q-18 23 2 43l215 195q20 16 43 16h37q25 0 41 -14l225 -201q20 -20 2 -43l-31 -33q-23 -23 -45 -4 l-211 166l-198 -156q-31 -25 -51 0zM397 559h432l-211 608h-2z" />
<glyph unicode="&#xc3;" horiz-adv-x="1245" d="M20 41l515 1341q10 29 36 29h109q29 0 37 -25l506 -1345q16 -41 -27 -41h-131q-39 0 -49 33l-137 385h-531l-141 -385q-10 -33 -49 -33h-113q-41 0 -25 41zM270 1657q51 135 215 135q68 0 150 -41l49 -25q53 -27 96 -26q47 0 74 47q25 41 59 22l41 -20q23 -12 13 -43 q-25 -70 -79 -105.5t-124 -35.5q-64 0 -158 45l-47 22q-57 29 -90 29q-37 0 -54.5 -12.5t-33.5 -42.5q-18 -37 -53 -19l-41 21q-31 12 -17 49zM397 559h432l-211 608h-2z" />
<glyph unicode="&#xc4;" horiz-adv-x="1245" d="M20 41l515 1341q10 29 36 29h109q29 0 37 -25l506 -1345q16 -41 -27 -41h-131q-39 0 -49 33l-137 385h-531l-141 -385q-10 -33 -49 -33h-113q-41 0 -25 41zM334 1671q0 47 30.5 74t75.5 27q43 0 73 -27t30 -72q0 -47 -31 -73.5t-74 -26.5t-73.5 26.5t-30.5 71.5zM397 559 h432l-211 608h-2zM696 1671q0 47 31 74t76 27q43 0 72.5 -27t29.5 -72q0 -47 -30.5 -73.5t-73.5 -26.5t-74 26.5t-31 71.5z" />
<glyph unicode="&#xc5;" horiz-adv-x="1245" d="M20 41l515 1341q10 29 36 29h109q29 0 37 -25l506 -1345q16 -41 -27 -41h-131q-39 0 -49 33l-137 385h-531l-141 -385q-10 -33 -49 -33h-113q-41 0 -25 41zM397 559h432l-211 608h-2zM424 1679q0 78 56.5 135.5t137.5 57.5q84 0 139.5 -56.5t55.5 -136.5t-55.5 -136 t-139.5 -56q-82 0 -138 56t-56 136zM541 1679.5q0 -32.5 22.5 -54t55 -21.5t55 21.5t22.5 54t-22.5 54t-55 21.5t-55 -21.5t-22.5 -54z" />
<glyph unicode="&#xc6;" horiz-adv-x="1800" d="M16 43l852 1327q27 41 80 41h723q41 0 35 -35l-12 -82q-4 -33 -45 -32h-547v-449h483q39 0 39 -33v-82q0 -33 -39 -32h-483v-516h569q39 0 39 -33v-84q0 -33 -39 -33h-717q-43 0 -43 47v373h-456l-246 -385q-23 -35 -62 -35h-114q-43 0 -17 43zM535 561h376v594z" />
<glyph unicode="&#xc7;" horiz-adv-x="1210" d="M100 705q0 199 74 362.5t222.5 266t346.5 102.5q209 0 377 -93q33 -18 19 -53l-35 -73q-14 -31 -45 -15q-141 80 -303 80q-217 0 -335 -167t-118 -394q0 -252 114.5 -421t338.5 -169q168 0 315 74q37 16 51 -19l25 -61q14 -39 -23 -57q-154 -76 -342 -86l-4 -70h25 q180 0 180 -162q0 -74 -55.5 -121t-163.5 -47q-96 0 -150 27q-27 12 -18 37l16 47q10 31 41 16q43 -18 107 -18q74 0 74 57q0 59 -82 59h-60q-37 0 -47 15.5t-6 50.5l12 111q-270 27 -410.5 225.5t-140.5 495.5z" />
<glyph unicode="&#xc8;" horiz-adv-x="1044" d="M156 47v1317q0 47 43 47h716q41 0 35 -35l-12 -82q-4 -33 -45 -32h-547v-449h483q39 0 39 -33v-82q0 -33 -39 -32h-483v-516h569q39 0 39 -33v-84q0 -33 -39 -33h-716q-43 0 -43 47zM350 1765l43 66q20 33 60 8l284 -182q27 -18 11 -47l-25 -43q-16 -27 -51 -11l-310 156 q-37 18 -12 53z" />
<glyph unicode="&#xc9;" horiz-adv-x="1044" d="M156 47v1317q0 47 43 47h716q41 0 35 -35l-12 -82q-4 -33 -45 -32h-547v-449h483q39 0 39 -33v-82q0 -33 -39 -32h-483v-516h569q39 0 39 -33v-84q0 -33 -39 -33h-716q-43 0 -43 47zM379 1606q-18 31 10 49l289 186q36 25 59 -8l41 -68q27 -35 -12 -51l-313 -162 q-31 -16 -50 13z" />
<glyph unicode="&#xca;" horiz-adv-x="1044" d="M156 47v1317q0 47 43 47h716q41 0 35 -35l-12 -82q-4 -33 -45 -32h-547v-449h483q39 0 39 -33v-82q0 -33 -39 -32h-483v-516h569q39 0 39 -33v-84q0 -33 -39 -33h-716q-43 0 -43 47zM287 1585q-18 23 2 43l215 195q20 16 43 16h37q25 0 41 -14l225 -201q20 -20 2 -43 l-31 -33q-23 -23 -45 -4l-211 166l-198 -156q-31 -25 -52 0z" />
<glyph unicode="&#xcb;" horiz-adv-x="1044" d="M156 47v1317q0 47 43 47h716q41 0 35 -35l-12 -82q-4 -33 -45 -32h-547v-449h483q39 0 39 -33v-82q0 -33 -39 -32h-483v-516h569q39 0 39 -33v-84q0 -33 -39 -33h-716q-43 0 -43 47zM285 1671q0 47 30.5 74t75.5 27q43 0 73 -27t30 -72q0 -47 -31 -73.5t-74 -26.5 t-73.5 26.5t-30.5 71.5zM647 1671q0 47 31 74t76 27q43 0 72.5 -27t29.5 -72q0 -47 -30.5 -73.5t-73.5 -26.5t-74 26.5t-31 71.5z" />
<glyph unicode="&#xcc;" horiz-adv-x="759" d="M127 1317v61q0 33 39 33h428q39 0 39 -33v-61q0 -33 -39 -33h-121v-1155h119q39 0 39 -33v-63q0 -33 -39 -33h-418q-39 0 -39 33v63q0 33 39 33h115v1155h-123q-39 0 -39 33zM176 1765l43 66q20 33 60 8l284 -182q26 -18 10 -47l-24 -43q-16 -27 -51 -11l-310 156 q-37 18 -12 53z" />
<glyph unicode="&#xcd;" horiz-adv-x="759" d="M127 1317v61q0 33 39 33h428q39 0 39 -33v-61q0 -33 -39 -33h-121v-1155h119q39 0 39 -33v-63q0 -33 -39 -33h-418q-39 0 -39 33v63q0 33 39 33h115v1155h-123q-39 0 -39 33zM215 1606q-18 31 10 49l289 186q36 25 59 -8l41 -68q27 -35 -12 -51l-313 -162q-31 -16 -49 13 z" />
<glyph unicode="&#xce;" horiz-adv-x="759" d="M100 1585q-18 23 2 43l215 195q20 16 43 16h37q25 0 41 -14l226 -201q20 -20 2 -43l-31 -33q-23 -23 -45 -4l-211 166l-199 -156q-31 -25 -51 0zM127 1317v61q0 33 39 33h428q39 0 39 -33v-61q0 -33 -39 -33h-121v-1155h119q39 0 39 -33v-63q0 -33 -39 -33h-418 q-39 0 -39 33v63q0 33 39 33h115v1155h-123q-39 0 -39 33z" />
<glyph unicode="&#xcf;" horiz-adv-x="759" d="M98 1671q0 47 31 74t76 27q43 0 72.5 -27t29.5 -72q0 -47 -30.5 -73.5t-73.5 -26.5t-74 26.5t-31 71.5zM127 1317v61q0 33 39 33h428q39 0 39 -33v-61q0 -33 -39 -33h-121v-1155h119q39 0 39 -33v-63q0 -33 -39 -33h-418q-39 0 -39 33v63q0 33 39 33h115v1155h-123 q-39 0 -39 33zM461 1671q0 47 30.5 74t75.5 27q43 0 73 -27t30 -72q0 -47 -31 -73.5t-74 -26.5t-73.5 26.5t-30.5 71.5z" />
<glyph unicode="&#xd0;" horiz-adv-x="1404" d="M6 666v57q0 27 9.5 36t33.5 9h139v596q0 47 43 47h275q199 0 314.5 -21.5t209.5 -80.5q133 -82 207 -240t74 -371q0 -356 -211 -548q-168 -150 -504 -150h-365q-43 0 -43 47v576h-139q-43 0 -43 43zM379 152h176q150 0 243 23.5t160 90.5q150 153 150 434q0 319 -174 459 q-121 98 -361 98h-194v-489h254q25 0 34 -9t9 -36v-57q0 -43 -43 -43h-254v-471z" />
<glyph unicode="&#xd1;" horiz-adv-x="1421" d="M156 41v1329q0 41 39 41h81q43 0 70 -41l739 -1059h5v1059q0 41 38 41h97q41 0 41 -41v-1329q0 -41 -39 -41h-90q-43 0 -70 41l-731 1044h-4v-1044q0 -41 -39 -41h-96q-41 0 -41 41zM375 1657q51 135 215 135q68 0 149 -41l49 -25q53 -27 97 -26q47 0 73 47q25 41 60 22 l41 -20q23 -12 12 -43q-25 -70 -79 -105.5t-124 -35.5q-63 0 -157 45l-47 22q-57 29 -91 29q-37 0 -54 -12.5t-34 -42.5q-18 -37 -53 -19l-41 21q-31 12 -16 49z" />
<glyph unicode="&#xd2;" horiz-adv-x="1384" d="M100 700q0 332 166 534t434 202q276 0 430 -196.5t154 -524.5q0 -340 -169 -537.5t-433 -197.5q-274 0 -428 192.5t-154 527.5zM301 707q0 -268 102.5 -420t286.5 -152q176 0 284.5 156t108.5 418q0 272 -100 420.5t-287 148.5q-176 0 -285.5 -158.5t-109.5 -412.5z M487 1765l43 66q20 33 60 8l284 -182q27 -18 11 -47l-25 -43q-16 -27 -51 -11l-309 156q-37 18 -13 53z" />
<glyph unicode="&#xd3;" horiz-adv-x="1384" d="M100 700q0 332 166 534t434 202q276 0 430 -196.5t154 -524.5q0 -340 -169 -537.5t-433 -197.5q-274 0 -428 192.5t-154 527.5zM301 707q0 -268 102.5 -420t286.5 -152q176 0 284.5 156t108.5 418q0 272 -100 420.5t-287 148.5q-176 0 -285.5 -158.5t-109.5 -412.5z M526 1606q-18 31 11 49l288 186q37 25 60 -8l41 -68q27 -35 -13 -51l-313 -162q-31 -16 -49 13z" />
<glyph unicode="&#xd4;" horiz-adv-x="1384" d="M100 700q0 332 166 534t434 202q276 0 430 -196.5t154 -524.5q0 -340 -169 -537.5t-433 -197.5q-274 0 -428 192.5t-154 527.5zM301 707q0 -268 102.5 -420t286.5 -152q176 0 284.5 156t108.5 418q0 272 -100 420.5t-287 148.5q-176 0 -285.5 -158.5t-109.5 -412.5z M418 1585q-18 23 2 43l215 195q20 16 43 16h37q25 0 41 -14l225 -201q20 -20 2 -43l-31 -33q-23 -23 -45 -4l-211 166l-198 -156q-31 -25 -52 0z" />
<glyph unicode="&#xd5;" horiz-adv-x="1384" d="M100 700q0 332 166 534t434 202q276 0 430 -196.5t154 -524.5q0 -340 -169 -537.5t-433 -197.5q-274 0 -428 192.5t-154 527.5zM301 707q0 -268 102.5 -420t286.5 -152q176 0 284.5 156t108.5 418q0 272 -100 420.5t-287 148.5q-176 0 -285.5 -158.5t-109.5 -412.5z M352 1657q51 135 215 135q68 0 150 -41l49 -25q53 -27 96 -26q47 0 74 47q25 41 59 22l41 -20q23 -12 13 -43q-25 -70 -79.5 -105.5t-123.5 -35.5q-64 0 -158 45l-47 22q-57 29 -90 29q-37 0 -54.5 -12.5t-33.5 -42.5q-18 -37 -53 -19l-41 21q-31 12 -17 49z" />
<glyph unicode="&#xd6;" horiz-adv-x="1384" d="M100 700q0 332 166 534t434 202q276 0 430 -196.5t154 -524.5q0 -340 -169 -537.5t-433 -197.5q-274 0 -428 192.5t-154 527.5zM301 707q0 -268 102.5 -420t286.5 -152q176 0 284.5 156t108.5 418q0 272 -100 420.5t-287 148.5q-176 0 -285.5 -158.5t-109.5 -412.5z M416 1671q0 47 30.5 74t75.5 27q43 0 73 -27t30 -72q0 -47 -31 -73.5t-74 -26.5t-73.5 26.5t-30.5 71.5zM778 1671q0 47 31 74t76 27q43 0 72.5 -27t29.5 -72q0 -47 -30.5 -73.5t-73.5 -26.5t-74 26.5t-31 71.5z" />
<glyph unicode="&#xd7;" d="M186 846l62 63q27 27 53 0l266 -264l258 258q27 27 54 0l57 -57q23 -27 -2 -51l-260 -260l262 -261q25 -25 2 -51l-61 -63q-27 -27 -54 0l-262 262l-262 -260q-27 -27 -53 0l-56 57q-23 27 3 51l260 260l-265 265q-25 25 -2 51z" />
<glyph unicode="&#xd8;" horiz-adv-x="1384" d="M100 700q0 332 166 534t434 202q197 0 336 -107l99 150q25 37 53 18l53 -35q29 -18 6 -51l-114 -176q151 -196 151 -520q0 -340 -169 -537.5t-433 -197.5q-184 0 -315 88l-84 -129q-23 -35 -54 -19l-53 35q-29 18 -6 51l98 150q-168 193 -168 544zM301 707 q0 -238 78 -381l561 856q-100 96 -244 96q-176 0 -285.5 -158.5t-109.5 -412.5zM465 215q88 -80 225 -80q176 0 284.5 156t108.5 418q0 211 -63 354z" />
<glyph unicode="&#xd9;" horiz-adv-x="1423" d="M150 629v741q0 41 38 41h111q41 0 41 -41v-723q0 -94 6 -159.5t28.5 -137t61.5 -114.5t109.5 -71t169.5 -28q94 0 163.5 29t108.5 74t61.5 115.5t28.5 137t6 156.5v721q0 41 39 41h111q41 0 41 -41v-754q0 -297 -135 -466.5t-426 -169.5q-315 0 -439 162.5t-124 486.5z M504 1765l43 66q20 33 59 8l285 -182q26 -18 10 -47l-24 -43q-16 -27 -52 -11l-309 156q-37 18 -12 53z" />
<glyph unicode="&#xda;" horiz-adv-x="1423" d="M150 629v741q0 41 38 41h111q41 0 41 -41v-723q0 -94 6 -159.5t28.5 -137t61.5 -114.5t109.5 -71t169.5 -28q94 0 163.5 29t108.5 74t61.5 115.5t28.5 137t6 156.5v721q0 41 39 41h111q41 0 41 -41v-754q0 -297 -135 -466.5t-426 -169.5q-315 0 -439 162.5t-124 486.5z M541 1606q-18 31 10 49l289 186q36 25 59 -8l41 -68q27 -35 -12 -51l-314 -162q-31 -16 -49 13z" />
<glyph unicode="&#xdb;" horiz-adv-x="1423" d="M150 629v741q0 41 38 41h111q41 0 41 -41v-723q0 -94 6 -159.5t28.5 -137t61.5 -114.5t109.5 -71t169.5 -28q94 0 163.5 29t108.5 74t61.5 115.5t28.5 137t6 156.5v721q0 41 39 41h111q41 0 41 -41v-754q0 -297 -135 -466.5t-426 -169.5q-315 0 -439 162.5t-124 486.5z M430 1585q-18 23 2 43l215 195q20 16 43 16h37q25 0 41 -14l225 -201q20 -20 2 -43l-30 -33q-23 -23 -45 -4l-211 166l-199 -156q-31 -25 -51 0z" />
<glyph unicode="&#xdc;" horiz-adv-x="1423" d="M150 629v741q0 41 38 41h111q41 0 41 -41v-723q0 -94 6 -159.5t28.5 -137t61.5 -114.5t109.5 -71t169.5 -28q94 0 163.5 29t108.5 74t61.5 115.5t28.5 137t6 156.5v721q0 41 39 41h111q41 0 41 -41v-754q0 -297 -135 -466.5t-426 -169.5q-315 0 -439 162.5t-124 486.5z M428 1671q0 47 31 74t76 27q43 0 72.5 -27t29.5 -72q0 -47 -31 -73.5t-74 -26.5t-73.5 26.5t-30.5 71.5zM791 1671q0 47 30.5 74t75.5 27q43 0 72.5 -27t29.5 -72q0 -47 -30.5 -73.5t-73.5 -26.5t-73.5 26.5t-30.5 71.5z" />
<glyph unicode="&#xdd;" d="M39 1396.5q6 14.5 31 14.5h116q43 0 62 -35l336 -663h2l325 663q18 35 60 35h88q47 0 26 -43l-415 -811v-516q0 -41 -39 -41h-111q-41 0 -41 41v512l-434 809q-12 20 -6 34.5zM410 1606q-18 31 10 49l289 186q36 25 59 -8l41 -68q27 -35 -12 -51l-314 -162 q-31 -16 -49 13z" />
<glyph unicode="&#xde;" horiz-adv-x="1062" d="M156 41v1329q0 41 39 41h110q41 0 41 -41v-174h117q248 0 392 -103.5t144 -326.5q0 -225 -143 -336t-389 -111h-121v-278q0 -41 -39 -41h-110q-41 0 -41 41zM346 465h127q160 0 247 67.5t87 229.5q0 289 -348 289h-113v-586z" />
<glyph unicode="&#xdf;" horiz-adv-x="1142" d="M137 -150v1178q0 449 418 449q182 0 301 -89.5t119 -269.5q0 -109 -65.5 -203t-172.5 -120v-2q145 -16 240.5 -119.5t95.5 -253.5q0 -215 -136 -327.5t-337 -112.5q-72 0 -102 6q-25 6 -32 14t-7 29v57q0 23 9 29t32 6q6 0 38.5 -3t49.5 -3q154 0 229.5 88t75.5 221 q0 139 -96.5 211t-227.5 72h-77q-33 0 -33 32v66q0 33 33 33h30q106 0 189.5 70.5t83.5 191.5q0 242 -250 241q-111 0 -172.5 -74.5t-61.5 -217.5v-1199q0 -43 -41 -43h-92q-41 0 -41 43z" />
<glyph unicode="&#xe0;" horiz-adv-x="1112" d="M88 270q0 354 565 355h49v51q0 106 -47 154.5t-151 48.5q-143 0 -273 -58q-31 -14 -43 17l-22 53q-12 33 16 47q152 74 336 74q193 0 279 -92q80 -82 80 -265v-395q0 -74 6 -153.5t6 -83.5q0 -23 -29 -23h-98q-27 0 -31 27l-12 100q-45 -63 -129 -105t-178 -42 q-133 0 -228.5 78.5t-95.5 211.5zM262 281q0 -72 50 -117t134 -45q78 0 147.5 40t108.5 101v246h-36q-403 0 -404 -225zM326 1356l43 65q20 33 59 9l285 -183q26 -18 10 -47l-25 -43q-16 -27 -51 -10l-309 156q-37 18 -12 53z" />
<glyph unicode="&#xe1;" horiz-adv-x="1112" d="M88 270q0 354 565 355h49v51q0 106 -47 154.5t-151 48.5q-143 0 -273 -58q-31 -14 -43 17l-22 53q-12 33 16 47q152 74 336 74q193 0 279 -92q80 -82 80 -265v-395q0 -74 6 -153.5t6 -83.5q0 -23 -29 -23h-98q-27 0 -31 27l-12 100q-45 -63 -129 -105t-178 -42 q-133 0 -228.5 78.5t-95.5 211.5zM262 281q0 -72 50 -117t134 -45q78 0 147.5 40t108.5 101v246h-36q-403 0 -404 -225zM365 1196q-18 31 10 49l289 187q36 24 59 -9l41 -67q27 -35 -12 -51l-314 -162q-31 -16 -49 12z" />
<glyph unicode="&#xe2;" horiz-adv-x="1112" d="M88 270q0 354 565 355h49v51q0 106 -47 154.5t-151 48.5q-143 0 -273 -58q-31 -14 -43 17l-22 53q-12 33 16 47q152 74 336 74q193 0 279 -92q80 -82 80 -265v-395q0 -74 6 -153.5t6 -83.5q0 -23 -29 -23h-98q-27 0 -31 27l-12 100q-45 -63 -129 -105t-178 -42 q-133 0 -228.5 78.5t-95.5 211.5zM246 1176q-18 23 2 43l215 194q20 16 43 17h37q25 0 41 -15l225 -201q20 -20 2 -43l-31 -32q-23 -23 -45 -4l-211 165l-198 -155q-31 -25 -52 0zM262 281q0 -72 50 -117t134 -45q78 0 147.5 40t108.5 101v246h-36q-403 0 -404 -225z" />
<glyph unicode="&#xe3;" horiz-adv-x="1112" d="M88 270q0 354 565 355h49v51q0 106 -47 154.5t-151 48.5q-143 0 -273 -58q-31 -14 -43 17l-22 53q-12 33 16 47q152 74 336 74q193 0 279 -92q80 -82 80 -265v-395q0 -74 6 -153.5t6 -83.5q0 -23 -29 -23h-98q-27 0 -31 27l-12 100q-45 -63 -129 -105t-178 -42 q-133 0 -228.5 78.5t-95.5 211.5zM190 1257q51 135 216 136q68 0 149 -41l49 -25q53 -27 96 -27q47 0 74 48q25 41 60 22l40 -20q23 -12 13 -43q-25 -70 -79 -106t-124 -36q-64 0 -158 45l-47 23q-57 29 -90 29q-37 0 -54.5 -12.5t-33.5 -43.5q-18 -37 -53 -18l-41 20 q-31 12 -17 49zM262 281q0 -72 50 -117t134 -45q78 0 147.5 40t108.5 101v246h-36q-403 0 -404 -225z" />
<glyph unicode="&#xe4;" horiz-adv-x="1112" d="M88 270q0 354 565 355h49v51q0 106 -47 154.5t-151 48.5q-143 0 -273 -58q-31 -14 -43 17l-22 53q-12 33 16 47q152 74 336 74q193 0 279 -92q80 -82 80 -265v-395q0 -74 6 -153.5t6 -83.5q0 -23 -29 -23h-98q-27 0 -31 27l-12 100q-45 -63 -129 -105t-178 -42 q-133 0 -228.5 78.5t-95.5 211.5zM238 1292q0 47 30.5 74t75.5 27q43 0 72.5 -27t29.5 -72q0 -47 -30.5 -73.5t-73.5 -26.5t-73.5 26.5t-30.5 71.5zM262 281q0 -72 50 -117t134 -45q78 0 147.5 40t108.5 101v246h-36q-403 0 -404 -225zM600 1292q0 47 31 74t76 27 q43 0 72.5 -27t29.5 -72q0 -47 -30.5 -73.5t-73.5 -26.5t-74 26.5t-31 71.5z" />
<glyph unicode="&#xe5;" horiz-adv-x="1112" d="M88 270q0 354 565 355h49v51q0 106 -47 154.5t-151 48.5q-143 0 -273 -58q-31 -14 -43 17l-22 53q-12 33 16 47q152 74 336 74q193 0 279 -92q80 -82 80 -265v-395q0 -74 6 -153.5t6 -83.5q0 -23 -29 -23h-98q-27 0 -31 27l-12 100q-45 -63 -129 -105t-178 -42 q-133 0 -228.5 78.5t-95.5 211.5zM262 281q0 -72 50 -117t134 -45q78 0 147.5 40t108.5 101v246h-36q-403 0 -404 -225zM336 1270q0 78 57.5 135t136.5 57q84 0 139.5 -56t55.5 -136t-55.5 -136.5t-139.5 -56.5q-82 0 -138 56.5t-56 136.5zM453 1270q0 -33 22.5 -54.5 t55 -21.5t55 21.5t22.5 54.5t-22.5 54.5t-55 21.5t-55 -21.5t-22.5 -54.5z" />
<glyph unicode="&#xe6;" horiz-adv-x="1579" d="M74 264q0 98 49 170t131 108t167 52t179 16h64v58q0 211 -193 211q-141 0 -270 -66q-31 -14 -41 10l-27 64q-10 29 19 43q156 82 335 82q205 0 291 -146q125 145 340 146q186 0 289.5 -123t103.5 -311v-52q0 -37 -11 -47t-50 -10h-612q4 -152 83.5 -249t223.5 -97 q150 0 244 43q35 14 45 -14l24 -68q10 -29 -20 -45q-117 -59 -318 -59q-236 0 -356 153q-139 -154 -383 -153q-129 0 -218 74.5t-89 209.5zM254 274q0 -80 50 -119.5t122 -39.5q76 0 156 37.5t123 80.5q-50 111 -50 256h-86q-82 0 -147.5 -16t-116.5 -66.5t-51 -132.5z M842 588h497v37q0 111 -59 181.5t-170 70.5q-119 0 -187.5 -82t-80.5 -207z" />
<glyph unicode="&#xe7;" horiz-adv-x="901" d="M82 494q0 229 131 373.5t358 144.5q150 0 265 -60q29 -16 18 -43l-23 -63q-10 -31 -43 -17q-104 47 -208 48q-145 0 -231.5 -101.5t-86.5 -273.5q0 -170 77 -279.5t232 -109.5q121 0 228 47q31 12 41 -17l18 -57q10 -33 -22 -49q-98 -45 -224 -55l-4 -70h25 q180 0 180 -162q0 -74 -55.5 -121t-163.5 -47q-96 0 -150 27q-27 12 -18 37l16 47q10 31 41 16q43 -18 107 -18q74 0 74 57q0 59 -82 59h-60q-37 0 -47 15.5t-6 50.5l12 111q-197 23 -298 157.5t-101 352.5z" />
<glyph unicode="&#xe8;" horiz-adv-x="1021" d="M82 496q0 229 127 372.5t344 143.5q193 0 297 -123t104 -311v-52q0 -37 -11 -47t-50 -10h-629q4 -152 87 -249t229 -97q154 0 251 43q35 14 46 -14l24 -68q10 -29 -20 -45q-117 -59 -324 -59q-229 0 -352 140t-123 376zM268 588h514v37q0 111 -61.5 181.5t-175.5 70.5 q-121 0 -193 -82t-84 -207zM332 1356l43 65q20 33 59 9l285 -183q26 -18 10 -47l-24 -43q-16 -27 -52 -10l-309 156q-37 18 -12 53z" />
<glyph unicode="&#xe9;" horiz-adv-x="1021" d="M82 496q0 229 127 372.5t344 143.5q193 0 297 -123t104 -311v-52q0 -37 -11 -47t-50 -10h-629q4 -152 87 -249t229 -97q154 0 251 43q35 14 46 -14l24 -68q10 -29 -20 -45q-117 -59 -324 -59q-229 0 -352 140t-123 376zM268 588h514v37q0 111 -61.5 181.5t-175.5 70.5 q-121 0 -193 -82t-84 -207zM354 1190q-18 31 11 49l288 186q37 25 60 -8l41 -67q27 -35 -13 -52l-313 -161q-31 -14 -49 12z" />
<glyph unicode="&#xea;" horiz-adv-x="1021" d="M82 496q0 229 127 372.5t344 143.5q193 0 297 -123t104 -311v-52q0 -37 -11 -47t-50 -10h-629q4 -152 87 -249t229 -97q154 0 251 43q35 14 46 -14l24 -68q10 -29 -20 -45q-117 -59 -324 -59q-229 0 -352 140t-123 376zM260 1176q-18 23 2 43l215 194q20 16 43 17h37 q25 0 41 -15l225 -201q20 -20 2 -43l-30 -32q-23 -23 -45 -4l-211 165l-199 -155q-31 -25 -51 0zM268 588h514v37q0 111 -61.5 181.5t-175.5 70.5q-121 0 -193 -82t-84 -207z" />
<glyph unicode="&#xeb;" horiz-adv-x="1021" d="M82 496q0 229 127 372.5t344 143.5q193 0 297 -123t104 -311v-52q0 -37 -11 -47t-50 -10h-629q4 -152 87 -249t229 -97q154 0 251 43q35 14 46 -14l24 -68q10 -29 -20 -45q-117 -59 -324 -59q-229 0 -352 140t-123 376zM256 1294q0 47 30.5 74t75.5 27q43 0 73 -27 t30 -72q0 -47 -31 -73.5t-74 -26.5t-73.5 26.5t-30.5 71.5zM268 588h514v37q0 111 -61.5 181.5t-175.5 70.5q-121 0 -193 -82t-84 -207zM618 1294q0 47 31 74t76 27q43 0 72.5 -27t29.5 -72q0 -47 -30.5 -73.5t-73.5 -26.5t-74 26.5t-31 71.5z" />
<glyph unicode="&#xec;" horiz-adv-x="481" d="M37 1356l43 65q20 33 59 9l285 -183q26 -18 10 -47l-24 -43q-16 -27 -52 -10l-309 156q-37 18 -12 53zM154 43v905q0 41 41 41h94q39 0 39 -41v-905q0 -43 -41 -43h-92q-41 0 -41 43z" />
<glyph unicode="&#xed;" horiz-adv-x="481" d="M68 1190q-18 31 10 49l289 186q36 25 59 -8l41 -67q27 -35 -12 -52l-314 -161q-31 -14 -49 12zM154 43v905q0 41 41 41h94q39 0 39 -41v-905q0 -43 -41 -43h-92q-41 0 -41 43z" />
<glyph unicode="&#xee;" horiz-adv-x="481" d="M-41 1176q-18 23 2 43l215 194q20 16 43 17h37q25 0 41 -15l225 -201q20 -20 2 -43l-30 -32q-23 -23 -45 -4l-211 165l-199 -155q-31 -25 -51 0zM154 43v905q0 41 41 41h94q39 0 39 -41v-905q0 -43 -41 -43h-92q-41 0 -41 43z" />
<glyph unicode="&#xef;" horiz-adv-x="481" d="M-41 1292q0 47 31 74t76 27q43 0 72.5 -27t29.5 -72q0 -47 -31 -73.5t-74 -26.5t-73.5 26.5t-30.5 71.5zM154 43v905q0 41 41 41h94q39 0 39 -41v-905q0 -43 -41 -43h-92q-41 0 -41 43zM322 1292q0 47 30.5 74t75.5 27q43 0 72.5 -27t29.5 -72q0 -47 -30.5 -73.5 t-73.5 -26.5t-73.5 26.5t-30.5 71.5z" />
<glyph unicode="&#xf0;" horiz-adv-x="1099" d="M82 498q0 225 125 369.5t346 144.5q143 0 229 -78q-33 84 -103.5 184.5t-139.5 159.5l-172 -109q-18 -12 -28.5 -11t-23.5 20l-18 26q-21 30 12 53l146 93q-59 43 -144 82q-31 14 -16 41l27 47q16 29 43 18q109 -41 208 -113l148 93q31 20 51 -11l19 -28q20 -29 -15 -49 l-114 -74q147 -133 249.5 -362.5t102.5 -469.5q0 -236 -123 -390t-350.5 -154t-343 143t-115.5 375zM262 502q0 -164 65.5 -275.5t215 -111.5t220.5 109.5t71 269.5q0 162 -68 272.5t-215 110.5q-152 0 -220.5 -109t-68.5 -266z" />
<glyph unicode="&#xf1;" horiz-adv-x="1101" d="M137 43v905q0 41 39 41h90q39 0 39 -37l2 -63q145 123 336 123q326 0 326 -367v-602q0 -43 -41 -43h-92q-41 0 -41 43v573q0 121 -43 185.5t-158 64.5q-70 0 -149 -33.5t-134 -84.5v-705q0 -43 -41 -43h-92q-41 0 -41 43zM213 1255q51 135 215 136q68 0 150 -41l49 -25 q53 -27 96 -27q47 0 74 48q25 41 59 22l41 -20q23 -12 12 -43q-25 -70 -79 -106t-123 -36q-64 0 -158 45l-47 23q-57 29 -90 29q-37 0 -54.5 -12.5t-33.5 -43.5q-18 -37 -54 -18l-41 20q-31 12 -16 49z" />
<glyph unicode="&#xf2;" horiz-adv-x="1095" d="M82 498q0 225 125 369.5t346 144.5q229 0 345 -141.5t116 -374.5q0 -225 -126 -370.5t-347 -145.5q-227 0 -343 143t-116 375zM262 502q0 -164 65.5 -275.5t215 -111.5t220.5 109.5t71 269.5q0 162 -68 272.5t-215 110.5q-152 0 -220.5 -109t-68.5 -266zM342 1356l43 65 q20 33 59 9l285 -183q26 -18 10 -47l-24 -43q-16 -27 -51 -10l-310 156q-37 18 -12 53z" />
<glyph unicode="&#xf3;" horiz-adv-x="1095" d="M82 498q0 225 125 369.5t346 144.5q229 0 345 -141.5t116 -374.5q0 -225 -126 -370.5t-347 -145.5q-227 0 -343 143t-116 375zM262 502q0 -164 65.5 -275.5t215 -111.5t220.5 109.5t71 269.5q0 162 -68 272.5t-215 110.5q-152 0 -220.5 -109t-68.5 -266zM385 1190 q-18 31 10 49l289 186q36 25 59 -8l41 -67q27 -35 -12 -52l-313 -161q-31 -14 -49 12z" />
<glyph unicode="&#xf4;" horiz-adv-x="1095" d="M82 498q0 225 125 369.5t346 144.5q229 0 345 -141.5t116 -374.5q0 -225 -126 -370.5t-347 -145.5q-227 0 -343 143t-116 375zM262 502q0 -164 65.5 -275.5t215 -111.5t220.5 109.5t71 269.5q0 162 -68 272.5t-215 110.5q-152 0 -220.5 -109t-68.5 -266zM272 1176 q-18 23 2 43l215 194q20 16 43 17h37q25 0 41 -15l226 -201q20 -20 2 -43l-31 -32q-23 -23 -45 -4l-211 165l-199 -155q-31 -25 -51 0z" />
<glyph unicode="&#xf5;" horiz-adv-x="1095" d="M82 498q0 225 125 369.5t346 144.5q229 0 345 -141.5t116 -374.5q0 -225 -126 -370.5t-347 -145.5q-227 0 -343 143t-116 375zM205 1255q51 135 215 136q68 0 149 -41l49 -25q53 -27 97 -27q47 0 73 48q25 41 60 22l41 -20q23 -12 12 -43q-25 -70 -79 -106t-124 -36 q-63 0 -157 45l-47 23q-57 29 -91 29q-37 0 -54 -12.5t-34 -43.5q-18 -37 -53 -18l-41 20q-31 12 -16 49zM262 502q0 -164 65.5 -275.5t215 -111.5t220.5 109.5t71 269.5q0 162 -68 272.5t-215 110.5q-152 0 -220.5 -109t-68.5 -266z" />
<glyph unicode="&#xf6;" horiz-adv-x="1095" d="M82 498q0 225 125 369.5t346 144.5q229 0 345 -141.5t116 -374.5q0 -225 -126 -370.5t-347 -145.5q-227 0 -343 143t-116 375zM262 502q0 -164 65.5 -275.5t215 -111.5t220.5 109.5t71 269.5q0 162 -68 272.5t-215 110.5q-152 0 -220.5 -109t-68.5 -266zM268 1294 q0 47 31 74t76 27q43 0 72.5 -27t29.5 -72q0 -47 -30.5 -73.5t-73.5 -26.5t-74 26.5t-31 71.5zM631 1294q0 47 30.5 74t75.5 27q43 0 73 -27t30 -72q0 -47 -31 -73.5t-74 -26.5t-73.5 26.5t-30.5 71.5z" />
<glyph unicode="&#xf7;" d="M117 494v86q0 33 37 32h819q37 1 37 -32v-86q0 -33 -37 -33h-819q-37 0 -37 33zM446 184q0 53 35 83t84 30q47 0 82 -29.5t35 -81.5q0 -53 -35 -82.5t-84 -29.5q-47 0 -82 29.5t-35 80.5zM446 895q0 53 35 83t84 30q47 0 82 -30t35 -81q0 -53 -35 -83t-84 -30 q-47 0 -82 30t-35 81z" />
<glyph unicode="&#xf8;" horiz-adv-x="1107" d="M88 498q0 225 125 369.5t346 144.5q113 0 199 -37l41 67q20 37 55 17l55 -31q33 -18 13 -51l-48 -76q145 -137 146 -405q0 -225 -126 -370.5t-347 -145.5q-113 0 -211 40l-43 -71q-20 -31 -49 -15l-58 35q-37 20 -14 51l49 82q-133 139 -133 396zM268 502q0 -150 47 -246 l365 594q-57 27 -123 27q-152 0 -220.5 -108.5t-68.5 -266.5zM414 147q59 -33 135 -32q150 0 220.5 109.5t70.5 269.5q0 156 -58 256z" />
<glyph unicode="&#xf9;" horiz-adv-x="1093" d="M137 350v598q0 41 41 41h94q39 0 39 -41v-571q0 -123 41 -185.5t156 -62.5q66 0 142.5 36t127.5 85v698q0 41 41 41h94q39 0 39 -41v-907q0 -41 -39 -41h-90q-39 0 -39 37l-2 65q-145 -123 -323 -122q-322 0 -322 370zM328 1356l43 65q20 33 59 9l285 -183q26 -18 10 -47 l-25 -43q-16 -27 -51 -10l-309 156q-37 18 -12 53z" />
<glyph unicode="&#xfa;" horiz-adv-x="1093" d="M137 350v598q0 41 41 41h94q39 0 39 -41v-571q0 -123 41 -185.5t156 -62.5q66 0 142.5 36t127.5 85v698q0 41 41 41h94q39 0 39 -41v-907q0 -41 -39 -41h-90q-39 0 -39 37l-2 65q-145 -123 -323 -122q-322 0 -322 370zM352 1190q-18 31 10 49l289 186q37 25 60 -8l41 -67 q27 -35 -13 -52l-313 -161q-31 -14 -49 12z" />
<glyph unicode="&#xfb;" horiz-adv-x="1093" d="M137 350v598q0 41 41 41h94q39 0 39 -41v-571q0 -123 41 -185.5t156 -62.5q66 0 142.5 36t127.5 85v698q0 41 41 41h94q39 0 39 -41v-907q0 -41 -39 -41h-90q-39 0 -39 37l-2 65q-145 -123 -323 -122q-322 0 -322 370zM264 1176q-18 23 2 43l215 194q20 16 43 17h37 q25 0 41 -15l225 -201q20 -20 2 -43l-30 -32q-23 -23 -45 -4l-211 165l-199 -155q-31 -25 -51 0z" />
<glyph unicode="&#xfc;" horiz-adv-x="1093" d="M137 350v598q0 41 41 41h94q39 0 39 -41v-571q0 -123 41 -185.5t156 -62.5q66 0 142.5 36t127.5 85v698q0 41 41 41h94q39 0 39 -41v-907q0 -41 -39 -41h-90q-39 0 -39 37l-2 65q-145 -123 -323 -122q-322 0 -322 370zM252 1290q0 47 30.5 74t75.5 27q43 0 73 -27t30 -72 q0 -47 -31 -73.5t-74 -26.5t-73.5 26.5t-30.5 71.5zM614 1290q0 47 31 74t76 27q43 0 72.5 -27t29.5 -72q0 -47 -30.5 -73.5t-73.5 -26.5t-74 26.5t-31 71.5z" />
<glyph unicode="&#xfd;" horiz-adv-x="978" d="M25 -401l14 82q6 29 33 26q57 -8 78 -8q160 0 223 156l51 129l-367 968q-14 37 29 37h117q41 0 49 -28l266 -764l258 759q10 33 51 33h99q41 0 26 -41l-395 -1067q-68 -184 -159 -258t-255 -74q-49 0 -94 13q-29 8 -24 37zM342 1190q-18 31 10 49l289 186q36 25 59 -8 l41 -67q27 -35 -12 -52l-313 -161q-31 -14 -49 12z" />
<glyph unicode="&#xfe;" horiz-adv-x="1107" d="M137 -397v1796q0 39 31 43l102 14q41 6 41 -35v-530q51 53 132 87t163 34q207 0 313.5 -146.5t106.5 -361.5q0 -219 -116.5 -371.5t-327.5 -152.5q-78 0 -152 29.5t-119 84.5v-491q0 -43 -41 -43h-92q-41 0 -41 43zM311 260q33 -61 103.5 -102t144.5 -41q145 0 215 112.5 t70 270t-63.5 265t-209.5 107.5q-72 0 -146.5 -37.5t-113.5 -93.5v-481z" />
<glyph unicode="&#xff;" horiz-adv-x="978" d="M25 -401l14 82q6 29 33 26q57 -8 78 -8q160 0 223 156l51 129l-367 968q-14 37 29 37h117q41 0 49 -28l266 -764l258 759q10 33 51 33h99q41 0 26 -41l-395 -1067q-68 -184 -159 -258t-255 -74q-49 0 -94 13q-29 8 -24 37zM236 1292q0 47 30.5 74t75.5 27q43 0 72.5 -27 t29.5 -72q0 -47 -30.5 -73.5t-73.5 -26.5t-73.5 26.5t-30.5 71.5zM598 1292q0 47 31 74t76 27q43 0 72.5 -27t29.5 -72q0 -47 -31 -73.5t-74 -26.5t-73.5 26.5t-30.5 71.5z" />
<glyph unicode="&#x152;" horiz-adv-x="1914" d="M100 700q0 334 167 535t435 201q201 0 324 -123v51q0 47 43 47h717q41 0 35 -35l-13 -82q-4 -33 -45 -32h-546v-449h483q39 0 39 -33v-82q0 -33 -39 -32h-483v-516h569q39 0 39 -33v-84q0 -33 -39 -33h-717q-43 0 -43 47v59q-143 -127 -356 -126q-272 0 -421 190 t-149 530zM303 707q0 -266 100.5 -419t282.5 -153q207 0 340 139v879q-49 55 -134 91t-185 36q-164 0 -271 -129q-133 -160 -133 -444z" />
<glyph unicode="&#x153;" horiz-adv-x="1757" d="M82 496q0 223 126 369.5t347 146.5q254 0 360 -201q133 201 373 201q193 0 297.5 -123t104.5 -311v-52q0 -37 -11.5 -47t-50.5 -10h-629q4 -152 87 -249t229 -97q154 0 252 43q35 14 45 -14l24 -68q10 -29 -20 -45q-117 -59 -324 -59q-264 0 -387 204 q-121 -207 -362 -207q-227 0 -344 143.5t-117 375.5zM262 500q0 -102 23.5 -185.5t90 -144.5t169.5 -61q150 0 220.5 111.5t70.5 271.5q0 100 -25 183t-91.5 144.5t-166.5 61.5q-152 0 -221.5 -113t-69.5 -268zM1004 588h514v37q0 111 -61.5 181.5t-176.5 70.5 q-121 0 -192.5 -82t-83.5 -207z" />
<glyph unicode="&#x178;" d="M39 1396.5q6 14.5 31 14.5h116q43 0 62 -35l336 -663h2l325 663q18 35 60 35h88q47 0 26 -43l-415 -811v-516q0 -41 -39 -41h-111q-41 0 -41 41v512l-434 809q-12 20 -6 34.5zM301 1671q0 47 31 74t76 27q43 0 72.5 -27t29.5 -72q0 -47 -30.5 -73.5t-74 -26.5t-74 26.5 t-30.5 71.5zM664 1671q0 47 30.5 74t75.5 27q43 0 72.5 -27t29.5 -72q0 -47 -30.5 -73.5t-73.5 -26.5t-73.5 26.5t-30.5 71.5z" />
<glyph unicode="&#x2c6;" horiz-adv-x="665" d="M49 1176q-18 23 2 43l215 194q20 16 43 17h37q25 0 41 -15l225 -201q20 -20 2 -43l-30 -32q-23 -23 -45 -4l-211 165l-199 -155q-31 -25 -51 0z" />
<glyph unicode="&#x2dc;" horiz-adv-x="665" d="M-14 1307q51 135 215 135q68 0 149 -41l49 -25q53 -27 97 -26q47 0 73 47q25 41 60 22l41 -20q23 -12 12 -43q-25 -70 -79 -106t-124 -36q-63 1 -157 46l-48 22q-57 29 -90 29q-37 0 -54 -12.5t-34 -43.5q-18 -37 -53 -18l-41 20q-31 12 -16 50z" />
<glyph unicode="&#x2000;" horiz-adv-x="936" />
<glyph unicode="&#x2001;" horiz-adv-x="1872" />
<glyph unicode="&#x2002;" horiz-adv-x="936" />
<glyph unicode="&#x2003;" horiz-adv-x="1872" />
<glyph unicode="&#x2004;" horiz-adv-x="624" />
<glyph unicode="&#x2005;" horiz-adv-x="468" />
<glyph unicode="&#x2006;" horiz-adv-x="312" />
<glyph unicode="&#x2007;" horiz-adv-x="312" />
<glyph unicode="&#x2008;" horiz-adv-x="234" />
<glyph unicode="&#x2009;" horiz-adv-x="374" />
<glyph unicode="&#x200a;" horiz-adv-x="104" />
<glyph unicode="&#x2010;" horiz-adv-x="567" d="M84 496v79q0 41 39 41h321q39 0 39 -41v-79q0 -39 -39 -39h-321q-39 0 -39 39z" />
<glyph unicode="&#x2011;" horiz-adv-x="567" d="M84 496v79q0 41 39 41h321q39 0 39 -41v-79q0 -39 -39 -39h-321q-39 0 -39 39z" />
<glyph unicode="&#x2012;" horiz-adv-x="567" d="M84 496v79q0 41 39 41h321q39 0 39 -41v-79q0 -39 -39 -39h-321q-39 0 -39 39z" />
<glyph unicode="&#x2013;" horiz-adv-x="1024" d="M0 496v79q0 41 39 41h946q39 0 39 -41v-79q0 -39 -39 -39h-946q-39 0 -39 39z" />
<glyph unicode="&#x2014;" horiz-adv-x="2048" d="M0 496v79q0 41 39 41h1970q39 0 39 -41v-79q0 -39 -39 -39h-1970q-39 0 -39 39z" />
<glyph unicode="&#x2018;" horiz-adv-x="391" d="M70 1120q0 90 51 180.5t123 133.5q27 14 41 -2l20 -23q16 -20 -4 -37q-72 -68 -72 -133q0 -27 35 -73t35 -76q0 -47 -31.5 -78t-79.5 -31q-51 0 -84.5 43t-33.5 96z" />
<glyph unicode="&#x2019;" horiz-adv-x="391" d="M86 1014q-16 20 4 37q72 68 72 133q0 27 -35 73t-35 76q0 47 32 78t79 31q51 0 85 -43t34 -96q0 -90 -51.5 -180.5t-123.5 -133.5q-27 -14 -41 2z" />
<glyph unicode="&#x201a;" horiz-adv-x="391" d="M86 -254q-16 20 4 37q72 68 72 133q0 27 -35 73t-35 77q0 47 32 77.5t79 30.5q51 0 85 -43t34 -96q0 -90 -51.5 -180.5t-123.5 -133.5q-27 -14 -41 3z" />
<glyph unicode="&#x201c;" horiz-adv-x="751" d="M70 1120q0 90 51 180.5t123 133.5q27 14 41 -2l20 -23q16 -20 -4 -37q-72 -68 -72 -133q0 -27 35 -73t35 -76q0 -47 -31.5 -78t-79.5 -31q-51 0 -84.5 43t-33.5 96zM430 1120q0 90 51 180.5t123 133.5q27 14 41 -2l21 -23q16 -20 -4 -37q-72 -68 -72 -133q0 -27 34.5 -73 t34.5 -76q0 -47 -31.5 -78t-78.5 -31q-51 0 -85 43t-34 96z" />
<glyph unicode="&#x201d;" horiz-adv-x="751" d="M86 1014q-16 20 4 37q72 68 72 133q0 27 -35 73t-35 76q0 47 32 78t79 31q51 0 85 -43t34 -96q0 -90 -51.5 -180.5t-123.5 -133.5q-27 -14 -41 2zM446 1014q-16 20 5 37q72 68 71 133q0 27 -34.5 73t-34.5 76q0 47 31.5 78t78.5 31q51 0 85 -43t34 -96q0 -90 -51 -180.5 t-123 -133.5q-27 -14 -41 2z" />
<glyph unicode="&#x201e;" horiz-adv-x="751" d="M86 -254q-16 20 4 37q72 68 72 133q0 27 -35 73t-35 77q0 47 32 77.5t79 30.5q51 0 85 -43t34 -96q0 -90 -51.5 -180.5t-123.5 -133.5q-27 -14 -41 3zM446 -254q-16 20 5 37q72 68 71 133q0 27 -34.5 73t-34.5 77q0 47 31.5 77.5t78.5 30.5q51 0 85 -43t34 -96 q0 -90 -51 -180.5t-123 -133.5q-27 -14 -41 3z" />
<glyph unicode="&#x2022;" horiz-adv-x="1044" d="M182 545q0 152 100.5 238.5t243.5 86.5q137 0 236.5 -86t99.5 -233q0 -152 -100 -239t-242 -87q-137 0 -237.5 86t-100.5 234z" />
<glyph unicode="&#x2026;" horiz-adv-x="1253" d="M102 90q0 53 35 83t84 30q47 0 82 -30t35 -81q0 -53 -35 -82.5t-84 -29.5q-47 0 -82 29.5t-35 80.5zM520 90q0 53 35 83t84 30q47 0 82 -30t35 -81q0 -53 -35 -82.5t-84 -29.5q-47 0 -82 29.5t-35 80.5zM938 90q0 53 35 83t84 30q47 0 82 -30t35 -81q0 -53 -35 -82.5 t-84 -29.5q-47 0 -82 29.5t-35 80.5z" />
<glyph unicode="&#x202f;" horiz-adv-x="374" />
<glyph unicode="&#x2039;" horiz-adv-x="587" d="M104 463q0 16 15 41l221 291q16 27 43 12l55 -31q25 -14 8 -41l-170 -266l168 -276q18 -29 -8 -43l-49 -29q-27 -14 -45 8l-225 301q-12 18 -13 33z" />
<glyph unicode="&#x203a;" horiz-adv-x="589" d="M143 193l170 266l-168 276q-18 29 9 43l49 29q27 14 45 -8l225 -301q12 -18 12 -35q0 -23 -14 -39l-221 -293q-18 -25 -43 -12l-55 33q-25 14 -9 41z" />
<glyph unicode="&#x205f;" horiz-adv-x="468" />
<glyph unicode="&#x20ac;" d="M66 541v49q0 18 7 25.5t27 7.5h95q-2 27 -2 82v43h-93q-20 0 -27 7t-7 25v49q0 18 7 25.5t27 7.5h105q23 256 175 415t380 159q164 0 305 -76q35 -18 18 -51l-36 -70q-14 -29 -46 -14q-121 57 -221 57q-143 0 -241 -94q-119 -119 -131 -326h448q33 0 25 -28l-17 -60 q-8 -27 -39 -26h-430v-27q0 -37 4 -98h412q33 0 25 -29l-17 -59q-8 -27 -39 -27h-366q20 -176 116 -279q90 -96 234 -96q102 0 242 57q39 14 51 -18l24 -59q8 -25 3 -35t-25 -23q-141 -76 -316 -75q-225 0 -365 142t-171 386h-107q-20 0 -27 7t-7 26z" />
<glyph unicode="&#x2122;" horiz-adv-x="1345" d="M86 1350v41q0 20 23 20h397q22 0 20 -20l-6 -41q-2 -20 -26 -21h-140v-469q0 -25 -24 -24h-56q-25 0 -24 24v469h-141q-23 0 -23 21zM602 860l14 526q0 25 23 25h47q25 0 33 -22l184 -420l174 420q8 23 33 22h43q23 0 23 -25l18 -526q0 -25 -25 -24h-53q-25 0 -24 24 l-7 359l-143 -365q-8 -18 -27 -18h-28q-18 0 -27 18l-158 367l-4 -361q0 -25 -24 -24h-47q-25 0 -25 24z" />
<glyph unicode="&#x25fc;" horiz-adv-x="993" d="M0 0v993h993v-993h-993z" />
</font>
</defs>
</svg>
