<?xml version="1.0" encoding="utf-8"?>
<!-- Generator: Adobe Illustrator 21.1.0, SVG Export Plug-In . SVG Version: 6.00 Build 0)  -->
<svg version="1.1" id="Layer_1" xmlns="http://www.w3.org/2000/svg" xmlns:xlink="http://www.w3.org/1999/xlink" x="0px" y="0px"
	 viewBox="0 0 1373.3 640.2" style="enable-background:new 0 0 1373.3 640.2;" xml:space="preserve">
<style type="text/css">
	.st0{fill:#01B0F0;}
</style>
<path d="M73.7,0v65.5h0.7c4.4-7.3,10-12.6,16.8-15.9c6.8-3.3,13.5-5,20-5c9.3,0,16.8,1.3,22.8,3.8c5.9,2.5,10.6,6,14,10.5
	s5.8,9.9,7.2,16.3s2.1,13.5,2.1,21.3v77.4h-34.6v-71.1c0-10.4-1.6-18.1-4.9-23.2c-3.2-5.1-9-7.7-17.3-7.7c-9.4,0-16.2,2.8-20.4,8.4
	c-4.2,5.6-6.3,14.8-6.3,27.6v66H39.1V0H73.7z"/>
<path d="M184.5,28.5V0H219v28.5H184.5z M219,48v125.8h-34.6V48H219z"/>
<path d="M286.2,136.3v37.5c0,5.5-1,10.6-3,15.2c-2,4.6-4.7,8.6-8.2,12s-7.4,6.2-12,8.4s-9.5,3.7-14.7,4.5v-17.5
	c2.4-0.5,4.7-1.5,6.9-2.9c2.2-1.5,4.1-3.2,5.7-5.2s2.8-4.3,3.7-6.8c0.8-2.5,1.1-5.1,1-7.7H248v-37.5H286.2z"/>
<path d="M382.6,28.5V0h34.6v28.5H382.6z M417.2,48v125.8h-34.6V48H417.2z"/>
<path d="M516.7,66.5c3.6-5.4,8.1-9.7,13.6-12.9s11.7-5.6,18.6-6.9c6.9-1.4,13.8-2.1,20.8-2.1c6.3,0,12.7,0.4,19.2,1.3
	c6.5,0.9,12.4,2.6,17.8,5.2c5.4,2.6,9.7,6.2,13.1,10.8c3.4,4.6,5.1,10.8,5.1,18.4v65.5c0,5.7,0.3,11.1,1,16.3
	c0.6,5.2,1.8,9.1,3.4,11.7h-35.1c-0.7-1.9-1.2-3.9-1.6-6c-0.4-2-0.7-4.1-0.9-6.2c-5.5,5.7-12,9.7-19.5,11.9
	c-7.5,2.3-15.1,3.4-22.9,3.4c-6,0-11.6-0.7-16.8-2.2s-9.7-3.7-13.6-6.8c-3.9-3.1-6.9-7-9.1-11.7s-3.3-10.3-3.3-16.8
	c0-7.1,1.3-13,3.8-17.6c2.5-4.6,5.8-8.3,9.7-11.1c4-2.8,8.5-4.8,13.6-6.2c5.1-1.4,10.3-2.5,15.5-3.3s10.3-1.5,15.3-1.9
	c5-0.5,9.5-1.2,13.4-2.2s7-2.4,9.2-4.3c2.3-1.9,3.3-4.6,3.2-8.2c0-3.7-0.6-6.7-1.8-8.9c-1.2-2.2-2.8-3.9-4.9-5.1
	c-2-1.2-4.4-2-7.1-2.4c-2.7-0.4-5.6-0.6-8.6-0.6c-6.8,0-12.2,1.5-16.1,4.4c-3.9,2.9-6.2,7.8-6.8,14.6h-34.6
	C511.1,78.5,513.1,71.8,516.7,66.5z M585,115.3c-2.2,0.7-4.5,1.3-7.1,1.8c-2.5,0.5-5.2,0.9-7.9,1.2c-2.8,0.3-5.5,0.7-8.3,1.2
	c-2.6,0.5-5.2,1.1-7.7,1.9s-4.7,1.9-6.6,3.3c-1.9,1.4-3.4,3.1-4.5,5.2s-1.7,4.8-1.7,8c0,3.1,0.6,5.7,1.7,7.8c1.1,2.1,2.7,3.8,4.6,5
	c1.9,1.2,4.2,2.1,6.8,2.6s5.3,0.7,8,0.7c6.8,0,12.1-1.1,15.8-3.4c3.7-2.3,6.5-5,8.3-8.2s2.9-6.4,3.3-9.6c0.4-3.2,0.6-5.8,0.6-7.8
	v-12.9C589,113.5,587.2,114.5,585,115.3z"/>
<path d="M685.4,48v17h0.5c4.5-6.5,10-11.5,16.4-15.1s13.8-5.4,22-5.4c7.9,0,15.2,1.5,21.8,4.6s11.6,8.5,15,16.3
	c3.7-5.5,8.8-10.4,15.2-14.6s14-6.3,22.8-6.3c6.7,0,12.8,0.8,18.5,2.4c5.7,1.6,10.5,4.2,14.6,7.8s7.2,8.2,9.5,14s3.4,12.7,3.4,20.8
	v84.2h-34.6v-71.3c0-4.2-0.2-8.2-0.5-11.9c-0.3-3.7-1.2-7-2.7-9.7c-1.5-2.8-3.6-4.9-6.5-6.6c-2.8-1.6-6.7-2.4-11.6-2.4
	s-8.8,0.9-11.8,2.8s-5.4,4.3-7.1,7.3c-1.7,3-2.8,6.4-3.4,10.2c-0.6,3.8-0.9,7.7-0.9,11.6v70.1h-34.6v-70.6c0-3.7-0.1-7.4-0.2-11.1
	c-0.2-3.7-0.9-7-2.1-10.1c-1.2-3.1-3.2-5.6-6.1-7.4c-2.8-1.9-7-2.8-12.5-2.8c-1.6,0-3.8,0.4-6.5,1.1s-5.3,2.1-7.8,4.1
	s-4.7,5-6.5,8.8s-2.7,8.8-2.7,15v73h-34.6V48H685.4z"/>
<g>
	<rect y="459.2" class="st0" width="1278.1" height="181"/>
</g>
<path d="M196.5,330.1v48H144v129.4c0,12.1,2,20.2,6.1,24.3c4,4,12.1,6.1,24.3,6.1c4,0,7.9-0.2,11.6-0.5c3.7-0.3,7.2-0.8,10.6-1.5
	v55.6c-6.1,1-12.8,1.7-20.2,2s-14.7,0.5-21.7,0.5c-11.1,0-21.6-0.8-31.6-2.3c-9.9-1.5-18.7-4.5-26.3-8.8
	c-7.6-4.4-13.6-10.6-17.9-18.7c-4.4-8.1-6.6-18.7-6.6-31.8V378.1H28.7v-48h43.5v-78.3H144v78.3H196.5z"/>
<path d="M231.1,368.5c7.4-11.1,16.8-20,28.3-26.8c11.4-6.7,24.3-11.5,38.7-14.4c14.3-2.9,28.7-4.3,43.2-4.3
	c13.1,0,26.4,0.9,39.9,2.8s25.8,5.5,36.9,10.9s20.2,12.9,27.3,22.5c7.1,9.6,10.6,22.3,10.6,38.1v135.9c0,11.8,0.7,23.1,2,33.9
	c1.3,10.8,3.7,18.9,7.1,24.3h-72.8c-1.4-4-2.4-8.2-3.3-12.4c-0.8-4.2-1.4-8.5-1.8-12.9c-11.5,11.8-24.9,20-40.4,24.8
	c-15.5,4.7-31.3,7.1-47.5,7.1c-12.5,0-24.1-1.5-34.9-4.5s-20.2-7.7-28.3-14.1c-8.1-6.4-14.4-14.5-18.9-24.3s-6.8-21.4-6.8-34.9
	c0-14.8,2.6-27,7.8-36.6s12-17.3,20.2-23c8.3-5.7,17.7-10,28.3-12.9c10.6-2.9,21.3-5.1,32.1-6.8c10.8-1.7,21.4-3,31.8-4
	s19.7-2.5,27.8-4.5s14.5-5,19.2-8.8c4.7-3.9,6.9-9.5,6.6-16.9c0-7.7-1.3-13.9-3.8-18.4s-5.9-8.1-10.1-10.6s-9.1-4.2-14.7-5.1
	c-5.6-0.8-11.5-1.3-17.9-1.3c-14.1,0-25.3,3-33.3,9.1c-8.1,6.1-12.8,16.2-14.1,30.3h-71.8C219.5,393.6,223.7,379.6,231.1,368.5z
	 M372.8,469.8c-4.5,1.5-9.4,2.8-14.7,3.8c-5.2,1-10.7,1.9-16.4,2.5c-5.7,0.7-11.5,1.5-17.2,2.5c-5.4,1-10.7,2.4-15.9,4
	c-5.2,1.7-9.8,4-13.6,6.8c-3.9,2.9-7,6.5-9.3,10.9c-2.4,4.4-3.5,9.9-3.5,16.7c0,6.4,1.2,11.8,3.5,16.2c2.4,4.4,5.6,7.8,9.6,10.4
	c4,2.5,8.8,4.3,14.1,5.3c5.4,1,10.9,1.5,16.7,1.5c14.1,0,25.1-2.4,32.8-7.1c7.7-4.7,13.5-10.4,17.2-16.9c3.7-6.6,6-13.2,6.8-20
	c0.8-6.7,1.3-12.1,1.3-16.2v-26.8C381.2,466.2,377.4,468.3,372.8,469.8z"/>
<path d="M549.5,526.4c3.2,5.6,7.3,10.1,12.4,13.6s10.9,6.2,17.4,7.8c6.6,1.7,13.4,2.5,20.5,2.5c5.1,0,10.4-0.6,15.9-1.8
	c5.6-1.2,10.6-3,15.2-5.6c4.5-2.5,8.3-5.9,11.4-10.1c3-4.2,4.5-9.5,4.5-15.9c0-10.8-7.2-18.9-21.5-24.3s-34.3-10.8-59.9-16.2
	c-10.4-2.4-20.6-5.1-30.6-8.3c-9.9-3.2-18.8-7.4-26.5-12.6c-7.8-5.2-14-11.8-18.7-19.7c-4.7-7.9-7.1-17.6-7.1-29.1
	c0-16.8,3.3-30.6,9.9-41.4s15.2-19.3,26-25.5s22.9-10.6,36.4-13.1s27.3-3.8,41.4-3.8c14.1,0,27.9,1.4,41.2,4
	c13.3,2.7,25.2,7.2,35.6,13.6c10.4,6.4,19.1,14.9,26,25.5s11,24,12.4,40.2h-68.2c-1-13.8-6.2-23.2-15.7-28
	c-9.4-4.9-20.6-7.3-33.3-7.3c-4,0-8.4,0.3-13.1,0.8c-4.7,0.5-9,1.6-12.9,3.3c-3.9,1.7-7.2,4.1-9.9,7.3c-2.7,3.2-4,7.5-4,12.9
	c0,6.4,2.4,11.6,7.1,15.7c4.7,4,10.9,7.3,18.4,9.9c7.6,2.5,16.2,4.8,26,6.8s19.7,4.2,29.8,6.6c10.4,2.4,20.6,5.2,30.6,8.6
	c9.9,3.4,18.8,7.8,26.5,13.4s14,12.5,18.7,20.7c4.7,8.3,7.1,18.4,7.1,30.6c0,17.2-3.5,31.6-10.4,43.2s-15.9,21-27,28
	c-11.1,7.1-23.8,12-38.1,14.9s-28.9,4.3-43.7,4.3c-15.2,0-30-1.5-44.5-4.5s-27.4-8.1-38.7-15.2c-11.3-7.1-20.6-16.4-27.8-28
	s-11.2-26.2-11.9-43.7h68.2C544.7,514.2,546.3,520.9,549.5,526.4z"/>
<path d="M812.6,230.6v135.9h1.5c9.1-15.2,20.7-26.2,34.9-33.1c14.1-6.9,28-10.4,41.4-10.4c19.2,0,34.9,2.6,47.2,7.8
	c12.3,5.2,22,12.5,29.1,21.7c7.1,9.3,12,20.6,14.9,33.9s4.3,28,4.3,44.2v160.7h-71.8V443.8c0-21.6-3.4-37.6-10.1-48.3
	c-6.7-10.6-18.7-15.9-35.9-15.9c-19.5,0-33.7,5.8-42.4,17.4c-8.8,11.6-13.1,30.7-13.1,57.3v136.9h-71.8V230.6H812.6z"/>
<path d="M1024.4,368.5c7.4-11.1,16.8-20,28.3-26.8c11.4-6.7,24.3-11.5,38.7-14.4c14.3-2.9,28.7-4.3,43.2-4.3
	c13.1,0,26.4,0.9,39.9,2.8s25.8,5.5,36.9,10.9s20.2,12.9,27.3,22.5c7.1,9.6,10.6,22.3,10.6,38.1v135.9c0,11.8,0.7,23.1,2,33.9
	c1.3,10.8,3.7,18.9,7.1,24.3h-72.8c-1.4-4-2.4-8.2-3.3-12.4c-0.8-4.2-1.4-8.5-1.8-12.9c-11.5,11.8-24.9,20-40.4,24.8
	c-15.5,4.7-31.3,7.1-47.5,7.1c-12.5,0-24.1-1.5-34.9-4.5s-20.2-7.7-28.3-14.1c-8.1-6.4-14.4-14.5-18.9-24.3s-6.8-21.4-6.8-34.9
	c0-14.8,2.6-27,7.8-36.6s12-17.3,20.2-23c8.3-5.7,17.7-10,28.3-12.9c10.6-2.9,21.3-5.1,32.1-6.8c10.8-1.7,21.4-3,31.8-4
	s19.7-2.5,27.8-4.5c8.1-2,14.5-5,19.2-8.8c4.7-3.9,6.9-9.5,6.6-16.9c0-7.7-1.3-13.9-3.8-18.4s-5.9-8.1-10.1-10.6s-9.1-4.2-14.7-5.1
	c-5.6-0.8-11.5-1.3-17.9-1.3c-14.1,0-25.3,3-33.3,9.1c-8.1,6.1-12.8,16.2-14.1,30.3h-71.8C1012.8,393.6,1017,379.6,1024.4,368.5z
	 M1166.1,469.8c-4.5,1.5-9.4,2.8-14.7,3.8c-5.2,1-10.7,1.9-16.4,2.5c-5.7,0.7-11.5,1.5-17.2,2.5c-5.4,1-10.7,2.4-15.9,4
	c-5.2,1.7-9.8,4-13.6,6.8c-3.9,2.9-7,6.5-9.3,10.9c-2.4,4.4-3.5,9.9-3.5,16.7c0,6.4,1.2,11.8,3.5,16.2c2.4,4.4,5.6,7.8,9.6,10.4
	s8.8,4.3,14.1,5.3c5.4,1,10.9,1.5,16.7,1.5c14.1,0,25.1-2.4,32.8-7.1c7.7-4.7,13.5-10.4,17.2-16.9c3.7-6.6,6-13.2,6.8-20
	c0.8-6.7,1.3-12.1,1.3-16.2v-26.8C1174.5,466.2,1170.7,468.3,1166.1,469.8z"/>
<path d="M1373.3,513.5v77.8H1294v-77.8H1373.3z"/>
</svg>
