<?xml version="1.0" encoding="utf-8"?>
<!-- Generator: Adobe Illustrator 21.1.0, SVG Export Plug-In . SVG Version: 6.00 Build 0)  -->
<svg version="1.1" id="Layer_1" xmlns="http://www.w3.org/2000/svg" xmlns:xlink="http://www.w3.org/1999/xlink" x="0px" y="0px"
	 viewBox="0 0 431 431" style="enable-background:new 0 0 431 431;" xml:space="preserve">
<style type="text/css">
	.st0{fill:#FFFFFF;stroke:#000000;stroke-width:4;stroke-miterlimit:10;}
	.st1{stroke:#000000;stroke-width:4;stroke-linecap:round;stroke-linejoin:round;stroke-miterlimit:10;}
	.st2{stroke:#000000;stroke-miterlimit:10;}
	.st3{stroke:#000000;stroke-width:3;stroke-miterlimit:10;}
	.st4{stroke:#000000;stroke-width:0.5;stroke-miterlimit:10;}
	.st5{stroke:#000000;stroke-width:5;stroke-linecap:round;stroke-linejoin:round;stroke-miterlimit:10;}
	.st6{fill:#FFFFFF;stroke:#000000;stroke-width:4;stroke-linecap:round;stroke-linejoin:round;stroke-miterlimit:10;}
	.st7{fill:#FFFFFF;stroke:#000000;stroke-width:4;stroke-linejoin:round;stroke-miterlimit:10;}
	.st8{fill:#636363;stroke:#000000;stroke-width:4;stroke-linecap:round;stroke-linejoin:round;stroke-miterlimit:10;}
</style>
<circle class="st0" cx="215.5" cy="215.5" r="213.5"/>
<path class="st1" d="M268.2,264.8l1,8.1c0,0,63.9-13.3,40.9-52.5C310.1,220.4,308.6,243.5,268.2,264.8z"/>
<path class="st2" d="M254.6,196.7c0,0,12.8,23.2,16.7,47.3c0,0,2.9,10.2,1.9,31.3c0,0-6.1,13.8-16.6,11.6l-48.7-3.7
	c0,0-15.9,2.9-17-6.6c0,0-1.2-26.8,13.9-46.3L254.6,196.7z"/>
<path class="st3" d="M273.3,262.4c0,0-9.5,1.9-21.6,4.2c-0.1,0,1.4-0.4,1.3-0.3c-12.3,2.4-1.4,20,5.1,20.9c3.2,0.5,10.8-2.1,15-11.8
	L273.3,262.4z"/>
<path class="st3" d="M193.5,263.5c0,0-3.3,8.8-2.3,14.3c0.8,4.4,7.3,6.9,16.7,5.4v-17.5L193.5,263.5z"/>
<path class="st4" d="M235.1,287.4c0,0,15.6,15.8,25.2-1.2c0,0,0.3-2.6-3.6-26.2l0.3-69l-26.1,27.3L235.1,287.4z"/>
<path class="st4" d="M208.6,223l-2.5,40.5v21.7c0,0,13.1,20.4,27.4,2.2l-4.3-70L208.6,223z"/>
<path class="st3" d="M207.9,269.9c0,0,16.6-2.5,24.6,0l1,15.5c0,0-12.3,18.5-27.4-2.2L207.9,269.9z"/>
<path class="st3" d="M232.7,273.5c0,0,11.3-4.8,23.8-4.7c0,0,3.5,14.4,2.2,16.4c0,0-7.7,16.8-25.2,1.2L232.7,273.5z"/>
<path class="st4" d="M211.9,223.7c0,0-2.8,18.9,13.4,19.9c10.4,0.6,10.3,1,13.8-1c5.6-3.1,14.4-9.4,5.7-30.2
	C244.8,212.4,232.9,223.9,211.9,223.7z"/>
<path class="st5" d="M207.9,229.5c0,0,57.7-21,63-62.7L239.2,132c0,0-8.7,4.6-38.8-27.8c0,0,26.9,1.2,35.2,3.9
	c1.9,0.6,4-0.2,4.8-2.1c0.5-1.1,0.5-2.5-0.7-4.1c0,0-6.6-13.9-23.6-26.2c0,0-3.3-5.2-19.9-2.6c0,0-32.1,26.4-18.5,28.3
	c1.7,0.2-33.1,6.2-42.9,55.1c0,0-6.5-2.4-9.2,3.6s-8.6,12.8-8.6,12.8s-6.1,18.5,11.1,26.1s31.7,12.7,25.6-0.2S139.3,174,141,169.5
	c1.7-4.5,37.3,31.6,37.3,31.6l2.7,4L207.9,229.5z"/>
<path class="st4" d="M241.7,203.5c0.2-2.9,5.6-7.1,8.3-8.3c1.9-0.8,8.3,0.3,7.9,3.4c0,0-5.5,8.9-11.3,13.3
	C244.7,213.4,241.4,207.6,241.7,203.5z"/>
<path class="st6" d="M167.7,212.4l8.7-3.6L175,218l7.7-2.5l1.5,7.2l6.1-2.3l1.3,7.3l7.1-2.6l3.9,7.7l4.8-4.5l4.9,7.1l4.4-10l9,3.8
	l-0.4-9l8.8,3.1l1-9l10.8,2.3l-0.8-9.1l9.8,2.2l-1.8-9.1l9.5-0.1l-1.3-7.9l8.3-2.5l-2.9-8.3l7.3-2.9l-3.9-7.3l7.8-4.1l-6.3-5.3
	l3.8-8.5l-9.5,0.3l1.6-10.1l-8.3,0.6l2.4-8.2l-7.1,0.3l0.5-9.4l-6.8,1.6l-1.9-6.9l-5.9,7.5l-7.1-4.5l-1.3,11.2l-16.9,19
	c0,0,0.6,11.9-3.1,16c-4.1,4.6-15.4,6.6-15.4,6.6L179,197.4l-12,3.4l6.6,3.8L167.7,212.4z"/>
<path class="st7" d="M200.5,137.8l18.9-19.2c0,0,0,0,0-0.1c0.1-0.6,1-9.5-9.5-2.1l1.3-6.8c0,0-8.3,1.5-10.7,9.8
	c0,0-1.3-5.7,3.2-14.4C203.7,105.1,182.8,125.2,200.5,137.8z"/>
<path class="st7" d="M173.9,164.6L156,184.8c0,0,0,0-0.1,0c-0.6,0.1-8.7,1-1.7-10.4l-6.2,1.3c0,0,1.6-9,9.2-11.5
	c0,0-5.1-1.5-13.2,3.3C143.9,167.6,162.7,145.1,173.9,164.6z"/>
<path class="st8" d="M239,194.1c0.2,0.2-0.2,1-1,1.9s-1.6,1.4-1.8,1.3c-0.2-0.2,1.2-1,2-1.9C238.9,194.5,238.7,193.9,239,194.1z"/>
<g>
	<path d="M133.2,307.7h-7.7v20.9h-4.2v-20.9h-7.6v-4.2h19.5V307.7z"/>
	<path d="M155.5,328.6h-4.9l-1.7-4.2h-9.2l-1.7,4.2h-4.9l11.2-25.1L155.5,328.6z M141.5,320.2h5.7l-2.8-7L141.5,320.2z"/>
	<path d="M159.5,315.2c-1.6-1.7-1.9-3.2-1.9-5c0-3.8,4.1-7,8-7c3.8,0,8,2.9,8,5.6l-4.2,1.4c0-1.5-1.7-2.8-3.8-2.8
		c-2.1,0-3.8,1.3-3.8,2.8s1.6,2.7,3.8,3.1c2.5,0.4,3.6,0.7,4.8,1.2c1.9,0.8,3.9,2.5,3.9,6.8s-4.4,7.7-8.6,7.7c-4.2,0-8.7-3-8.7-6.3
		l4.2-1.4c0,1.9,2.6,3.5,4.5,3.5c2,0,4.5-1.6,4.5-3.5c0-2.5-2.5-3.2-4.5-3.8C162.9,316.7,160.8,316.5,159.5,315.2z"/>
	<path d="M178.4,303.5h4.2V314h11.2v-10.5h4.2v25.1h-4.2v-10.5h-11.2v10.5h-4.2V303.5z"/>
	<path d="M223.8,328.6h-4.9l-1.7-4.2H208l-1.7,4.2h-4.9l11.2-25.1L223.8,328.6z M209.8,320.2h5.7l-2.8-7L209.8,320.2z"/>
	<path d="M240.7,303.5c6.9,0.1,12.4,5.7,12.4,12.6s-5.5,12.5-12.4,12.6h-7.1v-25.1h7.1V303.5z M240.7,307.7h-3v16.7h3
		c4.5-0.1,8.2-3.8,8.2-8.4C248.9,311.5,245.2,307.7,240.7,307.7z"/>
	<path d="M262.1,303.5v25.1H258v-25.1H262.1z"/>
	<path d="M276.8,328.6l-11.2-25.1h4.9l6.3,15.3l6.3-15.3h4.9L276.8,328.6z"/>
	<path d="M295.6,303.5v25.1h-4.2v-25.1H295.6z"/>
	<path d="M302.4,315.2c-1.6-1.7-1.9-3.2-1.9-5c0-3.8,4.1-7,8-7c3.8,0,8,2.9,8,5.6l-4.2,1.4c0-1.5-1.7-2.8-3.8-2.8s-3.8,1.3-3.8,2.8
		s1.6,2.7,3.8,3.1c2.5,0.4,3.6,0.7,4.8,1.2c1.9,0.8,3.9,2.5,3.9,6.8s-4.4,7.7-8.6,7.7c-4.2,0-8.7-3-8.7-6.3l4.2-1.4
		c0,1.9,2.6,3.5,4.5,3.5c2,0,4.5-1.6,4.5-3.5c0-2.5-2.5-3.2-4.5-3.8C305.8,316.7,303.7,316.5,302.4,315.2z"/>
</g>
<g>
	<path d="M125.7,335.9v1.4h-6.4v3.9h5.6v1.4h-5.6v5.6h-1.6v-12.1h8V335.9z"/>
	<path d="M128.8,339.2v1.9l0,0c0.4-0.7,0.8-1.2,1.3-1.6c0.5-0.3,1.2-0.5,1.9-0.5v1.5c-0.6,0-1.1,0.1-1.5,0.2s-0.7,0.4-1,0.7
		c-0.2,0.3-0.4,0.7-0.5,1.1s-0.2,0.9-0.2,1.5v3.9h-1.4v-8.8L128.8,339.2L128.8,339.2z"/>
	<path d="M132.8,341.8c0.2-0.6,0.5-1,0.8-1.5c0.4-0.4,0.8-0.7,1.3-1c0.5-0.2,1.1-0.4,1.8-0.4s1.3,0.1,1.8,0.4c0.5,0.2,1,0.6,1.3,1
		c0.4,0.4,0.6,0.9,0.8,1.5s0.3,1.2,0.3,1.8c0,0.6-0.1,1.2-0.3,1.8c-0.2,0.6-0.5,1-0.8,1.5c-0.4,0.4-0.8,0.7-1.3,1
		c-0.5,0.2-1.1,0.3-1.8,0.3s-1.3-0.1-1.8-0.3c-0.5-0.2-1-0.6-1.3-1c-0.4-0.4-0.6-0.9-0.8-1.5s-0.3-1.2-0.3-1.8
		S132.6,342.4,132.8,341.8z M134.2,345c0.1,0.4,0.3,0.8,0.6,1s0.5,0.5,0.9,0.6c0.3,0.1,0.7,0.2,1.1,0.2c0.4,0,0.7-0.1,1.1-0.2
		c0.3-0.1,0.6-0.4,0.9-0.6c0.2-0.3,0.4-0.6,0.6-1c0.1-0.4,0.2-0.9,0.2-1.4s-0.1-1-0.2-1.4c-0.1-0.4-0.3-0.8-0.6-1
		c-0.2-0.3-0.5-0.5-0.9-0.6c-0.3-0.1-0.7-0.2-1.1-0.2c-0.4,0-0.7,0.1-1.1,0.2c-0.3,0.1-0.6,0.4-0.9,0.6s-0.4,0.6-0.6,1
		c-0.1,0.4-0.2,0.9-0.2,1.4C134,344.2,134.1,344.6,134.2,345z"/>
	<path d="M144.2,339.2v1.4l0,0c0.6-1.1,1.6-1.6,2.9-1.6c0.6,0,1.1,0.1,1.4,0.2c0.4,0.2,0.7,0.4,0.9,0.7c0.2,0.3,0.4,0.6,0.5,1
		c0.1,0.4,0.1,0.8,0.1,1.3v5.8h-1.4v-5.9c0-0.5-0.2-1-0.5-1.3c-0.3-0.3-0.8-0.5-1.3-0.5c-0.4,0-0.8,0.1-1.1,0.2
		c-0.3,0.1-0.6,0.3-0.8,0.6c-0.2,0.2-0.4,0.5-0.5,0.9c-0.1,0.3-0.2,0.7-0.2,1.1v5h-1.4v-8.8h1.4V339.2z"/>
	<path d="M156.3,339.2v1.3h-1.8v5.5c0,0.2,0,0.3,0,0.4s0.1,0.2,0.2,0.2c0.1,0.1,0.2,0.1,0.3,0.1s0.3,0,0.6,0h0.7v1.3h-1.1
		c-0.4,0-0.7,0-1-0.1s-0.5-0.1-0.6-0.3c-0.2-0.1-0.3-0.3-0.4-0.6c-0.1-0.3-0.1-0.6-0.1-1v-5.6h-1.5v-1.3h1.5v-2.6h1.4v2.6h1.8V339.2
		z"/>
	<path d="M162.7,342.6v1.4h-4.9v-1.4H162.7z"/>
	<path d="M173.4,335.9v1.4h-6.8v3.9h6.4v1.4h-6.3v4.2h6.8v1.4H165v-12.1h8.4V335.9z"/>
	<path d="M176.7,339.2v1.4l0,0c0.6-1.1,1.6-1.6,2.9-1.6c0.6,0,1.1,0.1,1.4,0.2s0.7,0.4,0.9,0.7c0.2,0.3,0.4,0.6,0.5,1
		c0.1,0.4,0.1,0.8,0.1,1.3v5.8h-1.4v-5.9c0-0.5-0.2-1-0.5-1.3c-0.3-0.3-0.8-0.5-1.3-0.5c-0.4,0-0.8,0.1-1.1,0.2s-0.6,0.3-0.8,0.6
		c-0.2,0.2-0.4,0.5-0.5,0.9c-0.1,0.3-0.2,0.7-0.2,1.1v5h-1.4v-8.8h1.4V339.2z"/>
	<path d="M191.4,348v-1.2l0,0c-0.2,0.5-0.6,0.8-1.1,1.1c-0.5,0.2-1.1,0.3-1.7,0.3c-0.7,0-1.3-0.1-1.8-0.4c-0.5-0.2-0.9-0.6-1.3-1
		c-0.3-0.4-0.6-0.9-0.8-1.5s-0.3-1.1-0.3-1.8c0-0.6,0.1-1.2,0.2-1.8c0.2-0.6,0.4-1,0.7-1.5c0.3-0.4,0.8-0.7,1.3-1
		c0.5-0.2,1.1-0.4,1.8-0.4c0.2,0,0.5,0,0.7,0.1s0.5,0.1,0.8,0.2s0.5,0.2,0.7,0.4c0.2,0.2,0.4,0.4,0.6,0.7l0,0v-4.5h1.4V348H191.4z
		 M186.2,344.9c0.1,0.4,0.3,0.7,0.5,1s0.5,0.5,0.8,0.7s0.8,0.3,1.2,0.3c0.5,0,0.9-0.1,1.2-0.3c0.3-0.2,0.6-0.4,0.8-0.8
		c0.2-0.3,0.4-0.7,0.5-1.1s0.1-0.8,0.1-1.2c0-0.4-0.1-0.8-0.2-1.2c-0.1-0.4-0.3-0.8-0.5-1.1c-0.2-0.3-0.5-0.6-0.9-0.7
		c-0.4-0.2-0.8-0.3-1.3-0.3s-0.9,0.1-1.2,0.3c-0.3,0.2-0.6,0.4-0.8,0.8c-0.2,0.3-0.4,0.7-0.4,1.1c-0.1,0.4-0.1,0.8-0.1,1.3
		C186,344.1,186.1,344.5,186.2,344.9z"/>
	<path d="M209.6,348l-2.8-10.2l0,0L204,348h-1.7l-3.1-12.1h1.6l2.4,10.1l0,0l2.7-10.1h1.8l2.7,10.1l0,0l2.5-10.1h1.6l-3.2,12.1
		H209.6z"/>
	<path d="M221.2,347.4c-0.7,0.5-1.5,0.7-2.5,0.7c-0.7,0-1.3-0.1-1.8-0.3c-0.5-0.2-0.9-0.5-1.3-1c-0.4-0.4-0.6-0.9-0.8-1.5
		s-0.3-1.2-0.3-1.9c0-0.7,0.1-1.3,0.3-1.8c0.2-0.6,0.5-1,0.9-1.4c0.4-0.4,0.8-0.7,1.3-1c0.5-0.2,1.1-0.3,1.7-0.3
		c0.8,0,1.4,0.2,1.9,0.5s0.9,0.7,1.2,1.2c0.3,0.5,0.5,1,0.6,1.6c0.1,0.6,0.2,1.2,0.1,1.7h-6.6c0,0.4,0,0.8,0.1,1.1
		c0.1,0.3,0.3,0.7,0.5,0.9c0.2,0.3,0.5,0.5,0.9,0.6c0.4,0.1,0.8,0.2,1.2,0.2c0.6,0,1.1-0.1,1.5-0.4c0.4-0.3,0.6-0.7,0.8-1.3h1.4
		C222.3,346.2,221.9,346.9,221.2,347.4z M220.9,341.8c-0.1-0.3-0.3-0.6-0.5-0.8c-0.2-0.2-0.5-0.4-0.8-0.5c-0.3-0.1-0.6-0.2-1-0.2
		c-0.4,0-0.7,0.1-1,0.2c-0.3,0.1-0.6,0.3-0.8,0.5c-0.2,0.2-0.4,0.5-0.5,0.8c-0.1,0.3-0.2,0.6-0.2,1h5
		C221.1,342.4,221,342.1,220.9,341.8z"/>
	<path d="M225.8,335.9v4.5l0,0c0.2-0.5,0.6-0.8,1.1-1.1c0.5-0.2,1.1-0.3,1.7-0.3c0.7,0,1.3,0.1,1.8,0.4s0.9,0.6,1.3,1
		c0.3,0.4,0.6,0.9,0.8,1.5c0.2,0.6,0.3,1.1,0.3,1.8c0,0.6-0.1,1.2-0.2,1.8c-0.2,0.6-0.4,1-0.7,1.5c-0.3,0.4-0.8,0.7-1.3,1
		c-0.5,0.2-1.1,0.4-1.8,0.4c-0.2,0-0.5,0-0.7-0.1c-0.3,0-0.5-0.1-0.8-0.2c-0.3-0.1-0.5-0.2-0.7-0.4c-0.2-0.2-0.4-0.4-0.6-0.7l0,0
		v1.2h-1.4v-12.1h1.2V335.9z M231,342.3c-0.1-0.4-0.3-0.7-0.5-1s-0.5-0.5-0.8-0.7s-0.8-0.3-1.2-0.3c-0.5,0-0.9,0.1-1.2,0.3
		c-0.3,0.2-0.6,0.4-0.8,0.8s-0.4,0.7-0.5,1.1s-0.1,0.8-0.1,1.2c0,0.4,0.1,0.8,0.2,1.2c0.1,0.4,0.3,0.8,0.5,1.1
		c0.2,0.3,0.5,0.6,0.9,0.7c0.4,0.2,0.8,0.3,1.3,0.3s0.9-0.1,1.2-0.3c0.3-0.2,0.6-0.4,0.8-0.8c0.2-0.3,0.4-0.7,0.4-1.1
		c0.1-0.4,0.1-0.8,0.1-1.3C231.2,343.1,231.1,342.7,231,342.3z"/>
	<path d="M243.9,335.9c1.9,0,3.3,0.5,4.3,1.4c1,1,1.5,2.4,1.5,4.3c0,1-0.1,1.9-0.3,2.7c-0.2,0.8-0.6,1.4-1.1,2
		c-0.5,0.5-1.1,0.9-1.8,1.2c-0.7,0.3-1.6,0.4-2.6,0.4h-4.2v-12.1h4.2V335.9z M244,346.6c0.2,0,0.4,0,0.7,0s0.6-0.1,0.9-0.2
		c0.3-0.1,0.6-0.3,0.9-0.5c0.3-0.2,0.6-0.5,0.8-0.8c0.2-0.4,0.4-0.8,0.6-1.3c0.2-0.5,0.2-1.2,0.2-1.9c0-0.7-0.1-1.4-0.2-1.9
		c-0.1-0.6-0.4-1.1-0.7-1.5s-0.7-0.7-1.2-0.9c-0.5-0.2-1.1-0.3-1.9-0.3h-2.7v9.4h2.6V346.6z"/>
	<path d="M257.8,347.4c-0.7,0.5-1.5,0.7-2.5,0.7c-0.7,0-1.3-0.1-1.8-0.3c-0.5-0.2-0.9-0.5-1.3-1c-0.4-0.4-0.6-0.9-0.8-1.5
		s-0.3-1.2-0.3-1.9c0-0.7,0.1-1.3,0.3-1.8c0.2-0.6,0.5-1,0.9-1.4s0.8-0.7,1.3-1c0.5-0.2,1.1-0.3,1.7-0.3c0.8,0,1.4,0.2,1.9,0.5
		s0.9,0.7,1.2,1.2c0.3,0.5,0.5,1,0.6,1.6c0.1,0.6,0.2,1.2,0.1,1.7h-6.6c0,0.4,0,0.8,0.1,1.1c0.1,0.3,0.3,0.7,0.5,0.9
		c0.2,0.3,0.5,0.5,0.9,0.6s0.8,0.2,1.2,0.2c0.6,0,1.1-0.1,1.5-0.4s0.6-0.7,0.8-1.3h1.4C258.9,346.2,258.5,346.9,257.8,347.4z
		 M257.5,341.8c-0.1-0.3-0.3-0.6-0.5-0.8c-0.2-0.2-0.5-0.4-0.8-0.5c-0.3-0.1-0.6-0.2-1-0.2s-0.7,0.1-1,0.2s-0.6,0.3-0.8,0.5
		s-0.4,0.5-0.5,0.8s-0.2,0.6-0.2,1h5C257.7,342.4,257.6,342.1,257.5,341.8z"/>
	<path d="M263.3,348l-3.3-8.8h1.6l2.5,7.3l0,0l2.4-7.3h1.5l-3.2,8.8H263.3z"/>
	<path d="M275.8,347.4c-0.7,0.5-1.5,0.7-2.5,0.7c-0.7,0-1.3-0.1-1.8-0.3c-0.5-0.2-0.9-0.5-1.3-1c-0.4-0.4-0.6-0.9-0.8-1.5
		s-0.3-1.2-0.3-1.9c0-0.7,0.1-1.3,0.3-1.8c0.2-0.6,0.5-1,0.9-1.4s0.8-0.7,1.3-1c0.5-0.2,1.1-0.3,1.7-0.3c0.8,0,1.4,0.2,1.9,0.5
		s0.9,0.7,1.2,1.2c0.3,0.5,0.5,1,0.6,1.6c0.1,0.6,0.2,1.2,0.1,1.7h-6.6c0,0.4,0,0.8,0.1,1.1c0.1,0.3,0.3,0.7,0.5,0.9
		c0.2,0.3,0.5,0.5,0.9,0.6c0.4,0.2,0.8,0.2,1.2,0.2c0.6,0,1.1-0.1,1.5-0.4s0.6-0.7,0.8-1.3h1.4C276.8,346.2,276.4,346.9,275.8,347.4
		z M275.4,341.8c-0.1-0.3-0.3-0.6-0.5-0.8c-0.2-0.2-0.5-0.4-0.8-0.5c-0.3-0.1-0.6-0.2-1-0.2c-0.4,0-0.7,0.1-1,0.2
		c-0.3,0.1-0.6,0.3-0.8,0.5s-0.4,0.5-0.5,0.8s-0.2,0.6-0.2,1h5C275.6,342.4,275.5,342.1,275.4,341.8z"/>
	<path d="M280.4,335.9V348H279v-12.1H280.4z"/>
	<path d="M282.6,341.8c0.2-0.6,0.5-1,0.8-1.5c0.4-0.4,0.8-0.7,1.3-1c0.5-0.2,1.1-0.4,1.8-0.4c0.7,0,1.3,0.1,1.8,0.4
		c0.5,0.2,1,0.6,1.3,1c0.4,0.4,0.6,0.9,0.8,1.5s0.3,1.2,0.3,1.8c0,0.6-0.1,1.2-0.3,1.8c-0.2,0.6-0.5,1-0.8,1.5
		c-0.4,0.4-0.8,0.7-1.3,1c-0.5,0.2-1.1,0.3-1.8,0.3c-0.7,0-1.3-0.1-1.8-0.3c-0.5-0.2-1-0.6-1.3-1c-0.4-0.4-0.6-0.9-0.8-1.5
		s-0.3-1.2-0.3-1.8S282.4,342.4,282.6,341.8z M284,345c0.1,0.4,0.3,0.8,0.6,1s0.5,0.5,0.9,0.6c0.3,0.1,0.7,0.2,1.1,0.2
		s0.7-0.1,1.1-0.2c0.3-0.1,0.6-0.4,0.9-0.6c0.2-0.3,0.4-0.6,0.6-1c0.1-0.4,0.2-0.9,0.2-1.4s-0.1-1-0.2-1.4c-0.1-0.4-0.3-0.8-0.6-1
		c-0.3-0.3-0.5-0.5-0.9-0.6c-0.3-0.1-0.7-0.2-1.1-0.2s-0.7,0.1-1.1,0.2c-0.3,0.1-0.6,0.4-0.9,0.6s-0.4,0.6-0.6,1
		c-0.1,0.4-0.2,0.9-0.2,1.4C283.8,344.2,283.9,344.6,284,345z"/>
	<path d="M294.2,339.2v1.2l0,0c0.2-0.5,0.6-0.8,1.1-1.1c0.5-0.2,1.1-0.3,1.7-0.3c0.7,0,1.3,0.1,1.8,0.4s0.9,0.6,1.3,1
		c0.3,0.4,0.6,0.9,0.8,1.5c0.2,0.6,0.3,1.1,0.3,1.8c0,0.6-0.1,1.2-0.2,1.8c-0.2,0.6-0.4,1-0.7,1.5c-0.3,0.4-0.8,0.7-1.3,1
		c-0.5,0.2-1.1,0.4-1.8,0.4c-0.2,0-0.5,0-0.7-0.1c-0.3,0-0.5-0.1-0.8-0.2s-0.5-0.2-0.7-0.4c-0.2-0.2-0.4-0.4-0.6-0.7l0,0v4.5H293
		v-12.1h1.2V339.2z M299.4,342.3c-0.1-0.4-0.3-0.7-0.5-1s-0.5-0.5-0.8-0.7c-0.3-0.2-0.8-0.3-1.2-0.3c-0.5,0-0.9,0.1-1.2,0.3
		c-0.3,0.2-0.6,0.4-0.8,0.8c-0.2,0.3-0.4,0.7-0.5,1.1s-0.1,0.8-0.1,1.2c0,0.4,0.1,0.8,0.2,1.2c0.1,0.4,0.3,0.8,0.5,1.1
		c0.2,0.3,0.5,0.6,0.9,0.7c0.4,0.2,0.8,0.3,1.3,0.3s0.9-0.1,1.2-0.3c0.3-0.2,0.6-0.4,0.8-0.8c0.2-0.3,0.4-0.7,0.4-1.1
		c0.1-0.4,0.1-0.8,0.1-1.3C299.5,343.1,299.5,342.7,299.4,342.3z"/>
	<path d="M309.2,347.4c-0.7,0.5-1.5,0.7-2.5,0.7c-0.7,0-1.3-0.1-1.8-0.3c-0.5-0.2-0.9-0.5-1.3-1c-0.4-0.4-0.6-0.9-0.8-1.5
		s-0.3-1.2-0.3-1.9c0-0.7,0.1-1.3,0.3-1.8c0.2-0.6,0.5-1,0.9-1.4s0.8-0.7,1.3-1c0.5-0.2,1.1-0.3,1.7-0.3c0.8,0,1.4,0.2,1.9,0.5
		s0.9,0.7,1.2,1.2c0.3,0.5,0.5,1,0.6,1.6c0.1,0.6,0.2,1.2,0.1,1.7H304c0,0.4,0,0.8,0.1,1.1c0.1,0.3,0.3,0.7,0.5,0.9
		c0.2,0.3,0.5,0.5,0.9,0.6c0.4,0.2,0.8,0.2,1.2,0.2c0.6,0,1.1-0.1,1.5-0.4c0.4-0.3,0.6-0.7,0.8-1.3h1.4
		C310.2,346.2,309.8,346.9,309.2,347.4z M308.8,341.8c-0.1-0.3-0.3-0.6-0.5-0.8c-0.2-0.2-0.5-0.4-0.8-0.5s-0.6-0.2-1-0.2
		s-0.7,0.1-1,0.2s-0.6,0.3-0.8,0.5c-0.2,0.2-0.4,0.5-0.5,0.8c-0.1,0.3-0.2,0.6-0.2,1h5C309,342.4,308.9,342.1,308.8,341.8z"/>
	<path d="M313.5,339.2v1.9l0,0c0.4-0.7,0.8-1.2,1.3-1.6c0.5-0.3,1.2-0.5,1.9-0.5v1.5c-0.6,0-1.1,0.1-1.5,0.2c-0.4,0.1-0.7,0.4-1,0.7
		c-0.2,0.3-0.4,0.7-0.5,1.1c-0.1,0.4-0.2,0.9-0.2,1.5v3.9h-1.4v-8.8L313.5,339.2L313.5,339.2z"/>
</g>
</svg>
