<?xml version="1.0" encoding="utf-8"?>
<!-- Generator: Adobe Illustrator 21.1.0, SVG Export Plug-In . SVG Version: 6.00 Build 0)  -->
<svg version="1.1" id="Layer_1" xmlns="http://www.w3.org/2000/svg" xmlns:xlink="http://www.w3.org/1999/xlink" x="0px" y="0px"
	 viewBox="0 0 1749 1750" style="enable-background:new 0 0 1749 1750;" xml:space="preserve">
<style type="text/css">
	.st0{display:none;fill:#FFFFFF;}
	.st1{fill:#FFFFFF;}
</style>
<g>
	<path class="st0" d="M0,1750C0,1166.7,0,583.3,0,0c583,0,1166,0,1749,0c0,583.3,0,1166.7,0,1750C1166,1750,583,1750,0,1750z
		 M1739,874.6c0-477-386.7-864.2-863.4-864.6C397.7,9.7,10.2,396.4,10,873.9c-0.2,477.3,386.7,865,863.4,865.1
		C1351.8,1739.1,1739,1352.4,1739,874.6z"/>
	<path d="M1739,874.6c0,477.8-387.2,864.5-865.6,864.4C396.7,1738.9,9.8,1351.3,10,873.9C10.2,396.4,397.7,9.7,875.6,10
		C1352.3,10.3,1739,397.5,1739,874.6z M1724,868.3c-2.2-466.5-386.8-849-860.1-843.4C400,30.3,19.4,412.5,24.8,885
		c5.3,463.9,387.7,844.8,860.5,839.1C1349.1,1718.6,1728.2,1337.2,1724,868.3z"/>
	<path class="st1" d="M1724,868.3c4.2,468.9-374.9,850.3-838.6,855.9C412.5,1729.8,30.2,1348.9,24.8,885
		C19.4,412.5,400,30.3,863.9,24.8C1337.2,19.3,1721.8,401.7,1724,868.3z M284.1,705.4c-1.9-0.1-3.5-0.2-5.1-0.3
		c-22.6-1.2-40.3,7-50.3,27.9c-13.1,27.3-30.7,51.4-49.7,74.6c-2.2,2.7-4,6.1-5,9.5c-4.3,15.2-6.1,30.7-5.8,46.4
		c1,50.9,22.5,90.3,68.2,113.7c38.7,19.8,79.1,35.9,121,47.7c13.5,3.8,27.2,6.4,41.4,5.1c17.5-1.7,27.6-13.5,26.5-31.1
		c-0.7-10.7-4.2-20.5-8.9-29.9c-11.9-23.8-24.4-47.3-36.3-71.1c-12-23.8-23.8-47.6-35.3-71.6c-2.8-6-3.9-12.8-5.8-19.2
		c0.5-0.3,1-0.6,1.5-0.9c5.2,3.5,10.3,7.2,15.6,10.5c6.5,4,10.7,8,7.3,16.9c-2.6,7,2.8,11.6,10.5,10.4c3.8-0.6,7.5-1.6,11.3-2.1
		c3.9-0.5,5.4,1.7,4.1,5.4c-1.6,4.7-3.5,9.4-4.6,14.2c-6.1,25.9,9.8,40.2,34.5,37.9c2.7-0.3,5.5-2.1,7.6-4c3.3-3,6-6.6,9.6-10.6
		c29.3,28.2,58.3,56,87.8,84.4c-2.7,0.8-4.2,1.3-5.8,1.8c-10.9,3.1-21.8,6.2-32.6,9.3c-3.7,1.1-6.2,3.3-6.6,7.3
		c-0.4,3.9,1.3,6.7,4.7,8.6c1.7,1,3.5,2,5.2,3c8.3,4.7,16.6,9.5,25.3,14.4c-3.3,4.2-6.3,8.1-9.2,11.8c-6.9,8.8-13.8,17.6-20.6,26.4
		c-2.6,3.4-3,7.1-0.3,10.6c2.7,3.4,6.2,4.2,10.3,2.6c2-0.8,4-1.6,6-2.5c10.4-4.3,20.8-8.6,32.1-13.2c-0.3,3-0.5,5.1-0.8,7.2
		c-1.5,10.5-3.2,21.1-4.6,31.6c-1.2,9.1,3.7,13.1,12.6,10.3c6.2-1.9,12.4-4,18.5-5.9c5.6-1.8,11.2-3.5,17.1-5.4
		c2.3,10.9,4.5,21.1,6.7,31.4c2,9.4,5.8,11.5,14.9,8.1c7.9-2.9,15.8-5.9,24-9c2.1,11.5,4,22.5,6.1,33.4c1.2,6.3,5.7,8.8,11.8,6.9
		c1.7-0.5,3.4-1.2,5.2-1.9c9.8-3.5,19.6-7.1,29.6-10.7c1,1.8,1.8,3.3,2.5,4.7c5.8,11.4,11.5,22.9,17.6,34.2c1.6,2.9,1.5,4.8-0.3,7.5
		c-14.1,22.3-25.4,46-34.5,70.8c-18.3,49.6-27.8,101-30.4,153.7c-0.3,6.7-0.2,13.3-0.5,20c-1.2,25.1,13.6,40,33.2,46.6
		c16.7,5.6,33.9,6.7,51.3,5.4c3.4-0.2,5.4,0.6,7.5,3.4c11.1,15.1,23.7,28.8,39.1,39.8c18.4,13,38.4,20.5,61.3,17.6
		c19.2-2.4,35.4-11.3,49.8-23.7c5.4-4.6,10.3-9.8,14.4-13.6c14.8,9.4,28.6,19.3,43.5,27.3c17.8,9.6,37.2,13.6,57.5,9.4
		c21.7-4.5,37.8-17.3,50.9-34.6c1.3-1.7,3.8-3.6,5.8-3.7c17.6-0.8,32.5-7.8,45.9-18.7c15.9-13,27.4-29.3,37.2-47.1
		c2.7-4.8,4.3-9.7,3.8-15.2c-0.4-3.9,1.1-5.4,4.9-6.4c41.4-11.7,81.6-26.6,119.7-46.7c36.1-19,69.5-41.6,96-73.1
		c22.6-26.9,36.7-57.4,38.3-92.9c1.8-39.7-11.4-75.2-31.1-108.9c-2-3.4-5.2-4.7-9-4c-4.1,0.8-5.8,3.8-6.8,7.7
		c-3,11.9-5.3,24.1-9.7,35.5c-15.6,40.3-41.1,74.1-70.9,104.8c-37.8,38.9-81.2,70.4-127.6,98.1c-1.1,0.7-2.3,1.1-3.7,1.8
		c-7.1-123.3-42.2-238.5-95.7-350c8.9,0,16.7-0.3,24.4,0.1c12.9,0.7,15-4.8,12.7-15.5c-0.1-0.3-0.2-0.6-0.2-1
		c-1.8-11.1-3.7-22.3-5.5-33.6c13.6-4.1,26.9-8,40.1-12c8.5-2.6,10.3-5.9,7.3-14.5c-2.5-7.4-5.2-14.8-7.7-22.1c-2-5.8-4-11.5-6-17.5
		c12.3-5,24-9.7,35.6-14.5c6-2.5,7.7-7.1,4.8-12.9c-1.5-3-3.1-5.9-4.6-8.8c-4.7-8.9-9.4-17.9-14.2-27c12.9-6.7,25.2-13.2,37.6-19.6
		c7.9-4.1,8.7-10.3,2-16.1c-9.2-7.9-18.4-15.9-27.9-23.5c-3-2.4-3.4-4.4-1.8-7.9c6.1-13.1,12-26.3,17.8-39.6
		c3.3-7.5-0.3-12.9-8.5-13c-4.3,0-8.7,0.2-13,0.2c-11,0-21.9,0-33,0c0.3-2.2,0.7-4.9,1.1-7.5c2.2-13.6,4.4-27.3,6.5-40.9
		c1.1-7.6-2.6-11.4-10.1-10.9c-4.3,0.3-8.6,0.7-13,0.9c-7.6,0.5-15.2,1-23.5,1.5c3.4-12,6.6-23.4,9.8-34.7
		c2.9-10.2-0.2-13.9-10.9-13.7c-9.9,0.2-19.9,0-30.1,0c0-0.8-0.1-2.2,0-3.7c0.8-13.5,1.7-26.9,2.6-40.4c0.5-8-4-11.9-11.8-10.1
		c-6.6,1.5-13.2,3.3-19.9,4.9c-3.8,0.9-7.6,1.7-11.6,2.6c-2.9-10.9-5.8-21.1-8.5-31.4c-1-3.9-2.5-7.3-7-8.1
		c-4.4-0.8-7.2,1.4-9.7,4.7c-7.5,9.8-15.1,19.5-22.7,29.2c-2.2,2.8-4.5,5.6-6.8,8.4c-12.1-7.6-23.8-15.1-35.6-22.3
		c-6.1-3.8-12-1.4-13.5,5.2c-0.4,1.9-0.6,4-0.8,5.9c-0.6,4.7-1.2,9.5-1.8,14.3c-13-4.2-62.3-38.3-71.2-49c6.6-8.8,7.8-18.2,4.1-30.4
		c-3-9.9-9.1-16.9-19.6-18.3c-5.3-0.7-11,0.2-16.2,1.4c-5.2,1.2-10.2,3.7-15.2,5.6c-0.2-0.4-0.6-0.7-0.5-0.9
		c1-6.1,2.2-12.1,3.2-18.2c1.5-8.3-3.2-13.1-11.5-11.1c-4.7,1.1-9.2,3-13.7,4.4c-1.2,0.4-3,0.9-3.6,0.4
		c-5.8-5.7-11.5-11.6-17.9-18.2c2.7,0,4-0.1,5.4,0c31.4,2.4,62.8,4.4,94.1,7.5c29.3,2.9,58.5,6.5,87.1,14.2
		c14,3.8,26.5-1.2,35.3-13.1c8.4-11.4,8-23.6,1.1-35.7c-4.2-7.4-8.3-14.8-12.8-22c-34.1-55.3-78.5-101.1-130.4-139.9
		c-6.1-4.6-11.8-9.9-18.4-13.6c-13.1-7.4-27.8-9.8-42.7-11.2c-23.6-2.2-46.9-0.1-70.2,3.2c-2.7,0.4-5.6,1.5-7.6,3.2
		c-36.8,31.1-72.4,63.4-103.5,100.5c-10.8,12.9-21,26.4-27.4,42.1c-4.5,11.2-6.1,22.5,1,33.4c-0.4,0.4-0.5,0.7-0.8,0.9
		c-0.9,0.5-1.8,0.9-2.7,1.3c-57.7,24.5-105.2,62.2-144,111.2C336.2,550.3,309.3,610,292,674.3C289.2,684.6,286.8,694.9,284.1,705.4z
		"/>
	<path d="M284.1,705.4c2.6-10.5,5.1-20.8,7.9-31.1c17.4-64.3,44.2-124.1,85.8-176.6c38.7-49,86.3-86.7,144-111.2
		c0.9-0.4,1.8-0.8,2.7-1.3c0.3-0.1,0.5-0.5,0.8-0.9c-7.1-10.9-5.5-22.1-1-33.4c6.4-15.8,16.6-29.2,27.4-42.1
		c31-37.1,66.6-69.4,103.5-100.5c2-1.7,5-2.8,7.6-3.2c23.3-3.4,46.7-5.4,70.2-3.2c14.8,1.4,29.5,3.8,42.7,11.2
		c6.6,3.7,12.2,9.1,18.4,13.6c51.9,38.8,96.2,84.6,130.4,139.9c4.5,7.2,8.6,14.6,12.8,22c6.8,12.1,7.2,24.3-1.1,35.7
		c-8.7,11.9-21.3,16.9-35.3,13.1c-28.6-7.7-57.8-11.3-87.1-14.2c-31.3-3.1-62.7-5.1-94.1-7.5c-1.3-0.1-2.6,0-5.4,0
		c6.4,6.6,12,12.5,17.9,18.2c0.6,0.5,2.4,0,3.6-0.4c4.6-1.4,9.1-3.4,13.7-4.4c8.2-1.9,12.9,2.8,11.5,11.1
		c-1.1,6.1-2.2,12.1-3.2,18.2c0,0.2,0.3,0.5,0.5,0.9c5.1-1.9,10-4.4,15.2-5.6c5.3-1.2,11-2.1,16.2-1.4c10.5,1.3,16.6,8.4,19.6,18.3
		c3.7,12.2,2.5,21.6-4.1,30.4c8.9,10.7,58.2,44.8,71.2,49c0.6-4.8,1.2-9.6,1.8-14.3c0.2-2,0.4-4,0.8-5.9c1.4-6.6,7.3-9,13.5-5.2
		c11.8,7.2,23.4,14.7,35.6,22.3c2.2-2.8,4.5-5.6,6.8-8.4c7.6-9.7,15.2-19.4,22.7-29.2c2.5-3.3,5.3-5.5,9.7-4.7c4.5,0.8,6,4.2,7,8.1
		c2.7,10.3,5.5,20.5,8.5,31.4c4-0.9,7.8-1.7,11.6-2.6c6.6-1.6,13.2-3.3,19.9-4.9c7.7-1.8,12.3,2.2,11.8,10.1
		c-0.9,13.5-1.7,26.9-2.6,40.4c-0.1,1.5,0,2.9,0,3.7c10.2,0,20.1,0.2,30.1,0c10.6-0.2,13.7,3.5,10.9,13.7
		c-3.2,11.3-6.4,22.7-9.8,34.7c8.3-0.5,15.9-1,23.5-1.5c4.3-0.3,8.6-0.7,13-0.9c7.6-0.5,11.3,3.3,10.1,10.9
		c-2,13.7-4.3,27.3-6.5,40.9c-0.4,2.6-0.8,5.3-1.1,7.5c11.1,0,22,0,33,0c4.3,0,8.7-0.2,13-0.2c8.2,0,11.8,5.5,8.5,13
		c-5.8,13.2-11.7,26.5-17.8,39.6c-1.6,3.5-1.2,5.4,1.8,7.9c9.5,7.6,18.6,15.6,27.9,23.5c6.7,5.7,5.9,11.9-2,16.1
		c-12.4,6.5-24.8,12.9-37.6,19.6c4.8,9.2,9.5,18.1,14.2,27c1.5,2.9,3.2,5.9,4.6,8.8c2.9,5.8,1.2,10.4-4.8,12.9
		c-11.7,4.8-23.4,9.5-35.6,14.5c2.1,6,4,11.8,6,17.5c2.6,7.4,5.2,14.7,7.7,22.1c2.9,8.5,1.2,11.9-7.3,14.5c-13.2,4-26.4,7.9-40.1,12
		c1.9,11.4,3.7,22.5,5.5,33.6c0.1,0.3,0.1,0.7,0.2,1c2.3,10.7,0.2,16.2-12.7,15.5c-7.7-0.4-15.5-0.1-24.4-0.1
		c53.4,111.5,88.6,226.8,95.7,350c1.4-0.7,2.6-1.1,3.7-1.8c46.4-27.7,89.8-59.2,127.6-98.1c29.8-30.7,55.4-64.5,70.9-104.8
		c4.4-11.4,6.7-23.6,9.7-35.5c1-3.9,2.7-6.9,6.8-7.7c3.8-0.8,7,0.6,9,4c19.7,33.6,32.9,69.2,31.1,108.9
		c-1.6,35.5-15.7,66.1-38.3,92.9c-26.5,31.5-59.9,54.1-96,73.1c-38.2,20.1-78.3,35-119.7,46.7c-3.8,1.1-5.3,2.6-4.9,6.4
		c0.6,5.5-1.1,10.3-3.8,15.2c-9.8,17.8-21.4,34.2-37.2,47.1c-13.3,10.9-28.3,17.9-45.9,18.7c-2,0.1-4.4,2-5.8,3.7
		c-13.1,17.3-29.2,30.1-50.9,34.6c-20.3,4.2-39.7,0.2-57.5-9.4c-14.9-8-28.7-17.9-43.5-27.3c-4,3.9-9,9-14.4,13.6
		c-14.4,12.4-30.6,21.2-49.8,23.7c-23,2.9-43-4.6-61.3-17.6c-15.4-10.9-27.9-24.7-39.1-39.8c-2-2.8-4-3.6-7.5-3.4
		c-17.4,1.3-34.6,0.2-51.3-5.4c-19.6-6.6-34.4-21.4-33.2-46.6c0.3-6.7,0.2-13.3,0.5-20c2.6-52.7,12.1-104.1,30.4-153.7
		c9.1-24.7,20.4-48.5,34.5-70.8c1.7-2.7,1.8-4.6,0.3-7.5c-6.1-11.3-11.7-22.8-17.6-34.2c-0.7-1.5-1.6-2.9-2.5-4.7
		c-10,3.6-19.8,7.1-29.6,10.7c-1.7,0.6-3.4,1.3-5.2,1.9c-6.1,1.9-10.6-0.6-11.8-6.9c-2.1-10.9-4-21.9-6.1-33.4c-8.3,3.1-16.1,6-24,9
		c-9.1,3.4-12.9,1.3-14.9-8.1c-2.2-10.2-4.4-20.5-6.7-31.4c-5.9,1.9-11.5,3.6-17.1,5.4c-6.2,2-12.3,4-18.5,5.9
		c-8.9,2.8-13.8-1.2-12.6-10.3c1.4-10.6,3.1-21.1,4.6-31.6c0.3-2.1,0.5-4.2,0.8-7.2c-11.2,4.6-21.6,8.9-32.1,13.2
		c-2,0.8-4,1.7-6,2.5c-4,1.6-7.6,0.9-10.3-2.6c-2.7-3.5-2.3-7.2,0.3-10.6c6.9-8.8,13.8-17.6,20.6-26.4c3-3.8,5.9-7.6,9.2-11.8
		c-8.6-4.9-17-9.7-25.3-14.4c-1.7-1-3.5-2-5.2-3c-3.4-1.9-5.1-4.7-4.7-8.6c0.5-3.9,3-6.2,6.6-7.3c10.9-3.1,21.8-6.2,32.6-9.3
		c1.6-0.4,3.1-1,5.8-1.8c-29.5-28.4-58.5-56.2-87.8-84.4c-3.6,4-6.3,7.6-9.6,10.6c-2.1,1.9-5,3.7-7.6,4c-24.7,2.3-40.6-12-34.5-37.9
		c1.1-4.8,3-9.5,4.6-14.2c1.3-3.7-0.2-5.8-4.1-5.4c-3.8,0.5-7.5,1.5-11.3,2.1c-7.7,1.2-13.1-3.4-10.5-10.4c3.3-9-0.8-13-7.3-16.9
		c-5.3-3.3-10.4-7-15.6-10.5c-0.5,0.3-1,0.6-1.5,0.9c1.9,6.4,3,13.2,5.8,19.2c11.5,24,23.3,47.8,35.3,71.6
		c12,23.8,24.4,47.3,36.3,71.1c4.7,9.4,8.2,19.2,8.9,29.9c1.1,17.6-8.9,29.4-26.5,31.1c-14.2,1.3-27.9-1.3-41.4-5.1
		c-41.9-11.8-82.4-27.9-121-47.7c-45.7-23.4-67.1-62.8-68.2-113.7c-0.3-15.7,1.5-31.3,5.8-46.4c1-3.4,2.7-6.8,5-9.5
		c19-23.3,36.6-47.3,49.7-74.6c10-20.9,27.7-29.1,50.3-27.9C280.6,705.2,282.3,705.3,284.1,705.4z M829.9,1146.8
		c0-13.3,0-26.3,0-39.3c0-7.7,4.8-11.3,12.2-8.8c4.6,1.5,9.1,3.2,13.7,4.8c9.3,3.3,18.7,6.5,28.4,9.9c0.3-1.8,0.6-2.9,0.7-4
		c1.4-12.7,2.7-25.5,4.1-38.2c0.8-7.1,4.7-10.1,11.5-8.7c8.1,1.7,16.3,3.5,24.4,5.2c9.2,1.9,18.4,3.8,28,5.8c0-2,0.1-3.3,0-4.6
		c-1-12.3-2-24.6-3.1-36.8c-0.7-8.8,3.5-12.6,12-10.7c7.6,1.7,15.2,3.5,22.9,5.2c7,1.6,14.1,3.1,21.7,4.8c-2.8-14-5.4-27-8-40.1
		c-1.6-8.1,1.7-12.1,9.9-12.2c7.7-0.1,15.3-0.1,23-0.2c7.2,0,14.5,0,21.9,0c-0.1-2.3-0.1-3.3-0.3-4.3c-1.8-10.7-3.6-21.3-5.4-32
		c-1.2-6.9,0.6-9.9,7.3-12c2.8-0.9,5.7-1.7,8.6-2.6c10.3-3.1,20.6-6.2,31-9.4c-0.3-1.3-0.5-2.1-0.8-2.9
		c-4.2-12.1-8.4-24.2-12.7-36.3c-2.7-7.7-1.2-11.2,6.2-14.1c6.3-2.6,12.7-5.1,19-7.6c4.7-1.9,9.3-3.9,14.2-5.9
		c-6.1-11.6-12-22.6-17.8-33.6c-3.7-7.1-2.5-11,4.5-14.7c4.3-2.2,8.6-4.4,12.9-6.6c6.8-3.6,13.7-7.2,21-11.1
		c-9.1-7.7-17.6-14.9-26.2-22.1c-5.5-4.7-6.2-7.4-3.4-13.9c4.8-10.8,9.6-21.6,14.5-32.3c0.6-1.3,1-2.6,1.3-3.3
		c-13.6,0-26.9,0-40.2,0c-10.2,0-12.8-3.2-11.1-13.1c2.5-15.4,4.9-30.8,7.3-46.7c-2.1,0.1-3.7,0.2-5.3,0.3
		c-11.1,0.8-22.2,1.8-33.4,2.4c-7.2,0.4-10.8-4.3-9.1-11.3c0.7-3.1,1.7-6.1,2.6-9.1c2.6-9.4,5.3-18.7,8.1-28.5
		c-10.2,0.5-19.6,1-29.1,1.5c-7.6,0.4-10.9-2.7-10.7-10.2c0.2-4.7,0.5-9.3,0.8-14c0.5-9.7,1.1-19.5,1.6-29.9
		c-9.4,2.3-17.9,4.4-26.5,6.5c-8.9,2.2-11.7,0.5-14.1-8.2c-2-7.1-3.9-14.2-6-22c-1.6,1.8-2.6,3.1-3.7,4.3
		c-6.9,8.8-13.7,17.6-20.6,26.4c-3.9,5-7.6,5.6-13,2.3c-4-2.4-7.9-5-11.8-7.5c-6-3.8-12-7.5-18.4-11.5c-0.4,1.6-0.7,2.5-0.8,3.5
		c-1.5,12.6-3.3,25.1-4.2,37.7c-0.7,10.4-4,18.7-11.3,26.6c-29.6,32.3-58.4,65.3-87.7,97.8c-3.4,3.7-4.5,7.5-4.8,12.4
		c-0.7,15.9-1.7,31.9-3.4,47.8c-3.4,31.4-19.6,53.2-48.9,65.7c-18.9,8.1-38.3,14.3-58.3,19c-3,0.7-6.2,2.5-8.2,4.8
		c-32.2,35.8-64.2,71.7-96.1,107.8c-4.3,4.8-8.9,7.9-15.2,9.5c-15.1,3.9-30.1,8.4-46.2,13c7.5,4.3,14.1,8,20.7,11.8
		c6.2,3.6,7.2,8.4,3.1,14.1c-1.2,1.6-2.4,3.2-3.7,4.7c-3.5,4.5-7,8.9-11.3,14.4c2.1-0.4,2.8-0.4,3.4-0.6c6-2.5,11.9-5.1,18-7.4
		c7.3-2.7,12.9,1.7,12,9.3c-0.5,4.3-1.2,8.6-1.9,12.9c-1.4,9.3-2.7,18.6-4.2,28.5c11.4-3.6,22-7.1,32.6-10.4
		c6.5-2,10.7,0.5,12.2,7.1c0.7,3.3,1.3,6.5,2,9.8c1.6,7.6,3.3,15.1,5,23c9.4-3.5,18.1-6.9,26.9-10c6.1-2.1,10.6,0.5,11.9,6.8
		c0.5,2.4,0.8,4.9,1.3,7.4c1.6,8.6,3.1,17.3,4.8,26.2c10.9-3.9,21.2-7.7,31.5-11.3c6.3-2.2,9.7-0.9,12.7,4.9
		c3.4,6.5,6.6,13.1,9.9,19.6c2.6,5.1,5.3,10.1,8.1,15.6c6.9-6.4,13.2-12.3,19.6-18.2c5.6-5.1,10.7-4.5,15,1.7
		c5.7,8.4,11.4,16.8,17.2,25.2c0.7,1,1.6,1.9,2.7,3.2c6.5-14.7,12.6-28.9,18.9-43.1c3.4-7.7,6.8-9,14.6-5.8
		C804.7,1136.2,817.6,1141.6,829.9,1146.8z M517.3,768.2c-6.9-11.2-15-21-25.7-28.5c-7.5-5.2-15.7-8.8-24.8-9.8
		c-31-3.4-54.8,12.3-78.1,29.3c4.7-0.4,9.3-1.6,13.9-1.7c8.3-0.2,16.6,0.1,24.9,0.7c4.2,0.3,7,3.1,7.4,7.6c0.4,4.4-1.9,7.2-5.8,8.9
		c-1.2,0.5-2.5,0.9-3.7,1.4c-21.8,9.4-33.9,27.1-42.4,49.1c7.9-1.5,14.9-2.7,21.9-4.3c4.3-1,8-0.8,10.7,3c2.8,3.9,1.2,7.4-0.7,11.1
		c-4.2,8.1-8.5,16.2-12,24.6c-1.8,4.3-2.2,9.3-2.5,14.1c-0.3,4.3,2.6,7.1,6.7,8.2c4.2,1.2,7.9,2,11.6-2.2
		c19.9-22.9,40.1-45.4,60.3-68.1C491.6,797.2,504.4,782.7,517.3,768.2z M688.3,595.9c1.6-1.8,2.9-3.5,4.4-5
		c12.8-13.1,25.6-26.2,38.5-39.2c19.8-20.2,39.7-40.4,59.4-60.6c4.3-4.5,4.7-13,1-18.7c-2.4-3.8-6.6-5.2-13.5-2.3
		c-9.1,3.9-17.8,8.9-26.4,13.8c-3.8,2.1-7.2,3.6-11.1,1.1c-4-2.6-4.1-6.5-3.3-10.7c1.5-8,3-15.9,4.5-24.5c-1.4,0.5-2.3,0.7-3.2,1.1
		c-20.7,9.6-35.2,24.7-42.1,46.7c-1.4,4.5-4,7.3-9,7c-4.9-0.3-7.7-3.3-7.9-8.1c-0.3-8.9-0.2-17.9-0.2-26.9c0-2,0.4-4,0.7-5.9
		c0.3-2,0.5-3.9,0.8-5.9c-11,15-19,31.1-23.8,48.7C647.7,541.8,658.9,574.8,688.3,595.9z"/>
	<path class="st1" d="M829.9,1146.8c-12.4-5.2-25.2-10.6-38-16c-7.7-3.2-11.2-1.9-14.6,5.8c-6.2,14.2-12.4,28.3-18.9,43.1
		c-1.1-1.3-2-2.2-2.7-3.2c-5.7-8.4-11.4-16.8-17.2-25.2c-4.3-6.3-9.4-6.8-15-1.7c-6.4,5.8-12.7,11.8-19.6,18.2
		c-2.8-5.4-5.5-10.5-8.1-15.6c-3.3-6.5-6.6-13.1-9.9-19.6c-3-5.9-6.4-7.2-12.7-4.9c-10.3,3.7-20.6,7.4-31.5,11.3
		c-1.6-8.9-3.2-17.6-4.8-26.2c-0.4-2.5-0.7-4.9-1.3-7.4c-1.4-6.3-5.8-9-11.9-6.8c-8.8,3.1-17.5,6.5-26.9,10c-1.7-7.9-3.3-15.5-5-23
		c-0.7-3.3-1.3-6.5-2-9.8c-1.5-6.7-5.7-9.2-12.2-7.1c-10.6,3.3-21.2,6.8-32.6,10.4c1.5-9.9,2.8-19.2,4.2-28.5
		c0.6-4.3,1.4-8.6,1.9-12.9c0.8-7.7-4.7-12.1-12-9.3c-6.1,2.3-12,5-18,7.4c-0.6,0.2-1.2,0.2-3.4,0.6c4.3-5.5,7.8-9.9,11.3-14.4
		c1.2-1.6,2.5-3.1,3.7-4.7c4.1-5.7,3.1-10.5-3.1-14.1c-6.6-3.8-13.2-7.6-20.7-11.8c16.1-4.6,31-9.1,46.2-13
		c6.3-1.6,10.9-4.7,15.2-9.5c31.9-36.1,63.9-72,96.1-107.8c2-2.3,5.2-4.1,8.2-4.8c20-4.6,39.4-10.9,58.3-19
		c29.3-12.5,45.5-34.3,48.9-65.7c1.7-15.9,2.7-31.8,3.4-47.8c0.2-5,1.4-8.7,4.8-12.4c29.3-32.6,58.1-65.6,87.7-97.8
		c7.3-7.9,10.5-16.3,11.3-26.6c0.9-12.6,2.7-25.2,4.2-37.7c0.1-1,0.5-1.9,0.8-3.5c6.3,4,12.4,7.7,18.4,11.5c3.9,2.5,7.8,5,11.8,7.5
		c5.4,3.3,9.1,2.7,13-2.3c6.9-8.8,13.7-17.6,20.6-26.4c1-1.3,2.1-2.5,3.7-4.3c2.1,7.8,4.1,14.9,6,22c2.4,8.8,5.2,10.4,14.1,8.2
		c8.5-2.1,17.1-4.2,26.5-6.5c-0.6,10.4-1.1,20.1-1.6,29.9c-0.3,4.7-0.6,9.3-0.8,14c-0.2,7.5,3.1,10.6,10.7,10.2
		c9.5-0.5,18.9-0.9,29.1-1.5c-2.8,9.8-5.4,19.2-8.1,28.5c-0.9,3-1.9,6.1-2.6,9.1c-1.7,7,2,11.7,9.1,11.3c11.1-0.6,22.2-1.6,33.4-2.4
		c1.6-0.1,3.2-0.2,5.3-0.3c-2.5,15.9-4.8,31.3-7.3,46.7c-1.6,10,1,13.2,11.1,13.1c13.3,0,26.6,0,40.2,0c-0.3,0.7-0.7,2.1-1.3,3.3
		c-4.8,10.8-9.7,21.5-14.5,32.3c-2.9,6.5-2.2,9.3,3.4,13.9c8.5,7.2,17,14.4,26.2,22.1c-7.3,3.9-14.2,7.5-21,11.1
		c-4.3,2.2-8.6,4.4-12.9,6.6c-7,3.6-8.2,7.6-4.5,14.7c5.8,11,11.7,22,17.8,33.6c-4.8,2-9.5,4-14.2,5.9c-6.3,2.6-12.7,5.1-19,7.6
		c-7.3,3-8.8,6.5-6.2,14.1c4.2,12.1,8.4,24.2,12.7,36.3c0.3,0.8,0.4,1.6,0.8,2.9c-10.5,3.2-20.7,6.3-31,9.4
		c-2.9,0.9-5.8,1.7-8.6,2.6c-6.6,2.1-8.4,5.1-7.3,12c1.8,10.7,3.6,21.3,5.4,32c0.2,1,0.1,2,0.3,4.3c-7.4,0-14.6,0-21.9,0
		c-7.7,0-15.3,0.1-23,0.2c-8.2,0.1-11.5,4.1-9.9,12.2c2.6,13.1,5.2,26.1,8,40.1c-7.6-1.7-14.6-3.2-21.7-4.8
		c-7.6-1.7-15.2-3.5-22.9-5.2c-8.5-1.9-12.7,1.9-12,10.7c1,12.3,2.1,24.6,3.1,36.8c0.1,1.3,0,2.6,0,4.6c-9.5-2-18.8-3.9-28-5.8
		c-8.1-1.7-16.3-3.5-24.4-5.2c-6.8-1.4-10.8,1.6-11.5,8.7c-1.4,12.7-2.7,25.5-4.1,38.2c-0.1,1.1-0.4,2.2-0.7,4
		c-9.7-3.4-19-6.6-28.4-9.9c-4.6-1.6-9.1-3.3-13.7-4.8c-7.4-2.4-12.2,1.1-12.2,8.8C830,1120.5,829.9,1133.4,829.9,1146.8z
		 M893.9,965.2c1.1,7.9,8.4,12,15.5,8.2c8.9-4.8,15.1-12.3,19-21.7c0.7-1.6,0.8-3.6,0.6-5.4c-0.6-3.9-2.8-6.7-6.8-7.7
		c-3.8-0.9-7.6-0.1-9,3.4c-2.8,6.9-8.7,10.6-13.8,15.4C897,959.6,895.6,962.6,893.9,965.2z"/>
	<path class="st1" d="M517.3,768.2c-12.9,14.6-25.7,29-38.5,43.5c-20.1,22.7-40.4,45.2-60.3,68.1c-3.7,4.3-7.4,3.4-11.6,2.2
		c-4.1-1.1-7-3.9-6.7-8.2c0.3-4.8,0.7-9.8,2.5-14.1c3.5-8.4,7.7-16.5,12-24.6c2-3.8,3.5-7.3,0.7-11.1c-2.7-3.8-6.4-4-10.7-3
		c-6.9,1.6-14,2.8-21.9,4.3c8.5-22,20.5-39.8,42.4-49.1c1.2-0.5,2.5-0.9,3.7-1.4c4-1.6,6.2-4.5,5.8-8.9c-0.4-4.4-3.2-7.2-7.4-7.6
		c-8.3-0.6-16.6-0.9-24.9-0.7c-4.6,0.1-9.2,1.3-13.9,1.7c23.3-17,47.1-32.8,78.1-29.3c9.1,1,17.3,4.6,24.8,9.8
		C502.3,747.1,510.4,756.9,517.3,768.2z"/>
	<path class="st1" d="M688.3,595.9c-29.4-21.1-40.6-54.1-31-89.5c4.8-17.6,12.8-33.7,23.8-48.7c-0.3,2-0.5,3.9-0.8,5.9
		c-0.3,2-0.7,4-0.7,5.9c0,9-0.1,17.9,0.2,26.9c0.2,4.8,3,7.8,7.9,8.1c4.9,0.3,7.6-2.5,9-7c6.8-22,21.4-37.1,42.1-46.7
		c0.8-0.4,1.8-0.6,3.2-1.1c-1.6,8.5-3,16.5-4.5,24.5c-0.8,4.2-0.7,8.1,3.3,10.7c3.9,2.6,7.3,1.1,11.1-1.1
		c8.6-4.9,17.3-9.9,26.4-13.8c6.8-2.9,11.1-1.5,13.5,2.3c3.7,5.7,3.3,14.3-1,18.7c-19.8,20.2-39.6,40.4-59.4,60.6
		c-12.8,13.1-25.7,26.1-38.5,39.2C691.2,592.4,689.9,594.1,688.3,595.9z"/>
	<path d="M893.9,965.2c1.8-2.6,3.1-5.7,5.4-7.8c5.1-4.7,11-8.4,13.8-15.4c1.4-3.5,5.3-4.3,9-3.4c4,1,6.2,3.8,6.8,7.7
		c0.3,1.7,0.1,3.8-0.6,5.4c-3.8,9.3-10.1,16.8-19,21.7C902.3,977.3,894.9,973.1,893.9,965.2z"/>
</g>
</svg>
