<?xml version="1.0" encoding="utf-8"?>
<!-- Generator: Adobe Illustrator 21.1.0, SVG Export Plug-In . SVG Version: 6.00 Build 0)  -->
<svg version="1.1" id="Layer_1" xmlns="http://www.w3.org/2000/svg" xmlns:xlink="http://www.w3.org/1999/xlink" x="0px" y="0px"
	 viewBox="0 0 203.5 48.3" style="enable-background:new 0 0 203.5 48.3;" xml:space="preserve">
<style type="text/css">
	.st0{fill:#FFFFFF;}
</style>
<g id="Title">
	<g>
		<path class="st0" d="M19.5,4.5h-7.7v20.9H7.6V4.5H0V0.3h19.5L19.5,4.5L19.5,4.5z"/>
		<path class="st0" d="M41.8,25.4h-4.9l-1.7-4.2H26l-1.7,4.2h-4.9L30.6,0.3L41.8,25.4z M27.8,17h5.7l-2.8-7L27.8,17z"/>
		<path class="st0" d="M45.8,12c-1.6-1.7-1.9-3.2-1.9-5c0-3.8,4.1-7,8-7c3.8,0,8,2.9,8,5.6L55.7,7c0-1.5-1.7-2.8-3.8-2.8
			S48.1,5.5,48.1,7s1.6,2.7,3.8,3.1c2.5,0.4,3.6,0.7,4.8,1.2c1.9,0.8,3.9,2.5,3.9,6.8s-4.4,7.7-8.6,7.7c-4.2,0-8.7-3-8.7-6.3
			l4.2-1.4c0,1.9,2.6,3.5,4.5,3.5c2,0,4.5-1.6,4.5-3.5c0-2.5-2.5-3.2-4.5-3.8C49.2,13.5,47.1,13.3,45.8,12z"/>
		<path class="st0" d="M64.7,0.3h4.2v10.5h11.2V0.3h4.2v25.1h-4.2V14.9H68.9v10.5h-4.2V0.3z"/>
		<path class="st0" d="M110.1,25.4h-4.9l-1.7-4.2h-9.2l-1.7,4.2h-4.9L98.9,0.3L110.1,25.4z M96.1,17h5.7L99,10L96.1,17z"/>
		<path class="st0" d="M127,0.3c6.9,0.1,12.4,5.7,12.4,12.6s-5.5,12.5-12.4,12.6h-7.1V0.4h7.1V0.3z M127,4.5h-3v16.7h3
			c4.5-0.1,8.2-3.8,8.2-8.4C135.2,8.3,131.5,4.5,127,4.5z"/>
		<path class="st0" d="M148.4,0.3v25.1h-4.1V0.3H148.4z"/>
		<path class="st0" d="M163.1,25.4L151.9,0.3h4.9l6.3,15.3l6.3-15.3h4.9L163.1,25.4z"/>
		<path class="st0" d="M181.9,0.3v25.1h-4.2V0.3H181.9z"/>
		<path class="st0" d="M188.7,12c-1.6-1.7-1.9-3.2-1.9-5c0-3.8,4.1-7,8-7c3.8,0,8,2.9,8,5.6L198.6,7c0-1.5-1.7-2.8-3.8-2.8
			S191,5.5,191,7s1.6,2.7,3.8,3.1c2.5,0.4,3.6,0.7,4.8,1.2c1.9,0.8,3.9,2.5,3.9,6.8s-4.4,7.7-8.6,7.7s-8.7-3-8.7-6.3l4.2-1.4
			c0,1.9,2.6,3.5,4.5,3.5c2,0,4.5-1.6,4.5-3.5c0-2.5-2.5-3.2-4.5-3.8C192.1,13.5,190,13.3,188.7,12z"/>
	</g>
	<g>
		<path class="st0" d="M12,32.7v1.4H5.6V38h5.6v1.4H5.6V45H4V32.9h8V32.7z"/>
		<path class="st0" d="M15.1,36v1.9l0,0c0.4-0.7,0.8-1.2,1.3-1.6c0.5-0.3,1.2-0.5,1.9-0.5v1.5c-0.6,0-1.1,0.1-1.5,0.2
			s-0.7,0.4-1,0.7c-0.2,0.3-0.4,0.7-0.5,1.1s-0.2,0.9-0.2,1.5v3.9h-1.4v-8.8L15.1,36L15.1,36z"/>
		<path class="st0" d="M19.1,38.6c0.2-0.6,0.5-1,0.8-1.5c0.4-0.4,0.8-0.7,1.3-1c0.5-0.2,1.1-0.4,1.8-0.4s1.3,0.1,1.8,0.4
			c0.5,0.2,1,0.6,1.3,1c0.4,0.4,0.6,0.9,0.8,1.5s0.3,1.2,0.3,1.8c0,0.6-0.1,1.2-0.3,1.8c-0.2,0.6-0.5,1-0.8,1.5
			c-0.4,0.4-0.8,0.7-1.3,1C24.3,44.9,23.7,45,23,45s-1.3-0.1-1.8-0.3c-0.5-0.2-1-0.6-1.3-1c-0.4-0.4-0.6-0.9-0.8-1.5
			s-0.3-1.2-0.3-1.8S18.9,39.2,19.1,38.6z M20.5,41.8c0.1,0.4,0.3,0.8,0.6,1s0.5,0.5,0.9,0.6c0.3,0.1,0.7,0.2,1.1,0.2
			c0.4,0,0.7-0.1,1.1-0.2c0.3-0.1,0.6-0.4,0.9-0.6c0.2-0.3,0.4-0.6,0.6-1c0.1-0.4,0.2-0.9,0.2-1.4s-0.1-1-0.2-1.4
			c-0.1-0.4-0.3-0.8-0.6-1c-0.2-0.3-0.5-0.5-0.9-0.6c-0.3-0.1-0.7-0.2-1.1-0.2c-0.4,0-0.7,0.1-1.1,0.2c-0.3,0.1-0.6,0.4-0.9,0.6
			s-0.4,0.6-0.6,1c-0.1,0.4-0.2,0.9-0.2,1.4C20.3,41,20.4,41.4,20.5,41.8z"/>
		<path class="st0" d="M30.5,36v1.4l0,0c0.6-1.1,1.6-1.6,2.9-1.6c0.6,0,1.1,0.1,1.4,0.2c0.4,0.2,0.7,0.4,0.9,0.7
			c0.2,0.3,0.4,0.6,0.5,1s0.1,0.8,0.1,1.3v5.8h-1.4v-5.9c0-0.5-0.2-1-0.5-1.3s-0.8-0.5-1.3-0.5c-0.4,0-0.8,0.1-1.1,0.2
			s-0.6,0.3-0.8,0.6c-0.2,0.2-0.4,0.5-0.5,0.9c-0.1,0.3-0.2,0.7-0.2,1.1v5h-1.4v-8.8h1.4L30.5,36L30.5,36z"/>
		<path class="st0" d="M42.6,36v1.3h-1.8v5.5c0,0.2,0,0.3,0,0.4s0.1,0.2,0.2,0.2c0.1,0.1,0.2,0.1,0.3,0.1s0.3,0,0.6,0h0.7v1.3h-1.1
			c-0.4,0-0.7,0-1-0.1s-0.5-0.1-0.6-0.3c-0.2-0.1-0.3-0.3-0.4-0.6c-0.1-0.3-0.1-0.6-0.1-1v-5.6h-1.5v-1.3h1.5v-2.6h1.4v2.6h1.8
			L42.6,36L42.6,36z"/>
		<path class="st0" d="M49,39.4v1.4h-4.9v-1.4H49z"/>
		<path class="st0" d="M59.7,32.7v1.4h-6.8V38h6.4v1.4H53v4.2h6.8V45h-8.5V32.9h8.4V32.7z"/>
		<path class="st0" d="M63,36v1.4l0,0c0.6-1.1,1.6-1.6,2.9-1.6c0.6,0,1.1,0.1,1.4,0.2s0.7,0.4,0.9,0.7c0.2,0.3,0.4,0.6,0.5,1
			s0.1,0.8,0.1,1.3v5.8h-1.4v-5.9c0-0.5-0.2-1-0.5-1.3s-0.8-0.5-1.3-0.5c-0.4,0-0.8,0.1-1.1,0.2s-0.6,0.3-0.8,0.6
			c-0.2,0.2-0.4,0.5-0.5,0.9c-0.1,0.3-0.2,0.7-0.2,1.1v5h-1.4v-8.8H63L63,36L63,36z"/>
		<path class="st0" d="M77.7,44.8v-1.2l0,0c-0.2,0.5-0.6,0.8-1.1,1.1c-0.5,0.2-1.1,0.3-1.7,0.3c-0.7,0-1.3-0.1-1.8-0.4
			c-0.5-0.2-0.9-0.6-1.3-1c-0.3-0.4-0.6-0.9-0.8-1.5s-0.3-1.1-0.3-1.8c0-0.6,0.1-1.2,0.2-1.8c0.2-0.6,0.4-1,0.7-1.5
			c0.3-0.4,0.8-0.7,1.3-1c0.5-0.2,1.1-0.4,1.8-0.4c0.2,0,0.5,0,0.7,0.1s0.5,0.1,0.8,0.2s0.5,0.2,0.7,0.4c0.2,0.2,0.4,0.4,0.6,0.7
			l0,0v-4.5h1.4v12.3H77.7z M72.5,41.7c0.1,0.4,0.3,0.7,0.5,1s0.5,0.5,0.8,0.7s0.8,0.3,1.2,0.3c0.5,0,0.9-0.1,1.2-0.3
			c0.3-0.2,0.6-0.4,0.8-0.8c0.2-0.3,0.4-0.7,0.5-1.1s0.1-0.8,0.1-1.2c0-0.4-0.1-0.8-0.2-1.2c-0.1-0.4-0.3-0.8-0.5-1.1
			c-0.2-0.3-0.5-0.6-0.9-0.7c-0.4-0.2-0.8-0.3-1.3-0.3s-0.9,0.1-1.2,0.3c-0.3,0.2-0.6,0.4-0.8,0.8c-0.2,0.3-0.4,0.7-0.4,1.1
			c-0.1,0.4-0.1,0.8-0.1,1.3C72.3,40.9,72.4,41.3,72.5,41.7z"/>
		<path class="st0" d="M95.9,44.8l-2.8-10.2l0,0l-2.8,10.2h-1.7l-3.1-12.1h1.6l2.4,10.1l0,0l2.7-10.1H94l2.7,10.1l0,0l2.5-10.1h1.6
			l-3.2,12.1H95.9z"/>
		<path class="st0" d="M107.5,44.2c-0.7,0.5-1.5,0.7-2.5,0.7c-0.7,0-1.3-0.1-1.8-0.3c-0.5-0.2-0.9-0.5-1.3-1
			c-0.4-0.4-0.6-0.9-0.8-1.5s-0.3-1.2-0.3-1.9c0-0.7,0.1-1.3,0.3-1.8c0.2-0.6,0.5-1,0.9-1.4s0.8-0.7,1.3-1c0.5-0.2,1.1-0.3,1.7-0.3
			c0.8,0,1.4,0.2,1.9,0.5s0.9,0.7,1.2,1.2s0.5,1,0.6,1.6s0.2,1.2,0.1,1.7h-6.6c0,0.4,0,0.8,0.1,1.1c0.1,0.3,0.3,0.7,0.5,0.9
			c0.2,0.3,0.5,0.5,0.9,0.6s0.8,0.2,1.2,0.2c0.6,0,1.1-0.1,1.5-0.4s0.6-0.7,0.8-1.3h1.4C108.6,43,108.2,43.7,107.5,44.2z
			 M107.2,38.6c-0.1-0.3-0.3-0.6-0.5-0.8c-0.2-0.2-0.5-0.4-0.8-0.5s-0.6-0.2-1-0.2s-0.7,0.1-1,0.2s-0.6,0.3-0.8,0.5
			s-0.4,0.5-0.5,0.8s-0.2,0.6-0.2,1h5C107.4,39.2,107.3,38.9,107.2,38.6z"/>
		<path class="st0" d="M112.1,32.7v4.5l0,0c0.2-0.5,0.6-0.8,1.1-1.1c0.5-0.2,1.1-0.3,1.7-0.3c0.7,0,1.3,0.1,1.8,0.4s0.9,0.6,1.3,1
			c0.3,0.4,0.6,0.9,0.8,1.5s0.3,1.1,0.3,1.8c0,0.6-0.1,1.2-0.2,1.8c-0.2,0.6-0.4,1-0.7,1.5c-0.3,0.4-0.8,0.7-1.3,1
			c-0.5,0.2-1.1,0.4-1.8,0.4c-0.2,0-0.5,0-0.7-0.1c-0.3,0-0.5-0.1-0.8-0.2s-0.5-0.2-0.7-0.4c-0.2-0.2-0.4-0.4-0.6-0.7l0,0V45h-1.4
			V32.9h1.2L112.1,32.7L112.1,32.7z M117.3,39.1c-0.1-0.4-0.3-0.7-0.5-1s-0.5-0.5-0.8-0.7s-0.8-0.3-1.2-0.3c-0.5,0-0.9,0.1-1.2,0.3
			c-0.3,0.2-0.6,0.4-0.8,0.8s-0.4,0.7-0.5,1.1s-0.1,0.8-0.1,1.2c0,0.4,0.1,0.8,0.2,1.2c0.1,0.4,0.3,0.8,0.5,1.1
			c0.2,0.3,0.5,0.6,0.9,0.7c0.4,0.2,0.8,0.3,1.3,0.3s0.9-0.1,1.2-0.3c0.3-0.2,0.6-0.4,0.8-0.8c0.2-0.3,0.4-0.7,0.4-1.1
			c0.1-0.4,0.1-0.8,0.1-1.3C117.5,39.9,117.4,39.5,117.3,39.1z"/>
		<path class="st0" d="M130.2,32.7c1.9,0,3.3,0.5,4.3,1.4c1,1,1.5,2.4,1.5,4.3c0,1-0.1,1.9-0.3,2.7c-0.2,0.8-0.6,1.4-1.1,2
			c-0.5,0.5-1.1,0.9-1.8,1.2c-0.7,0.3-1.6,0.4-2.6,0.4H126V32.6h4.2V32.7L130.2,32.7z M130.3,43.4c0.2,0,0.4,0,0.7,0
			c0.3,0,0.6-0.1,0.9-0.2s0.6-0.3,0.9-0.5s0.6-0.5,0.8-0.8c0.2-0.4,0.4-0.8,0.6-1.3s0.2-1.2,0.2-1.9c0-0.7-0.1-1.4-0.2-1.9
			c-0.1-0.6-0.4-1.1-0.7-1.5c-0.3-0.4-0.7-0.7-1.2-0.9c-0.5-0.2-1.1-0.3-1.9-0.3h-2.7v9.4h2.6L130.3,43.4L130.3,43.4z"/>
		<path class="st0" d="M144.1,44.2c-0.7,0.5-1.5,0.7-2.5,0.7c-0.7,0-1.3-0.1-1.8-0.3c-0.5-0.2-0.9-0.5-1.3-1
			c-0.4-0.4-0.6-0.9-0.8-1.5c-0.2-0.6-0.3-1.2-0.3-1.9c0-0.7,0.1-1.3,0.3-1.8c0.2-0.6,0.5-1,0.9-1.4s0.8-0.7,1.3-1
			c0.5-0.2,1.1-0.3,1.7-0.3c0.8,0,1.4,0.2,1.9,0.5s0.9,0.7,1.2,1.2c0.3,0.5,0.5,1,0.6,1.6s0.2,1.2,0.1,1.7h-6.6c0,0.4,0,0.8,0.1,1.1
			c0.1,0.3,0.3,0.7,0.5,0.9c0.2,0.3,0.5,0.5,0.9,0.6s0.8,0.2,1.2,0.2c0.6,0,1.1-0.1,1.5-0.4s0.6-0.7,0.8-1.3h1.4
			C145.2,43,144.8,43.7,144.1,44.2z M143.8,38.6c-0.1-0.3-0.3-0.6-0.5-0.8c-0.2-0.2-0.5-0.4-0.8-0.5s-0.6-0.2-1-0.2s-0.7,0.1-1,0.2
			c-0.3,0.1-0.6,0.3-0.8,0.5c-0.2,0.2-0.4,0.5-0.5,0.8s-0.2,0.6-0.2,1h5C144,39.2,143.9,38.9,143.8,38.6z"/>
		<path class="st0" d="M149.6,44.8l-3.3-8.8h1.6l2.5,7.3l0,0l2.4-7.3h1.5l-3.2,8.8H149.6z"/>
		<path class="st0" d="M162.1,44.2c-0.7,0.5-1.5,0.7-2.5,0.7c-0.7,0-1.3-0.1-1.8-0.3c-0.5-0.2-0.9-0.5-1.3-1
			c-0.4-0.4-0.6-0.9-0.8-1.5s-0.3-1.2-0.3-1.9c0-0.7,0.1-1.3,0.3-1.8c0.2-0.6,0.5-1,0.9-1.4s0.8-0.7,1.3-1c0.5-0.2,1.1-0.3,1.7-0.3
			c0.8,0,1.4,0.2,1.9,0.5s0.9,0.7,1.2,1.2c0.3,0.5,0.5,1,0.6,1.6s0.2,1.2,0.1,1.7h-6.6c0,0.4,0,0.8,0.1,1.1c0.1,0.3,0.3,0.7,0.5,0.9
			c0.2,0.3,0.5,0.5,0.9,0.6c0.4,0.2,0.8,0.2,1.2,0.2c0.6,0,1.1-0.1,1.5-0.4s0.6-0.7,0.8-1.3h1.4C163.1,43,162.7,43.7,162.1,44.2z
			 M161.7,38.6c-0.1-0.3-0.3-0.6-0.5-0.8c-0.2-0.2-0.5-0.4-0.8-0.5s-0.6-0.2-1-0.2s-0.7,0.1-1,0.2s-0.6,0.3-0.8,0.5
			s-0.4,0.5-0.5,0.8s-0.2,0.6-0.2,1h5C161.9,39.2,161.8,38.9,161.7,38.6z"/>
		<path class="st0" d="M166.7,32.7v12.1h-1.4V32.7H166.7z"/>
		<path class="st0" d="M168.9,38.6c0.2-0.6,0.5-1,0.8-1.5c0.4-0.4,0.8-0.7,1.3-1c0.5-0.2,1.1-0.4,1.8-0.4c0.7,0,1.3,0.1,1.8,0.4
			c0.5,0.2,1,0.6,1.3,1c0.4,0.4,0.6,0.9,0.8,1.5s0.3,1.2,0.3,1.8c0,0.6-0.1,1.2-0.3,1.8c-0.2,0.6-0.5,1-0.8,1.5
			c-0.4,0.4-0.8,0.7-1.3,1c-0.5,0.2-1.1,0.3-1.8,0.3c-0.7,0-1.3-0.1-1.8-0.3c-0.5-0.2-1-0.6-1.3-1c-0.4-0.4-0.6-0.9-0.8-1.5
			s-0.3-1.2-0.3-1.8S168.7,39.2,168.9,38.6z M170.3,41.8c0.1,0.4,0.3,0.8,0.6,1s0.5,0.5,0.9,0.6c0.3,0.1,0.7,0.2,1.1,0.2
			s0.7-0.1,1.1-0.2c0.3-0.1,0.6-0.4,0.9-0.6c0.2-0.3,0.4-0.6,0.6-1c0.1-0.4,0.2-0.9,0.2-1.4s-0.1-1-0.2-1.4s-0.3-0.8-0.6-1
			c-0.3-0.3-0.5-0.5-0.9-0.6c-0.3-0.1-0.7-0.2-1.1-0.2s-0.7,0.1-1.1,0.2c-0.3,0.1-0.6,0.4-0.9,0.6s-0.4,0.6-0.6,1
			c-0.1,0.4-0.2,0.9-0.2,1.4C170.1,41,170.2,41.4,170.3,41.8z"/>
		<path class="st0" d="M180.5,36v1.2l0,0c0.2-0.5,0.6-0.8,1.1-1.1c0.5-0.2,1.1-0.3,1.7-0.3c0.7,0,1.3,0.1,1.8,0.4s0.9,0.6,1.3,1
			c0.3,0.4,0.6,0.9,0.8,1.5c0.2,0.6,0.3,1.1,0.3,1.8c0,0.6-0.1,1.2-0.2,1.8c-0.2,0.6-0.4,1-0.7,1.5c-0.3,0.4-0.8,0.7-1.3,1
			c-0.5,0.2-1.1,0.4-1.8,0.4c-0.2,0-0.5,0-0.7-0.1c-0.3,0-0.5-0.1-0.8-0.2s-0.5-0.2-0.7-0.4c-0.2-0.2-0.4-0.4-0.6-0.7l0,0v4.5h-1.4
			V36.2h1.2V36z M185.7,39.1c-0.1-0.4-0.3-0.7-0.5-1s-0.5-0.5-0.8-0.7s-0.8-0.3-1.2-0.3c-0.5,0-0.9,0.1-1.2,0.3
			c-0.3,0.2-0.6,0.4-0.8,0.8c-0.2,0.3-0.4,0.7-0.5,1.1s-0.1,0.8-0.1,1.2c0,0.4,0.1,0.8,0.2,1.2c0.1,0.4,0.3,0.8,0.5,1.1
			c0.2,0.3,0.5,0.6,0.9,0.7c0.4,0.2,0.8,0.3,1.3,0.3s0.9-0.1,1.2-0.3c0.3-0.2,0.6-0.4,0.8-0.8c0.2-0.3,0.4-0.7,0.4-1.1
			c0.1-0.4,0.1-0.8,0.1-1.3C185.8,39.9,185.8,39.5,185.7,39.1z"/>
		<path class="st0" d="M195.5,44.2c-0.7,0.5-1.5,0.7-2.5,0.7c-0.7,0-1.3-0.1-1.8-0.3c-0.5-0.2-0.9-0.5-1.3-1
			c-0.4-0.4-0.6-0.9-0.8-1.5s-0.3-1.2-0.3-1.9c0-0.7,0.1-1.3,0.3-1.8c0.2-0.6,0.5-1,0.9-1.4s0.8-0.7,1.3-1c0.5-0.2,1.1-0.3,1.7-0.3
			c0.8,0,1.4,0.2,1.9,0.5s0.9,0.7,1.2,1.2c0.3,0.5,0.5,1,0.6,1.6s0.2,1.2,0.1,1.7h-6.5c0,0.4,0,0.8,0.1,1.1c0.1,0.3,0.3,0.7,0.5,0.9
			c0.2,0.3,0.5,0.5,0.9,0.6c0.4,0.2,0.8,0.2,1.2,0.2c0.6,0,1.1-0.1,1.5-0.4s0.6-0.7,0.8-1.3h1.4C196.5,43,196.1,43.7,195.5,44.2z
			 M195.1,38.6c-0.1-0.3-0.3-0.6-0.5-0.8c-0.2-0.2-0.5-0.4-0.8-0.5s-0.6-0.2-1-0.2s-0.7,0.1-1,0.2s-0.6,0.3-0.8,0.5
			c-0.2,0.2-0.4,0.5-0.5,0.8s-0.2,0.6-0.2,1h5C195.3,39.2,195.2,38.9,195.1,38.6z"/>
		<path class="st0" d="M199.8,36v1.9l0,0c0.4-0.7,0.8-1.2,1.3-1.6c0.5-0.3,1.2-0.5,1.9-0.5v1.5c-0.6,0-1.1,0.1-1.5,0.2
			s-0.7,0.4-1,0.7c-0.2,0.3-0.4,0.7-0.5,1.1s-0.2,0.9-0.2,1.5v3.9h-1.4v-8.8L199.8,36L199.8,36z"/>
	</g>
</g>
</svg>
