<?xml version="1.0" encoding="utf-8"?>
<!-- Generator: Adobe Illustrator 21.1.0, SVG Export Plug-In . SVG Version: 6.00 Build 0)  -->
<svg version="1.1" id="Layer_1" xmlns="http://www.w3.org/2000/svg" xmlns:xlink="http://www.w3.org/1999/xlink" x="0px" y="0px"
	 viewBox="0 0 348.1 348.1" style="enable-background:new 0 0 348.1 348.1;" xml:space="preserve">
<style type="text/css">
	.st0{fill:#FFFFFF;stroke:#000000;stroke-width:4;stroke-miterlimit:10;}
	.st1{stroke:#000000;stroke-width:4;stroke-linecap:round;stroke-linejoin:round;stroke-miterlimit:10;}
	.st2{stroke:#000000;stroke-miterlimit:10;}
	.st3{stroke:#000000;stroke-width:3;stroke-miterlimit:10;}
	.st4{stroke:#000000;stroke-width:0.5;stroke-miterlimit:10;}
	.st5{stroke:#000000;stroke-width:5;stroke-linecap:round;stroke-linejoin:round;stroke-miterlimit:10;}
	.st6{fill:#FFFFFF;stroke:#000000;stroke-width:4;stroke-linecap:round;stroke-linejoin:round;stroke-miterlimit:10;}
	.st7{fill:#FFFFFF;stroke:#000000;stroke-width:4;stroke-linejoin:round;stroke-miterlimit:10;}
	.st8{fill:#636363;stroke:#000000;stroke-width:4;stroke-linecap:round;stroke-linejoin:round;stroke-miterlimit:10;}
	.st9{fill:#FFFFFF;}
</style>
<circle id="Circle" class="st0" cx="174.1" cy="174.1" r="172.1"/>
<g id="Diesel">
	<path class="st1" d="M218.1,274.1l1.2,9.7c0,0,76.4-15.9,48.9-62.8C268.2,221,266.4,248.6,218.1,274.1z"/>
	<path class="st2" d="M201.8,192.6c0,0,15.3,27.7,20,56.6c0,0,3.5,12.2,2.3,37.4c0,0-7.3,16.5-19.9,13.9l-58.2-4.4
		c0,0-19,3.5-20.3-7.9c0,0-1.4-32.1,16.6-55.4L201.8,192.6z"/>
	<path class="st3" d="M224.2,271.2c0,0-11.4,2.3-25.8,5c-0.1,0,1.7-0.5,1.6-0.4c-14.7,2.9-1.7,23.9,6.1,25
		c3.8,0.6,12.9-2.5,17.9-14.1L224.2,271.2z"/>
	<path class="st3" d="M128.7,272.5c0,0-3.9,10.5-2.8,17.1c1,5.3,8.7,8.3,20,6.5v-20.9L128.7,272.5z"/>
	<path class="st4" d="M178.5,301.1c0,0,18.7,18.9,30.1-1.4c0,0,0.4-3.1-4.3-31.3l0.4-82.5l-31.2,32.7L178.5,301.1z"/>
	<path class="st4" d="M146.8,224.1l-3,48.4v26c0,0,15.7,24.4,32.8,2.6l-5.1-83.7L146.8,224.1z"/>
	<path class="st3" d="M145.9,280.2c0,0,19.9-3,29.4,0l1.2,18.5c0,0-14.7,22.1-32.8-2.6L145.9,280.2z"/>
	<path class="st3" d="M175.6,284.5c0,0,13.5-5.7,28.5-5.6c0,0,4.2,17.2,2.6,19.6c0,0-9.2,20.1-30.1,1.4L175.6,284.5z"/>
	<path class="st4" d="M150.7,224.9c0,0-3.3,22.6,16,23.8c12.4,0.7,12.3,1.2,16.5-1.2c6.7-3.7,17.2-11.2,6.8-36.1
		C190.1,211.4,175.8,225.2,150.7,224.9z"/>
	<path class="st5" d="M145.9,231.9c0,0,69-25.1,75.3-75l-37.9-41.6c0,0-10.4,5.5-46.4-33.2c0,0,32.2,1.4,42.1,4.7
		c2.3,0.7,4.8-0.2,5.7-2.5c0.6-1.3,0.6-3-0.8-4.9c0,0-7.9-16.6-28.2-31.3c0,0-3.9-6.2-23.8-3.1c0,0-38.4,31.6-22.1,33.8
		c2,0.2-39.6,7.4-51.3,65.9c0,0-7.8-2.9-11,4.3s-10.3,15.3-10.3,15.3s-7.3,22.1,13.3,31.2c20.6,9.1,37.9,15.2,30.6-0.2
		c-7.3-15.4-17.2-29.7-15.2-35c2-5.4,44.6,37.8,44.6,37.8l3.2,4.8L145.9,231.9z"/>
	<path class="st4" d="M186.4,200.8c0.2-3.5,6.7-8.5,9.9-9.9c2.3-1,9.9,0.4,9.4,4.1c0,0-6.6,10.6-13.5,15.9
		C190,212.6,186,205.7,186.4,200.8z"/>
	<path class="st6" d="M97.9,211.4l10.4-4.3l-1.7,11l9.2-3l1.8,8.6l7.3-2.8l1.6,8.7l8.5-3.1l4.7,9.2l5.7-5.4l5.9,8.5l5.3-12l10.8,4.5
		l-0.5-10.8l10.5,3.7l1.2-10.8l12.9,2.8l-1-10.9l11.7,2.6l-2.2-10.9l11.4-0.1l-1.6-9.4l9.9-3l-3.5-9.9l8.7-3.5l-4.7-8.7l9.3-4.9
		l-7.5-6.3l4.5-10.2l-11.4,0.4l1.9-12.1l-9.9,0.7l2.9-9.8l-8.5,0.4l0.6-11.2l-8.1,1.9l-2.3-8.3l-7.1,9l-8.5-5.4l-1.6,13.4
		l-20.2,22.7c0,0,0.7,14.2-3.7,19.1c-4.9,5.5-18.4,7.9-18.4,7.9l-21,23.6L97,197.6l7.9,4.5L97.9,211.4z"/>
	<path class="st7" d="M137.1,122.2l22.6-23c0,0,0,0,0-0.1c0.1-0.7,1.2-11.4-11.4-2.5l1.6-8.1c0,0-9.9,1.8-12.8,11.7
		c0,0-1.6-6.8,3.8-17.2C140.9,83.1,115.9,107.1,137.1,122.2z"/>
	<path class="st7" d="M105.3,154.3l-21.4,24.2c0,0,0,0-0.1,0c-0.7,0.1-10.4,1.2-2-12.4l-7.4,1.6c0,0,1.9-10.8,11-13.8
		c0,0-6.1-1.8-15.8,3.9C69.4,157.8,91.9,130.9,105.3,154.3z"/>
	<path class="st8" d="M183.1,189.5c0.2,0.2-0.2,1.2-1.2,2.3c-1,1.1-1.9,1.7-2.2,1.6c-0.2-0.2,1.4-1.2,2.4-2.3
		C183,190,182.8,189.3,183.1,189.5z"/>
</g>
<g id="Title">
	<g>
		<path class="st9" d="M-426.8,370.5h-7.7v20.9h-4.2v-20.9h-7.6v-4.2h19.5L-426.8,370.5L-426.8,370.5z"/>
		<path class="st9" d="M-404.5,391.4h-4.9l-1.7-4.2h-9.2l-1.7,4.2h-4.9l11.2-25.1L-404.5,391.4z M-418.5,383h5.7l-2.8-7L-418.5,383z
			"/>
		<path class="st9" d="M-400.5,378c-1.6-1.7-1.9-3.2-1.9-5c0-3.8,4.1-7,8-7c3.8,0,8,2.9,8,5.6l-4.2,1.4c0-1.5-1.7-2.8-3.8-2.8
			s-3.8,1.3-3.8,2.8s1.6,2.7,3.8,3.1c2.5,0.4,3.6,0.7,4.8,1.2c1.9,0.8,3.9,2.5,3.9,6.8s-4.4,7.7-8.6,7.7c-4.2,0-8.7-3-8.7-6.3
			l4.2-1.4c0,1.9,2.6,3.5,4.5,3.5c2,0,4.5-1.6,4.5-3.5c0-2.5-2.5-3.2-4.5-3.8C-397.1,379.5-399.2,379.3-400.5,378z"/>
		<path class="st9" d="M-381.6,366.3h4.2v10.5h11.2v-10.5h4.2v25.1h-4.2v-10.5h-11.2v10.5h-4.2V366.3z"/>
		<path class="st9" d="M-336.2,391.4h-4.9l-1.7-4.2h-9.2l-1.7,4.2h-4.9l11.2-25.1L-336.2,391.4z M-350.2,383h5.7l-2.8-7L-350.2,383z
			"/>
		<path class="st9" d="M-319.3,366.3c6.9,0.1,12.4,5.7,12.4,12.6s-5.5,12.5-12.4,12.6h-7.1v-25.1h7.1V366.3z M-319.3,370.5h-3v16.7
			h3c4.5-0.1,8.2-3.8,8.2-8.4C-311.1,374.3-314.8,370.5-319.3,370.5z"/>
		<path class="st9" d="M-297.9,366.3v25.1h-4.1v-25.1H-297.9z"/>
		<path class="st9" d="M-283.2,391.4l-11.2-25.1h4.9l6.3,15.3l6.3-15.3h4.9L-283.2,391.4z"/>
		<path class="st9" d="M-264.4,366.3v25.1h-4.2v-25.1H-264.4z"/>
		<path class="st9" d="M-257.6,378c-1.6-1.7-1.9-3.2-1.9-5c0-3.8,4.1-7,8-7c3.8,0,8,2.9,8,5.6l-4.2,1.4c0-1.5-1.7-2.8-3.8-2.8
			s-3.8,1.3-3.8,2.8s1.6,2.7,3.8,3.1c2.5,0.4,3.6,0.7,4.8,1.2c1.9,0.8,3.9,2.5,3.9,6.8s-4.4,7.7-8.6,7.7s-8.7-3-8.7-6.3l4.2-1.4
			c0,1.9,2.6,3.5,4.5,3.5c2,0,4.5-1.6,4.5-3.5c0-2.5-2.5-3.2-4.5-3.8C-254.2,379.5-256.3,379.3-257.6,378z"/>
	</g>
	<g>
		<path class="st9" d="M-434.3,398.7v1.4h-6.4v3.9h5.6v1.4h-5.6v5.6h-1.6v-12.1h8V398.7z"/>
		<path class="st9" d="M-431.2,402v1.9l0,0c0.4-0.7,0.8-1.2,1.3-1.6c0.5-0.3,1.2-0.5,1.9-0.5v1.5c-0.6,0-1.1,0.1-1.5,0.2
			s-0.7,0.4-1,0.7c-0.2,0.3-0.4,0.7-0.5,1.1s-0.2,0.9-0.2,1.5v3.9h-1.4v-8.8L-431.2,402L-431.2,402z"/>
		<path class="st9" d="M-427.2,404.6c0.2-0.6,0.5-1,0.8-1.5c0.4-0.4,0.8-0.7,1.3-1c0.5-0.2,1.1-0.4,1.8-0.4c0.7,0,1.3,0.1,1.8,0.4
			c0.5,0.2,1,0.6,1.3,1c0.4,0.4,0.6,0.9,0.8,1.5c0.2,0.6,0.3,1.2,0.3,1.8c0,0.6-0.1,1.2-0.3,1.8c-0.2,0.6-0.5,1-0.8,1.5
			c-0.4,0.4-0.8,0.7-1.3,1c-0.5,0.2-1.1,0.3-1.8,0.3c-0.7,0-1.3-0.1-1.8-0.3c-0.5-0.2-1-0.6-1.3-1c-0.4-0.4-0.6-0.9-0.8-1.5
			c-0.2-0.6-0.3-1.2-0.3-1.8S-427.4,405.2-427.2,404.6z M-425.8,407.8c0.1,0.4,0.3,0.8,0.6,1c0.3,0.2,0.5,0.5,0.9,0.6
			c0.3,0.1,0.7,0.2,1.1,0.2s0.7-0.1,1.1-0.2c0.3-0.1,0.6-0.4,0.9-0.6c0.2-0.3,0.4-0.6,0.6-1c0.1-0.4,0.2-0.9,0.2-1.4s-0.1-1-0.2-1.4
			s-0.3-0.8-0.6-1c-0.2-0.3-0.5-0.5-0.9-0.6c-0.3-0.1-0.7-0.2-1.1-0.2c-0.4,0-0.7,0.1-1.1,0.2c-0.3,0.1-0.6,0.4-0.9,0.6
			s-0.4,0.6-0.6,1c-0.1,0.4-0.2,0.9-0.2,1.4C-426,407-425.9,407.4-425.8,407.8z"/>
		<path class="st9" d="M-415.8,402v1.4l0,0c0.6-1.1,1.6-1.6,2.9-1.6c0.6,0,1.1,0.1,1.4,0.2c0.4,0.2,0.7,0.4,0.9,0.7
			c0.2,0.3,0.4,0.6,0.5,1s0.1,0.8,0.1,1.3v5.8h-1.4v-5.9c0-0.5-0.2-1-0.5-1.3c-0.3-0.3-0.8-0.5-1.3-0.5c-0.4,0-0.8,0.1-1.1,0.2
			c-0.3,0.1-0.6,0.3-0.8,0.6c-0.2,0.2-0.4,0.5-0.5,0.9c-0.1,0.3-0.2,0.7-0.2,1.1v5h-1.4v-8.8h1.4V402L-415.8,402z"/>
		<path class="st9" d="M-403.7,402v1.3h-1.8v5.5c0,0.2,0,0.3,0,0.4s0.1,0.2,0.2,0.2c0.1,0.1,0.2,0.1,0.3,0.1s0.3,0,0.6,0h0.7v1.3
			h-1.1c-0.4,0-0.7,0-1-0.1c-0.3-0.1-0.5-0.1-0.6-0.3c-0.2-0.1-0.3-0.3-0.4-0.6c-0.1-0.3-0.1-0.6-0.1-1v-5.6h-1.5v-1.3h1.5v-2.6h1.4
			v2.6h1.8V402L-403.7,402z"/>
		<path class="st9" d="M-397.3,405.4v1.4h-4.9v-1.4H-397.3z"/>
		<path class="st9" d="M-386.6,398.7v1.4h-6.8v3.9h6.4v1.4h-6.3v4.2h6.8v1.4h-8.5v-12.1h8.4V398.7z"/>
		<path class="st9" d="M-383.3,402v1.4l0,0c0.6-1.1,1.6-1.6,2.9-1.6c0.6,0,1.1,0.1,1.4,0.2s0.7,0.4,0.9,0.7c0.2,0.3,0.4,0.6,0.5,1
			s0.1,0.8,0.1,1.3v5.8h-1.4v-5.9c0-0.5-0.2-1-0.5-1.3c-0.3-0.3-0.8-0.5-1.3-0.5c-0.4,0-0.8,0.1-1.1,0.2c-0.3,0.1-0.6,0.3-0.8,0.6
			c-0.2,0.2-0.4,0.5-0.5,0.9c-0.1,0.3-0.2,0.7-0.2,1.1v5h-1.4v-8.8h1.4V402L-383.3,402z"/>
		<path class="st9" d="M-368.6,410.8v-1.2l0,0c-0.2,0.5-0.6,0.8-1.1,1.1c-0.5,0.2-1.1,0.3-1.7,0.3c-0.7,0-1.3-0.1-1.8-0.4
			c-0.5-0.2-0.9-0.6-1.3-1c-0.3-0.4-0.6-0.9-0.8-1.5c-0.2-0.6-0.3-1.1-0.3-1.8c0-0.6,0.1-1.2,0.2-1.8c0.2-0.6,0.4-1,0.7-1.5
			c0.3-0.4,0.8-0.7,1.3-1c0.5-0.2,1.1-0.4,1.8-0.4c0.2,0,0.5,0,0.7,0.1c0.2,0.1,0.5,0.1,0.8,0.2c0.3,0.1,0.5,0.2,0.7,0.4
			c0.2,0.2,0.4,0.4,0.6,0.7l0,0v-4.5h1.4v12.3H-368.6z M-373.8,407.7c0.1,0.4,0.3,0.7,0.5,1c0.2,0.3,0.5,0.5,0.8,0.7
			c0.3,0.2,0.8,0.3,1.2,0.3c0.5,0,0.9-0.1,1.2-0.3c0.3-0.2,0.6-0.4,0.8-0.8c0.2-0.3,0.4-0.7,0.5-1.1s0.1-0.8,0.1-1.2
			c0-0.4-0.1-0.8-0.2-1.2c-0.1-0.4-0.3-0.8-0.5-1.1c-0.2-0.3-0.5-0.6-0.9-0.7c-0.4-0.2-0.8-0.3-1.3-0.3s-0.9,0.1-1.2,0.3
			c-0.3,0.2-0.6,0.4-0.8,0.8c-0.2,0.3-0.4,0.7-0.4,1.1c-0.1,0.4-0.1,0.8-0.1,1.3C-374,406.9-373.9,407.3-373.8,407.7z"/>
		<path class="st9" d="M-350.4,410.8l-2.8-10.2l0,0l-2.8,10.2h-1.7l-3.1-12.1h1.6l2.4,10.1l0,0l2.7-10.1h1.8l2.7,10.1l0,0l2.5-10.1
			h1.6l-3.2,12.1H-350.4z"/>
		<path class="st9" d="M-338.8,410.2c-0.7,0.5-1.5,0.7-2.5,0.7c-0.7,0-1.3-0.1-1.8-0.3c-0.5-0.2-0.9-0.5-1.3-1
			c-0.4-0.4-0.6-0.9-0.8-1.5c-0.2-0.6-0.3-1.2-0.3-1.9c0-0.7,0.1-1.3,0.3-1.8c0.2-0.6,0.5-1,0.9-1.4s0.8-0.7,1.3-1
			c0.5-0.2,1.1-0.3,1.7-0.3c0.8,0,1.4,0.2,1.9,0.5s0.9,0.7,1.2,1.2c0.3,0.5,0.5,1,0.6,1.6s0.2,1.2,0.1,1.7h-6.6c0,0.4,0,0.8,0.1,1.1
			c0.1,0.3,0.3,0.7,0.5,0.9c0.2,0.3,0.5,0.5,0.9,0.6s0.8,0.2,1.2,0.2c0.6,0,1.1-0.1,1.5-0.4s0.6-0.7,0.8-1.3h1.4
			C-337.7,409-338.1,409.7-338.8,410.2z M-339.1,404.6c-0.1-0.3-0.3-0.6-0.5-0.8c-0.2-0.2-0.5-0.4-0.8-0.5c-0.3-0.1-0.6-0.2-1-0.2
			s-0.7,0.1-1,0.2c-0.3,0.1-0.6,0.3-0.8,0.5c-0.2,0.2-0.4,0.5-0.5,0.8s-0.2,0.6-0.2,1h5C-338.9,405.2-339,404.9-339.1,404.6z"/>
		<path class="st9" d="M-334.2,398.7v4.5l0,0c0.2-0.5,0.6-0.8,1.1-1.1c0.5-0.2,1.1-0.3,1.7-0.3c0.7,0,1.3,0.1,1.8,0.4s0.9,0.6,1.3,1
			c0.3,0.4,0.6,0.9,0.8,1.5c0.2,0.6,0.3,1.1,0.3,1.8c0,0.6-0.1,1.2-0.2,1.8c-0.2,0.6-0.4,1-0.7,1.5c-0.3,0.4-0.8,0.7-1.3,1
			c-0.5,0.2-1.1,0.4-1.8,0.4c-0.2,0-0.5,0-0.7-0.1c-0.3,0-0.5-0.1-0.8-0.2c-0.3-0.1-0.5-0.2-0.7-0.4c-0.2-0.2-0.4-0.4-0.6-0.7l0,0
			v1.2h-1.4v-12.1h1.2L-334.2,398.7L-334.2,398.7z M-329,405.1c-0.1-0.4-0.3-0.7-0.5-1c-0.2-0.3-0.5-0.5-0.8-0.7
			c-0.3-0.2-0.8-0.3-1.2-0.3c-0.5,0-0.9,0.1-1.2,0.3c-0.3,0.2-0.6,0.4-0.8,0.8c-0.2,0.4-0.4,0.7-0.5,1.1s-0.1,0.8-0.1,1.2
			c0,0.4,0.1,0.8,0.2,1.2c0.1,0.4,0.3,0.8,0.5,1.1c0.2,0.3,0.5,0.6,0.9,0.7c0.4,0.2,0.8,0.3,1.3,0.3s0.9-0.1,1.2-0.3
			c0.3-0.2,0.6-0.4,0.8-0.8c0.2-0.3,0.4-0.7,0.4-1.1c0.1-0.4,0.1-0.8,0.1-1.3C-328.8,405.9-328.9,405.5-329,405.1z"/>
		<path class="st9" d="M-316.1,398.7c1.9,0,3.3,0.5,4.3,1.4c1,1,1.5,2.4,1.5,4.3c0,1-0.1,1.9-0.3,2.7c-0.2,0.8-0.6,1.4-1.1,2
			c-0.5,0.5-1.1,0.9-1.8,1.2c-0.7,0.3-1.6,0.4-2.6,0.4h-4.2v-12.1h4.2L-316.1,398.7L-316.1,398.7z M-316,409.4c0.2,0,0.4,0,0.7,0
			c0.3,0,0.6-0.1,0.9-0.2c0.3-0.1,0.6-0.3,0.9-0.5c0.3-0.2,0.6-0.5,0.8-0.8c0.2-0.4,0.4-0.8,0.6-1.3c0.2-0.5,0.2-1.2,0.2-1.9
			c0-0.7-0.1-1.4-0.2-1.9c-0.1-0.6-0.4-1.1-0.7-1.5c-0.3-0.4-0.7-0.7-1.2-0.9c-0.5-0.2-1.1-0.3-1.9-0.3h-2.7v9.4h2.6V409.4
			L-316,409.4z"/>
		<path class="st9" d="M-302.2,410.2c-0.7,0.5-1.5,0.7-2.5,0.7c-0.7,0-1.3-0.1-1.8-0.3c-0.5-0.2-0.9-0.5-1.3-1
			c-0.4-0.4-0.6-0.9-0.8-1.5c-0.2-0.6-0.3-1.2-0.3-1.9c0-0.7,0.1-1.3,0.3-1.8c0.2-0.6,0.5-1,0.9-1.4s0.8-0.7,1.3-1
			c0.5-0.2,1.1-0.3,1.7-0.3c0.8,0,1.4,0.2,1.9,0.5s0.9,0.7,1.2,1.2c0.3,0.5,0.5,1,0.6,1.6s0.2,1.2,0.1,1.7h-6.6c0,0.4,0,0.8,0.1,1.1
			c0.1,0.3,0.3,0.7,0.5,0.9c0.2,0.3,0.5,0.5,0.9,0.6s0.8,0.2,1.2,0.2c0.6,0,1.1-0.1,1.5-0.4s0.6-0.7,0.8-1.3h1.4
			C-301.1,409-301.5,409.7-302.2,410.2z M-302.5,404.6c-0.1-0.3-0.3-0.6-0.5-0.8c-0.2-0.2-0.5-0.4-0.8-0.5c-0.3-0.1-0.6-0.2-1-0.2
			s-0.7,0.1-1,0.2c-0.3,0.1-0.6,0.3-0.8,0.5c-0.2,0.2-0.4,0.5-0.5,0.8s-0.2,0.6-0.2,1h5C-302.3,405.2-302.4,404.9-302.5,404.6z"/>
		<path class="st9" d="M-296.7,410.8l-3.3-8.8h1.6l2.5,7.3l0,0l2.4-7.3h1.5l-3.2,8.8H-296.7z"/>
		<path class="st9" d="M-284.2,410.2c-0.7,0.5-1.5,0.7-2.5,0.7c-0.7,0-1.3-0.1-1.8-0.3c-0.5-0.2-0.9-0.5-1.3-1
			c-0.4-0.4-0.6-0.9-0.8-1.5s-0.3-1.2-0.3-1.9c0-0.7,0.1-1.3,0.3-1.8c0.2-0.6,0.5-1,0.9-1.4s0.8-0.7,1.3-1c0.5-0.2,1.1-0.3,1.7-0.3
			c0.8,0,1.4,0.2,1.9,0.5s0.9,0.7,1.2,1.2c0.3,0.5,0.5,1,0.6,1.6s0.2,1.2,0.1,1.7h-6.6c0,0.4,0,0.8,0.1,1.1c0.1,0.3,0.3,0.7,0.5,0.9
			c0.2,0.3,0.5,0.5,0.9,0.6c0.4,0.2,0.8,0.2,1.2,0.2c0.6,0,1.1-0.1,1.5-0.4s0.6-0.7,0.8-1.3h1.4C-283.2,409-283.6,409.7-284.2,410.2
			z M-284.6,404.6c-0.1-0.3-0.3-0.6-0.5-0.8c-0.2-0.2-0.5-0.4-0.8-0.5s-0.6-0.2-1-0.2s-0.7,0.1-1,0.2s-0.6,0.3-0.8,0.5
			s-0.4,0.5-0.5,0.8s-0.2,0.6-0.2,1h5C-284.4,405.2-284.5,404.9-284.6,404.6z"/>
		<path class="st9" d="M-279.6,398.7v12.1h-1.4v-12.1H-279.6z"/>
		<path class="st9" d="M-277.4,404.6c0.2-0.6,0.5-1,0.8-1.5c0.4-0.4,0.8-0.7,1.3-1c0.5-0.2,1.1-0.4,1.8-0.4c0.7,0,1.3,0.1,1.8,0.4
			c0.5,0.2,1,0.6,1.3,1c0.4,0.4,0.6,0.9,0.8,1.5s0.3,1.2,0.3,1.8c0,0.6-0.1,1.2-0.3,1.8c-0.2,0.6-0.5,1-0.8,1.5
			c-0.4,0.4-0.8,0.7-1.3,1c-0.5,0.2-1.1,0.3-1.8,0.3c-0.7,0-1.3-0.1-1.8-0.3c-0.5-0.2-1-0.6-1.3-1c-0.4-0.4-0.6-0.9-0.8-1.5
			s-0.3-1.2-0.3-1.8S-277.6,405.2-277.4,404.6z M-276,407.8c0.1,0.4,0.3,0.8,0.6,1s0.5,0.5,0.9,0.6c0.3,0.1,0.7,0.2,1.1,0.2
			s0.7-0.1,1.1-0.2c0.3-0.1,0.6-0.4,0.9-0.6c0.2-0.3,0.4-0.6,0.6-1c0.1-0.4,0.2-0.9,0.2-1.4s-0.1-1-0.2-1.4s-0.3-0.8-0.6-1
			c-0.3-0.3-0.5-0.5-0.9-0.6c-0.3-0.1-0.7-0.2-1.1-0.2s-0.7,0.1-1.1,0.2c-0.3,0.1-0.6,0.4-0.9,0.6s-0.4,0.6-0.6,1
			c-0.1,0.4-0.2,0.9-0.2,1.4C-276.2,407-276.1,407.4-276,407.8z"/>
		<path class="st9" d="M-265.8,402v1.2l0,0c0.2-0.5,0.6-0.8,1.1-1.1c0.5-0.2,1.1-0.3,1.7-0.3c0.7,0,1.3,0.1,1.8,0.4s0.9,0.6,1.3,1
			c0.3,0.4,0.6,0.9,0.8,1.5c0.2,0.6,0.3,1.1,0.3,1.8c0,0.6-0.1,1.2-0.2,1.8c-0.2,0.6-0.4,1-0.7,1.5c-0.3,0.4-0.8,0.7-1.3,1
			c-0.5,0.2-1.1,0.4-1.8,0.4c-0.2,0-0.5,0-0.7-0.1c-0.3,0-0.5-0.1-0.8-0.2s-0.5-0.2-0.7-0.4c-0.2-0.2-0.4-0.4-0.6-0.7l0,0v4.5h-1.4
			v-12.1h1.2V402z M-260.6,405.1c-0.1-0.4-0.3-0.7-0.5-1s-0.5-0.5-0.8-0.7s-0.8-0.3-1.2-0.3c-0.5,0-0.9,0.1-1.2,0.3
			c-0.3,0.2-0.6,0.4-0.8,0.8c-0.2,0.3-0.4,0.7-0.5,1.1s-0.1,0.8-0.1,1.2c0,0.4,0.1,0.8,0.2,1.2c0.1,0.4,0.3,0.8,0.5,1.1
			c0.2,0.3,0.5,0.6,0.9,0.7c0.4,0.2,0.8,0.3,1.3,0.3s0.9-0.1,1.2-0.3c0.3-0.2,0.6-0.4,0.8-0.8c0.2-0.3,0.4-0.7,0.4-1.1
			c0.1-0.4,0.1-0.8,0.1-1.3C-260.5,405.9-260.5,405.5-260.6,405.1z"/>
		<path class="st9" d="M-250.8,410.2c-0.7,0.5-1.5,0.7-2.5,0.7c-0.7,0-1.3-0.1-1.8-0.3c-0.5-0.2-0.9-0.5-1.3-1
			c-0.4-0.4-0.6-0.9-0.8-1.5s-0.3-1.2-0.3-1.9c0-0.7,0.1-1.3,0.3-1.8c0.2-0.6,0.5-1,0.9-1.4c0.4-0.4,0.8-0.7,1.3-1
			c0.5-0.2,1.1-0.3,1.7-0.3c0.8,0,1.4,0.2,1.9,0.5s0.9,0.7,1.2,1.2c0.3,0.5,0.5,1,0.6,1.6s0.2,1.2,0.1,1.7h-6.5c0,0.4,0,0.8,0.1,1.1
			c0.1,0.3,0.3,0.7,0.5,0.9c0.2,0.3,0.5,0.5,0.9,0.6c0.4,0.2,0.8,0.2,1.2,0.2c0.6,0,1.1-0.1,1.5-0.4s0.6-0.7,0.8-1.3h1.4
			C-249.8,409-250.2,409.7-250.8,410.2z M-251.2,404.6c-0.1-0.3-0.3-0.6-0.5-0.8c-0.2-0.2-0.5-0.4-0.8-0.5s-0.6-0.2-1-0.2
			s-0.7,0.1-1,0.2s-0.6,0.3-0.8,0.5c-0.2,0.2-0.4,0.5-0.5,0.8s-0.2,0.6-0.2,1h5C-251,405.2-251.1,404.9-251.2,404.6z"/>
		<path class="st9" d="M-246.5,402v1.9l0,0c0.4-0.7,0.8-1.2,1.3-1.6c0.5-0.3,1.2-0.5,1.9-0.5v1.5c-0.6,0-1.1,0.1-1.5,0.2
			s-0.7,0.4-1,0.7c-0.2,0.3-0.4,0.7-0.5,1.1s-0.2,0.9-0.2,1.5v3.9h-1.4v-8.8L-246.5,402L-246.5,402z"/>
	</g>
</g>
</svg>
