<?xml version="1.0" encoding="utf-8"?>
<!-- Generator: Adobe Illustrator 21.1.0, SVG Export Plug-In . SVG Version: 6.00 Build 0)  -->
<svg version="1.1" id="Layer_1" xmlns="http://www.w3.org/2000/svg" xmlns:xlink="http://www.w3.org/1999/xlink" x="0px" y="0px"
	 viewBox="0 0 2727 647.2" style="enable-background:new 0 0 2727 647.2;" xml:space="preserve">
<g>
	<path d="M261.3,60.3H158.1v280.1h-56.3V60.3H0V4h261.3L261.3,60.3L261.3,60.3z"/>
	<path d="M560.1,340.4h-65.7l-22.8-56.3H348.4l-22.8,56.3H260L410.1,4L560.1,340.4z M372.5,227.8h76.4L411.4,134L372.5,227.8z"/>
	<path d="M613.7,160.8c-21.4-22.8-25.5-42.9-25.5-67C588.3,42.9,643.2,0,695.5,0c50.9,0,107.2,38.9,107.2,75l-56.3,18.8
		c0-20.1-22.8-37.5-50.9-37.5s-50.9,17.4-50.9,37.5s21.4,36.2,50.9,41.5c33.5,5.4,48.2,9.4,64.3,16.1c25.5,10.7,52.3,33.5,52.3,91.1
		s-59,103.2-115.2,103.2c-56.3,0-116.6-40.2-116.6-84.4l56.3-18.8c0,25.5,34.8,46.9,60.3,46.9c26.8,0,60.3-21.4,60.3-46.9
		c0-33.5-33.5-42.9-60.3-50.9C659.3,180.9,631.2,178.2,613.7,160.8z"/>
	<path d="M867,4h56.3v140.7h150.1V4h56.3v336.4h-56.3V199.7H923.3v140.7H867V4z"/>
	<path d="M1475.4,340.4h-65.7l-22.8-56.3h-123.3l-22.8,56.3h-65.7L1325.3,4L1475.4,340.4z M1287.8,227.8h76.4l-37.5-93.8
		L1287.8,227.8z"/>
	<path d="M1701.9,4c92.5,1.3,166.2,76.4,166.2,168.8s-73.7,167.5-166.2,168.8h-95.1V5.4h95.1V4z M1701.9,60.3h-40.2v223.8h40.2
		c60.3-1.3,109.9-50.9,109.9-112.6C1811.7,111.2,1762.2,60.3,1701.9,60.3z"/>
	<path d="M1988.6,4v336.4h-54.9V4H1988.6z"/>
	<path d="M2185.6,340.4L2035.5,4h65.7l84.4,205L2270,4h65.7L2185.6,340.4z"/>
	<path d="M2437.5,4v336.4h-56.3V4H2437.5z"/>
	<path d="M2528.7,160.8c-21.4-22.8-25.5-42.9-25.5-67c0-50.9,54.9-93.8,107.2-93.8c50.9,0,107.2,38.9,107.2,75l-56.3,18.8
		c0-20.1-22.8-37.5-50.9-37.5c-28.1,0-50.9,17.4-50.9,37.5s21.4,36.2,50.9,41.5c33.5,5.4,48.2,9.4,64.3,16.1
		c25.5,10.7,52.3,33.5,52.3,91.1s-59,103.2-115.2,103.2s-116.6-40.2-116.6-84.4l56.3-18.8c0,25.5,34.8,46.9,60.3,46.9
		c26.8,0,60.3-21.4,60.3-46.9c0-33.5-33.5-42.9-60.3-50.9C2574.2,180.9,2546.1,178.2,2528.7,160.8z"/>
</g>
<g>
	<path d="M160.8,438.2V457H75v52.3h75V528H75v75H53.6V440.9h107.2V438.2z"/>
	<path d="M202.3,482.4v25.5l0,0c5.4-9.4,10.7-16.1,17.4-21.4c6.7-4,16.1-6.7,25.5-6.7v20.1c-8,0-14.7,1.3-20.1,2.7
		c-5.4,1.3-9.4,5.4-13.4,9.4c-2.7,4-5.4,9.4-6.7,14.7c-1.3,5.4-2.7,12.1-2.7,20.1V599h-18.8V481.1L202.3,482.4L202.3,482.4z"/>
	<path d="M255.9,517.3c2.7-8,6.7-13.4,10.7-20.1c5.4-5.4,10.7-9.4,17.4-13.4c6.7-2.7,14.7-5.4,24.1-5.4c9.4,0,17.4,1.3,24.1,5.4
		c6.7,2.7,13.4,8,17.4,13.4c5.4,5.4,8,12.1,10.7,20.1c2.7,8,4,16.1,4,24.1c0,8-1.3,16.1-4,24.1c-2.7,8-6.7,13.4-10.7,20.1
		c-5.4,5.4-10.7,9.4-17.4,13.4c-6.7,2.7-14.7,4-24.1,4c-9.4,0-17.4-1.3-24.1-4c-6.7-2.7-13.4-8-17.4-13.4c-5.4-5.4-8-12.1-10.7-20.1
		c-2.7-8-4-16.1-4-24.1C251.9,533.3,253.3,525.3,255.9,517.3z M274.7,560.1c1.3,5.4,4,10.7,8,13.4c4,2.7,6.7,6.7,12.1,8
		c4,1.3,9.4,2.7,14.7,2.7c5.4,0,9.4-1.3,14.7-2.7c4-1.3,8-5.4,12.1-8c2.7-4,5.4-8,8-13.4c1.3-5.4,2.7-12.1,2.7-18.8
		s-1.3-13.4-2.7-18.8c-1.3-5.4-4-10.7-8-13.4c-2.7-4-6.7-6.7-12.1-8c-4-1.3-9.4-2.7-14.7-2.7c-5.4,0-9.4,1.3-14.7,2.7
		c-4,1.3-8,5.4-12.1,8c-4,2.7-5.4,8-8,13.4c-1.3,5.4-2.7,12.1-2.7,18.8C272,549.4,273.4,554.8,274.7,560.1z"/>
	<path d="M408.7,482.4v18.8l0,0c8-14.7,21.4-21.4,38.9-21.4c8,0,14.7,1.3,18.8,2.7c5.4,2.7,9.4,5.4,12.1,9.4c2.7,4,5.4,8,6.7,13.4
		c1.3,5.4,1.3,10.7,1.3,17.4v77.7h-18.8v-79.1c0-6.7-2.7-13.4-6.7-17.4c-4-4-10.7-6.7-17.4-6.7c-5.4,0-10.7,1.3-14.7,2.7
		c-4,1.3-8,4-10.7,8c-2.7,2.7-5.4,6.7-6.7,12.1c-1.3,4-2.7,9.4-2.7,14.7v67H390V483.8h18.8L408.7,482.4L408.7,482.4z"/>
	<path d="M570.9,482.4v17.4h-24.1v73.7c0,2.7,0,4,0,5.4c0,1.3,1.3,2.7,2.7,2.7c1.3,1.3,2.7,1.3,4,1.3s4,0,8,0h9.4v17.4h-14.7
		c-5.4,0-9.4,0-13.4-1.3c-4-1.3-6.7-1.3-8-4c-2.7-1.3-4-4-5.4-8c-1.3-4-1.3-8-1.3-13.4v-75h-20.1v-17.4H528v-34.8h18.8v34.8h24.1
		L570.9,482.4L570.9,482.4z"/>
	<path d="M656.6,528v18.8H591V528H656.6z"/>
	<path d="M800,438.2V457h-91.1v52.3h85.8V528h-84.4v56.3h91.1V603H687.4V440.9H800V438.2z"/>
	<path d="M844.2,482.4v18.8l0,0c8-14.7,21.4-21.4,38.9-21.4c8,0,14.7,1.3,18.8,2.7c4,1.3,9.4,5.4,12.1,9.4c2.7,4,5.4,8,6.7,13.4
		c1.3,5.4,1.3,10.7,1.3,17.4v77.7h-18.8v-79.1c0-6.7-2.7-13.4-6.7-17.4s-10.7-6.7-17.4-6.7c-5.4,0-10.7,1.3-14.7,2.7
		c-4,1.3-8,4-10.7,8c-2.7,2.7-5.4,6.7-6.7,12.1c-1.3,4-2.7,9.4-2.7,14.7v67h-18.8V483.8h18.8L844.2,482.4L844.2,482.4z"/>
	<path d="M1041.2,600.3v-16.1l0,0c-2.7,6.7-8,10.7-14.7,14.7c-6.7,2.7-14.7,4-22.8,4c-9.4,0-17.4-1.3-24.1-5.4
		c-6.7-2.7-12.1-8-17.4-13.4c-4-5.4-8-12.1-10.7-20.1c-2.7-8-4-14.7-4-24.1c0-8,1.3-16.1,2.7-24.1c2.7-8,5.4-13.4,9.4-20.1
		c4-5.4,10.7-9.4,17.4-13.4c6.7-2.7,14.7-5.4,24.1-5.4c2.7,0,6.7,0,9.4,1.3c2.7,1.3,6.7,1.3,10.7,2.7c4,1.3,6.7,2.7,9.4,5.4
		c2.7,2.7,5.4,5.4,8,9.4l0,0v-60.3h18.8v164.8H1041.2z M971.5,558.8c1.3,5.4,4,9.4,6.7,13.4s6.7,6.7,10.7,9.4c4,2.7,10.7,4,16.1,4
		c6.7,0,12.1-1.3,16.1-4c4-2.7,8-5.4,10.7-10.7c2.7-4,5.4-9.4,6.7-14.7c1.3-5.4,1.3-10.7,1.3-16.1c0-5.4-1.3-10.7-2.7-16.1
		c-1.3-5.4-4-10.7-6.7-14.7c-2.7-4-6.7-8-12.1-9.4c-5.4-2.7-10.7-4-17.4-4c-6.7,0-12.1,1.3-16.1,4c-4,2.7-8,5.4-10.7,10.7
		c-2.7,4-5.4,9.4-5.4,14.7c-1.3,5.4-1.3,10.7-1.3,17.4C968.9,548.1,970.2,553.4,971.5,558.8z"/>
	<path d="M1285.1,600.3l-37.5-136.7l0,0l-37.5,136.7h-22.8l-41.5-162.1h21.4l32.2,135.3l0,0l36.2-135.3h24.1l36.2,135.3l0,0
		l33.5-135.3h21.4l-42.9,162.1H1285.1z"/>
	<path d="M1440.6,592.3c-9.4,6.7-20.1,9.4-33.5,9.4c-9.4,0-17.4-1.3-24.1-4c-6.7-2.7-12.1-6.7-17.4-13.4c-5.4-5.4-8-12.1-10.7-20.1
		c-2.7-8-4-16.1-4-25.5c0-9.4,1.3-17.4,4-24.1c2.7-8,6.7-13.4,12.1-18.8c5.4-5.4,10.7-9.4,17.4-13.4c6.7-2.7,14.7-4,22.8-4
		c10.7,0,18.8,2.7,25.5,6.7c6.7,4,12.1,9.4,16.1,16.1c4,6.7,6.7,13.4,8,21.4c1.3,8,2.7,16.1,1.3,22.8h-88.4c0,5.4,0,10.7,1.3,14.7
		c1.3,4,4,9.4,6.7,12.1c2.7,4,6.7,6.7,12.1,8c5.4,1.3,10.7,2.7,16.1,2.7c8,0,14.7-1.3,20.1-5.4c5.4-4,8-9.4,10.7-17.4h18.8
		C1455.3,576.2,1449.9,585.6,1440.6,592.3z M1436.5,517.3c-1.3-4-4-8-6.7-10.7c-2.7-2.7-6.7-5.4-10.7-6.7c-4-1.3-8-2.7-13.4-2.7
		s-9.4,1.3-13.4,2.7c-4,1.3-8,4-10.7,6.7c-2.7,2.7-5.4,6.7-6.7,10.7c-1.3,4-2.7,8-2.7,13.4h67
		C1439.2,525.3,1437.9,521.3,1436.5,517.3z"/>
	<path d="M1502.2,438.2v60.3l0,0c2.7-6.7,8-10.7,14.7-14.7c6.7-2.7,14.7-4,22.8-4c9.4,0,17.4,1.3,24.1,5.4c6.7,4,12.1,8,17.4,13.4
		c4,5.4,8,12.1,10.7,20.1c2.7,8,4,14.7,4,24.1c0,8-1.3,16.1-2.7,24.1c-2.7,8-5.4,13.4-9.4,20.1c-4,5.4-10.7,9.4-17.4,13.4
		c-6.7,2.7-14.7,5.4-24.1,5.4c-2.7,0-6.7,0-9.4-1.3c-4,0-6.7-1.3-10.7-2.7c-4-1.3-6.7-2.7-9.4-5.4c-2.7-2.7-5.4-5.4-8-9.4l0,0V603
		h-18.8V440.9h16.1L1502.2,438.2L1502.2,438.2z M1571.9,524c-1.3-5.4-4-9.4-6.7-13.4c-2.7-4-6.7-6.7-10.7-9.4c-4-2.7-10.7-4-16.1-4
		c-6.7,0-12.1,1.3-16.1,4c-4,2.7-8,5.4-10.7,10.7c-2.7,5.4-5.4,9.4-6.7,14.7c-1.3,5.4-1.3,10.7-1.3,16.1c0,5.4,1.3,10.7,2.7,16.1
		c1.3,5.4,4,10.7,6.7,14.7c2.7,4,6.7,8,12.1,9.4c5.4,2.7,10.7,4,17.4,4c6.7,0,12.1-1.3,16.1-4c4-2.7,8-5.4,10.7-10.7
		c2.7-4,5.4-9.4,5.4-14.7c1.3-5.4,1.3-10.7,1.3-17.4C1574.6,534.7,1573.2,529.3,1571.9,524z"/>
	<path d="M1744.7,438.2c25.5,0,44.2,6.7,57.6,18.8c13.4,13.4,20.1,32.2,20.1,57.6c0,13.4-1.3,25.5-4,36.2
		c-2.7,10.7-8,18.8-14.7,26.8c-6.7,6.7-14.7,12.1-24.1,16.1c-9.4,4-21.4,5.4-34.8,5.4h-56.3V436.9h56.3L1744.7,438.2L1744.7,438.2z
		 M1746.1,581.6c2.7,0,5.4,0,9.4,0s8-1.3,12.1-2.7c4-1.3,8-4,12.1-6.7c4-2.7,8-6.7,10.7-10.7c2.7-5.4,5.4-10.7,8-17.4
		c2.7-6.7,2.7-16.1,2.7-25.5c0-9.4-1.3-18.8-2.7-25.5c-1.3-8-5.4-14.7-9.4-20.1c-4-5.4-9.4-9.4-16.1-12.1c-6.7-2.7-14.7-4-25.5-4
		h-36.2v126h34.8L1746.1,581.6L1746.1,581.6z"/>
	<path d="M1931,592.3c-9.4,6.7-20.1,9.4-33.5,9.4c-9.4,0-17.4-1.3-24.1-4c-6.7-2.7-12.1-6.7-17.4-13.4c-5.4-5.4-8-12.1-10.7-20.1
		c-2.7-8-4-16.1-4-25.5c0-9.4,1.3-17.4,4-24.1c2.7-8,6.7-13.4,12.1-18.8c5.4-5.4,10.7-9.4,17.4-13.4c6.7-2.7,14.7-4,22.8-4
		c10.7,0,18.8,2.7,25.5,6.7c6.7,4,12.1,9.4,16.1,16.1c4,6.7,6.7,13.4,8,21.4c1.3,8,2.7,16.1,1.3,22.8H1860c0,5.4,0,10.7,1.3,14.7
		c1.3,4,4,9.4,6.7,12.1c2.7,4,6.7,6.7,12.1,8c5.4,1.3,10.7,2.7,16.1,2.7c8,0,14.7-1.3,20.1-5.4c5.4-4,8-9.4,10.7-17.4h18.8
		C1945.8,576.2,1940.4,585.6,1931,592.3z M1927,517.3c-1.3-4-4-8-6.7-10.7c-2.7-2.7-6.7-5.4-10.7-6.7c-4-1.3-8-2.7-13.4-2.7
		s-9.4,1.3-13.4,2.7c-4,1.3-8,4-10.7,6.7c-2.7,2.7-5.4,6.7-6.7,10.7c-1.3,4-2.7,8-2.7,13.4h67C1929.7,525.3,1928.3,521.3,1927,517.3
		z"/>
	<path d="M2004.7,600.3l-44.2-117.9h21.4l33.5,97.8l0,0l32.2-97.8h20.1l-42.9,117.9H2004.7z"/>
	<path d="M2172.2,592.3c-9.4,6.7-20.1,9.4-33.5,9.4c-9.4,0-17.4-1.3-24.1-4c-6.7-2.7-12.1-6.7-17.4-13.4c-5.4-5.4-8-12.1-10.7-20.1
		c-2.7-8-4-16.1-4-25.5c0-9.4,1.3-17.4,4-24.1c2.7-8,6.7-13.4,12.1-18.8c5.4-5.4,10.7-9.4,17.4-13.4c6.7-2.7,14.7-4,22.8-4
		c10.7,0,18.8,2.7,25.5,6.7s12.1,9.4,16.1,16.1c4,6.7,6.7,13.4,8,21.4c1.3,8,2.7,16.1,1.3,22.8h-88.4c0,5.4,0,10.7,1.3,14.7
		c1.3,4,4,9.4,6.7,12.1c2.7,4,6.7,6.7,12.1,8c5.4,2.7,10.7,2.7,16.1,2.7c8,0,14.7-1.3,20.1-5.4c5.4-4,8-9.4,10.7-17.4h18.8
		C2185.6,576.2,2180.3,585.6,2172.2,592.3z M2166.9,517.3c-1.3-4-4-8-6.7-10.7c-2.7-2.7-6.7-5.4-10.7-6.7c-4-1.3-8-2.7-13.4-2.7
		s-9.4,1.3-13.4,2.7c-4,1.3-8,4-10.7,6.7c-2.7,2.7-5.4,6.7-6.7,10.7c-1.3,4-2.7,8-2.7,13.4h67
		C2169.5,525.3,2168.2,521.3,2166.9,517.3z"/>
	<path d="M2233.9,438.2v162.1h-18.8V438.2H2233.9z"/>
	<path d="M2263.3,517.3c2.7-8,6.7-13.4,10.7-20.1c5.4-5.4,10.7-9.4,17.4-13.4c6.7-2.7,14.7-5.4,24.1-5.4c9.4,0,17.4,1.3,24.1,5.4
		c6.7,2.7,13.4,8,17.4,13.4c5.4,5.4,8,12.1,10.7,20.1c2.7,8,4,16.1,4,24.1c0,8-1.3,16.1-4,24.1c-2.7,8-6.7,13.4-10.7,20.1
		c-5.4,5.4-10.7,9.4-17.4,13.4c-6.7,2.7-14.7,4-24.1,4c-9.4,0-17.4-1.3-24.1-4c-6.7-2.7-13.4-8-17.4-13.4c-5.4-5.4-8-12.1-10.7-20.1
		c-2.7-8-4-16.1-4-24.1C2259.3,533.3,2260.7,525.3,2263.3,517.3z M2282.1,560.1c1.3,5.4,4,10.7,8,13.4c4,2.7,6.7,6.7,12.1,8
		c4,1.3,9.4,2.7,14.7,2.7s9.4-1.3,14.7-2.7c4-1.3,8-5.4,12.1-8c2.7-4,5.4-8,8-13.4c1.3-5.4,2.7-12.1,2.7-18.8s-1.3-13.4-2.7-18.8
		s-4-10.7-8-13.4c-4-4-6.7-6.7-12.1-8c-4-1.3-9.4-2.7-14.7-2.7s-9.4,1.3-14.7,2.7c-4,1.3-8,5.4-12.1,8c-4,2.7-5.4,8-8,13.4
		c-1.3,5.4-2.7,12.1-2.7,18.8C2279.4,549.4,2280.8,554.8,2282.1,560.1z"/>
	<path d="M2418.8,482.4v16.1l0,0c2.7-6.7,8-10.7,14.7-14.7c6.7-2.7,14.7-4,22.8-4c9.4,0,17.4,1.3,24.1,5.4c6.7,4,12.1,8,17.4,13.4
		c4,5.4,8,12.1,10.7,20.1c2.7,8,4,14.7,4,24.1c0,8-1.3,16.1-2.7,24.1c-2.7,8-5.4,13.4-9.4,20.1c-4,5.4-10.7,9.4-17.4,13.4
		c-6.7,2.7-14.7,5.4-24.1,5.4c-2.7,0-6.7,0-9.4-1.3c-4,0-6.7-1.3-10.7-2.7s-6.7-2.7-9.4-5.4c-2.7-2.7-5.4-5.4-8-9.4l0,0v60.3h-18.8
		V485.1h16.1V482.4z M2488.5,524c-1.3-5.4-4-9.4-6.7-13.4c-2.7-4-6.7-6.7-10.7-9.4c-4-2.7-10.7-4-16.1-4c-6.7,0-12.1,1.3-16.1,4
		c-4,2.7-8,5.4-10.7,10.7c-2.7,4-5.4,9.4-6.7,14.7s-1.3,10.7-1.3,16.1c0,5.4,1.3,10.7,2.7,16.1c1.3,5.4,4,10.7,6.7,14.7
		c2.7,4,6.7,8,12.1,9.4c5.4,2.7,10.7,4,17.4,4c6.7,0,12.1-1.3,16.1-4c4-2.7,8-5.4,10.7-10.7c2.7-4,5.4-9.4,5.4-14.7
		c1.3-5.4,1.3-10.7,1.3-17.4C2489.8,534.7,2489.8,529.3,2488.5,524z"/>
	<path d="M2619.8,592.3c-9.4,6.7-20.1,9.4-33.5,9.4c-9.4,0-17.4-1.3-24.1-4c-6.7-2.7-12.1-6.7-17.4-13.4c-5.4-5.4-8-12.1-10.7-20.1
		c-2.7-8-4-16.1-4-25.5c0-9.4,1.3-17.4,4-24.1c2.7-8,6.7-13.4,12.1-18.8c5.4-5.4,10.7-9.4,17.4-13.4c6.7-2.7,14.7-4,22.8-4
		c10.7,0,18.8,2.7,25.5,6.7c6.7,4,12.1,9.4,16.1,16.1c4,6.7,6.7,13.4,8,21.4c1.3,8,2.7,16.1,1.3,22.8h-87.1c0,5.4,0,10.7,1.3,14.7
		c1.3,4,4,9.4,6.7,12.1c2.7,4,6.7,6.7,12.1,8c5.4,2.7,10.7,2.7,16.1,2.7c8,0,14.7-1.3,20.1-5.4c5.4-4,8-9.4,10.7-17.4h18.8
		C2633.2,576.2,2627.8,585.6,2619.8,592.3z M2614.4,517.3c-1.3-4-4-8-6.7-10.7c-2.7-2.7-6.7-5.4-10.7-6.7c-4-1.3-8-2.7-13.4-2.7
		s-9.4,1.3-13.4,2.7c-4,1.3-8,4-10.7,6.7c-2.7,2.7-5.4,6.7-6.7,10.7c-1.3,4-2.7,8-2.7,13.4h67
		C2617.1,525.3,2615.8,521.3,2614.4,517.3z"/>
	<path d="M2677.4,482.4v25.5l0,0c5.4-9.4,10.7-16.1,17.4-21.4c6.7-4,16.1-6.7,25.5-6.7v20.1c-8,0-14.7,1.3-20.1,2.7
		c-5.4,1.3-9.4,5.4-13.4,9.4c-2.7,4-5.4,9.4-6.7,14.7c-1.3,5.4-2.7,12.1-2.7,20.1V599h-18.8V481.1L2677.4,482.4L2677.4,482.4z"/>
</g>
</svg>
